<svg  xmlns="http://www.w3.org/2000/svg" xmlns:xlink="http://www.w3.org/1999/xlink" width="907" height="300" viewBox="0 0 931 324"><path transform="translate(0 100)" d="M43.2,-80.8Q50.8,-82.4 57.4,-75.6Q57.4,-74.7 56.9,-73.4Q55.6,-71.2 55,-67.05Q54.4,-62.9 54.4,-57.7Q61.5,-58.4 67.2,-59.4Q72.9,-60.4 76.3,-61.5Q77.8,-61.9 78.8,-61.9Q84.1,-60 87.5,-58.1Q90.9,-56.2 92.6,-54Q92.6,-52.6 90.6,-50.5Q87.6,-47.9 85,-44.7Q82.4,-41.5 80.3,-37.7Q83.5,-34.7 81.5,-32.1Q81.2,-31.5 79.65,-31.3Q78.1,-31.1 75.4,-30.9Q70.2,-30.9 64.85,-30.75Q59.5,-30.6 53.5,-30.2Q53.5,-18.1 53.3,-10.8Q53.1,-3.5 52.6,1.6Q50.7,13.9 46.9,12.3Q45,9.6 45,0.1Q45,-4 45.1,-9.4Q45.2,-14.8 45.4,-19.7Q45.6,-23.1 45.75,-25.3Q45.9,-27.5 45.9,-29.5Q41.3,-29 37.3,-28.8Q33.3,-28.6 28.7,-28.3Q28.6,-21.2 24.7,-23.1Q21.5,-25.5 20.6,-32.5Q19.3,-46.4 14.1,-52.5Q13.4,-53.3 13.2,-53.9Q13,-54.5 13.3,-55.2Q14.8,-57.7 25.3,-54.4Q30.9,-54.8 36,-55.05Q41.1,-55.3 46.6,-55.9Q46.5,-56.9 46.4,-58.4Q46.3,-59.7 46.15,-61.5Q46,-63.3 45.9,-65.9Q45.6,-69.1 45,-71.9Q44.4,-74.7 43.2,-76.9L43.4,-76.9Q41.6,-79.6 42.9,-80.6L43.2,-80.8ZM75,-46.7Q76.2,-52.6 75.3,-53.5Q74.6,-53.6 73.25,-53.85Q71.9,-54.1 69.8,-54.1Q67.1,-54.1 63.05,-53.85Q59,-53.6 53.8,-53.2L53.5,-35.3Q62.6,-36.1 66.95,-36.85Q71.3,-37.6 71.5,-38.2Q73.8,-40.6 75,-46.7ZM46.3,-52Q41.2,-51.4 36.3,-50.95Q31.4,-50.5 26.3,-49.9Q26.8,-45.5 27.35,-41.3Q27.9,-37.1 28.1,-32.5Q32.8,-32.9 37,-33.35Q41.2,-33.8 45.9,-34.4L46.3,-52Z"></path><path transform="translate(100 100)" d="M66.1,-59.5Q73.5,-59.5 76.7,-55.9Q78,-52.3 70.1,-51.4Q64.5,-51.1 59.3,-50.45Q54.1,-49.8 48.9,-48.7Q54.1,-46.7 53.6,-43.3Q53.5,-43.2 53.2,-42.7Q52.9,-42.2 52.8,-42Q52.1,-40.8 51.5,-39.15Q50.9,-37.5 50.4,-35.7Q50.4,-35.2 50.3,-34.65Q50.2,-34.1 50,-33.5L50,-33.6Q49,-29.7 47.85,-26.25Q46.7,-22.8 45.3,-19.7Q62.3,-5 88.5,-0.5Q98.1,2.2 90.1,4.2Q83.7,4.9 78.7,5.2Q73.7,5.5 70,5.5Q63.2,5.5 61.4,4Q49.5,-6.8 41.9,-14.6Q35,-7.6 26.75,-4.2Q18.5,-0.8 8,-0.8Q7.2,-0.8 6.55,-0.85Q5.9,-0.9 5.1,-0.9Q2.4,-0.9 1.8,-2.2Q1.8,-3.7 5,-4.2Q16.4,-6.6 24.6,-10.45Q32.8,-14.3 37.1,-19.8Q33.8,-23.9 30.4,-27.4Q27,-30.9 23.6,-34.1Q23.2,-34.3 22.65,-34.55Q22.1,-34.8 21.3,-35.3L21.3,-35.2Q17.5,-36.5 18.6,-38.5Q19.9,-39.9 22.6,-39.9Q24.7,-39.9 27.2,-39.2Q27.8,-38.9 28.65,-38.05Q29.5,-37.2 30.4,-36.2Q32.7,-33.3 34.95,-30.55Q37.2,-27.8 40,-25Q43.2,-34.7 43.2,-42.7Q43.2,-43.9 43.15,-45.2Q43.1,-46.5 42.9,-47.7Q38.8,-47.1 34.6,-46.2Q30.4,-45.3 26.1,-44.1Q22.8,-43.4 20.65,-43.15Q18.5,-42.9 17.3,-42.9Q5.3,-46.9 13.2,-48.5Q20.5,-48.7 31.65,-51Q42.8,-53.3 56,-57Q59.9,-58.3 62.6,-58.9Q65.3,-59.5 66.1,-59.5ZM35.1,-70.6Q29.3,-75.5 35.9,-75.5Q40,-75 43.3,-74.05Q46.6,-73.1 49.3,-71.5Q53.7,-69.1 52.5,-64.7Q50.1,-59.7 45.9,-62Q39.9,-65.2 35.1,-70.7L35.1,-70.6Z"></path><path transform="translate(200 100)" d="M74.3,-80.2Q77,-80.9 84.7,-77.1Q90.4,-73 89.3,-71Q86.7,-68.9 86.7,-61.2Q86.7,-57.7 86.95,-52.45Q87.2,-47.2 87.6,-39.8Q87.6,-38 87.7,-35.3Q87.8,-32.6 88,-29Q88.4,-20.8 88.65,-15.45Q88.9,-10.1 88.9,-7.9Q88,1.2 80.4,6.8Q78.4,8.1 75.9,4Q74.3,1 72.3,-1.1Q70.3,-3.2 68.1,-5.2Q65,-7.9 65.8,-9.4Q66.8,-10.1 70.7,-8.7Q73.2,-7.9 75.15,-7.55Q77.1,-7.2 77.4,-7.6Q80.6,-11.1 80.6,-28.5Q80.6,-34.1 80.3,-41.1Q79.3,-78.2 71.7,-72.6L70,-72.6Q64.1,-72.9 52.25,-71.45Q40.4,-70 21.9,-67Q22,-66.6 21.95,-66Q21.9,-65.4 21.9,-64.3Q21.9,-57.1 20.9,-39.5Q20.4,-30.1 20.2,-23.15Q20,-16.2 20,-12.1Q19.4,1.8 16.1,2.7Q10.4,1 10.4,-9.8L10.4,-10.5Q12.2,-17.2 13.3,-26.55Q14.4,-35.9 15,-48Q15.1,-50.4 15.15,-52.35Q15.2,-54.3 15.2,-56Q15.2,-65.3 13.7,-69.3Q12.7,-71.7 13.1,-72.9Q13.5,-74.1 15.3,-74L16.2,-74Q17.5,-73.8 18.9,-73.5Q20.3,-73.2 21.8,-72.6Q51,-74.7 74.5,-80.2L74.3,-80.2ZM64.8,-64.9Q73.3,-61.2 71.4,-58.3Q71.2,-57.7 70.25,-55.35Q69.3,-53 67.9,-48.6Q67.2,-46.2 66.55,-44.35Q65.9,-42.5 65.3,-41.2L66.2,-40.4Q66.7,-39.9 67.5,-39.1Q69,-37.9 70.35,-36.1Q71.7,-34.3 73.3,-32.5Q75.5,-28.9 75.5,-25.6Q75.5,-24.7 75.25,-23.8Q75,-22.9 74.8,-22.1Q72.2,-17.6 68.5,-23.5Q68.3,-24.1 67.9,-24.85Q67.5,-25.6 67.1,-26.6L67.2,-26.5Q65.8,-29.2 64.75,-31Q63.7,-32.8 62.3,-35.1Q55.3,-21 48.9,-17.2Q45.6,-15.2 44.4,-15.9Q43.9,-16.4 44.25,-17.45Q44.6,-18.5 45.7,-19.9Q49.1,-24.3 52.3,-29.3Q55.5,-34.3 57.7,-39.8Q52.6,-46.8 49.9,-49.7Q48.2,-52 48.8,-52.7Q49.2,-53.5 50.1,-53.4Q51,-53.3 52.2,-52Q53.8,-51.1 56,-48.95Q58.2,-46.8 60.1,-45.2Q61.3,-48.8 61.8,-51.7Q62.3,-54.6 62.3,-56.7Q62.3,-59.2 61.8,-61.2Q61.1,-65.4 64.7,-65L64.8,-64.9ZM42.9,-62.1Q49.3,-58.7 48.3,-56.6Q48.1,-56 47.7,-55.1Q47.3,-54.2 46.6,-52.1Q46.4,-52 46,-51.1Q44.1,-46.7 43.15,-44.1Q42.2,-41.5 41.6,-40.4Q42.7,-39.2 44.15,-37.15Q45.6,-35.1 47.3,-32.5Q48.2,-30.9 48.2,-28.8Q48.2,-27.8 47.8,-26.65Q47.4,-25.5 46.7,-24.1Q43.6,-21.8 41.5,-27.2Q39.8,-31.9 38.1,-33.5Q35.4,-27.9 32.7,-23.7Q30,-19.5 27.5,-17.7Q23.1,-14 21.6,-14.6Q20.8,-16.1 24.8,-20.3L24.7,-20.3Q28.4,-25 34.5,-39Q33.4,-41 31.95,-43.3Q30.5,-45.6 28.7,-48.1Q27.6,-49.8 26.85,-50.9Q26.1,-52 25.9,-52.7L26,-52.7Q24.9,-54.9 25.8,-55.5Q26.6,-56.2 28.4,-54.7L29.5,-53.7L30.3,-52.3L30.3,-52.4Q32.2,-50.5 33.7,-48.85Q35.2,-47.2 37.1,-44.9Q40.6,-53.3 39.6,-58.9L39.6,-58.7Q38.9,-60.6 39.8,-61.7Q41.2,-62.9 42.8,-62.2L42.9,-62.1Z"></path><path transform="translate(300 100)" d="M55.5,-53.5Q64.9,-52.4 66.9,-44.8Q62,-42.9 53.3,-34.6Q54.2,-33.7 54.8,-32.65Q55.4,-31.6 55.7,-30.6Q57.7,-30.8 60.7,-31.25Q63.7,-31.7 67.9,-32.6Q73.8,-33.6 77.2,-33.9Q80.6,-34.3 81.7,-34.2Q94.8,-31.5 91.7,-26.3Q90.2,-24.9 86.9,-24.9L85.2,-24.9Q84.3,-24.9 83.5,-25.1Q80.1,-25.6 76.4,-25.85Q72.7,-26.1 68.8,-26.1Q65.8,-26.1 63.15,-26Q60.5,-25.9 57.2,-25.6Q57.6,-23.7 57.95,-22.3Q58.3,-20.9 58.5,-19.5Q58.7,-18.1 58.85,-16.6Q59,-15.1 59,-13.1Q59,-11.2 58.85,-9.35Q58.7,-7.5 58.5,-5.5Q57,7.9 50.6,10.7L50.7,10.7Q48.8,11.8 45.4,7.8Q42.4,4.1 40.3,2.7L40.4,2.7Q36.7,0.6 36,-0.6Q36,-2.6 40,-1.4L41.2,-1.4Q42.4,-1.2 43.5,-1.15Q44.6,-1.1 45.4,-1.1Q46.2,-1.1 46.85,-1.15Q47.5,-1.2 48.1,-1.4Q50.5,-2.1 51.1,-10.6Q51.3,-12.3 51.35,-14.25Q51.4,-16.2 51.4,-17.8Q51.4,-19.3 51.35,-20.15Q51.3,-21 51.25,-21.7Q51.2,-22.4 51.05,-23.1Q50.9,-23.8 50.7,-25Q41.2,-23.6 33.05,-22.05Q24.9,-20.5 18.3,-18.8Q17.4,-18.6 16.75,-18.5Q16.1,-18.4 15.7,-18.4Q13.2,-18.4 9.4,-21.3L9.4,-21.2Q5.2,-24.2 8.5,-25Q15.5,-25.4 25.6,-26.55Q35.7,-27.7 49.4,-29.5Q48.1,-33.4 45.1,-34.8Q42.2,-36.9 44.9,-38.2Q47,-38.2 50,-36.7Q56,-46.6 55,-47.8Q53.9,-47.7 49.1,-45.95Q44.3,-44.2 36.2,-40.7Q28.8,-43.2 30,-47.3Q44.1,-48.2 55.1,-53.3L55.5,-53.5ZM72.9,-69.5Q76.2,-70.2 83.5,-64.9Q89.5,-59.3 86.3,-57.8L86.4,-57.8Q85.9,-57.5 85.1,-57.15Q84.3,-56.8 83.1,-56.4Q80.5,-56 78.4,-55.45Q76.3,-54.9 74.7,-54Q70.6,-52.3 69.9,-52.9Q68.6,-53.9 71.1,-57.1L71.1,-57Q73.4,-61.7 72.4,-62.9Q69.7,-63.2 58.35,-61.45Q47,-59.7 27.6,-56Q26.6,-51.3 25.05,-48.55Q23.5,-45.8 21.4,-44.6Q18.2,-42.7 16.3,-43.8Q15.2,-44.8 15.5,-48.8Q15.6,-49.6 16.8,-51.5L16.8,-51.4Q21.6,-60.1 21.6,-62.9Q21.6,-67.1 23.9,-66.4Q26,-65 27.8,-61.1Q47.4,-64.2 58.55,-66.2Q69.7,-68.2 72.9,-69.5ZM43.7,-81.1Q51.4,-81.9 55.8,-77.2Q56,-76 56.15,-75Q56.3,-74 56.3,-73Q56.3,-67.4 51.1,-68.9Q38.5,-78.9 43.6,-81.1L43.7,-81.1Z"></path><path transform="translate(400 100)" d="M60.8,-81.1Q69,-79.6 70.1,-75.3Q69.3,-73.2 68.9,-66.95Q68.5,-60.7 68.5,-48.7L76.1,-50.3L78.2,-50.7Q79.8,-50.9 81,-51.15Q82.2,-51.4 83.3,-51.6L85.5,-52Q95.4,-49.9 93.9,-44.9Q92.8,-44.2 87.1,-43.8Q82.3,-43.8 77.65,-43.7Q73,-43.6 68.5,-43.1L68.5,-2.5Q68,8.5 65.3,11.4Q61.6,11.4 61.6,-5.5L61.6,-42.1Q57.6,-41.4 54.35,-40.5Q51.1,-39.6 48.5,-38.6Q47.6,-38.2 46.7,-38.2Q35,-40.5 40.3,-43.4Q44.2,-44 49.45,-44.95Q54.7,-45.9 61.6,-47.3Q61.4,-61.1 60.6,-68.3Q59.8,-75.5 58.1,-77.4L58.2,-77.4Q56.3,-79.6 56.8,-80.4Q57.4,-80.9 58.4,-81.15Q59.4,-81.4 60.8,-81.1ZM25.9,-53.5Q33.5,-54.7 35.4,-48.3Q33.1,-46.8 31.95,-45Q30.8,-43.2 30.6,-41.3Q30.2,-40.1 29.85,-34.8Q29.5,-29.5 29.3,-20.5Q31.5,-21.9 34.05,-23.15Q36.6,-24.4 39.7,-25.8L39.6,-25.8Q44.8,-28.6 45.9,-27.6Q46.4,-27 45.2,-25.75Q44,-24.5 41.5,-22.5Q26.3,-10.8 23.3,-4.3L23.4,-4.3Q22.7,-1.7 19.6,-6.4Q17,-12.6 18,-14Q22,-15.5 22.9,-21.8Q23.8,-25.4 23.8,-36.4Q23.8,-38.4 23.8,-40.05Q23.8,-41.7 23.7,-44Q22.2,-43.5 19.6,-42.15Q17,-40.8 13.5,-38.6Q6,-38.2 4.6,-45Q19.3,-45 25.6,-53.4L25.9,-53.5ZM24.3,-77.2Q31.9,-76.8 35.4,-73.8Q38.5,-69.6 37.7,-64.1Q36.5,-60 31.8,-63.9Q16.1,-77.8 24.3,-77.2Z"></path><path transform="translate(500 100)" d="M31.5,-68Q31.4,-67 31.35,-66Q31.3,-65 31.3,-63.9Q31.3,-60.7 31.7,-56.5Q32.1,-52.3 33,-47.3L36.2,-49L36.1,-49Q41.6,-52.2 43.2,-52.4Q45,-52.7 46.8,-52.7Q49.5,-52.7 50.45,-51.9Q51.4,-51.1 50.9,-49.3Q49,-46.2 34.2,-40.9Q34.9,-37.7 35.95,-34.15Q37,-30.6 38.4,-26.8Q44.8,-34.1 44.8,-38.8Q45,-39.9 45.3,-40.55Q45.6,-41.2 46.3,-41.3Q47.7,-41.8 49.5,-39.8Q53.7,-34.2 52,-32L49.4,-29.4L41.9,-21.2L41.4,-20.8Q44.3,-15.5 47.05,-12.25Q49.8,-9 52.4,-7.3Q54.1,-7.4 56,-11Q57,-13 57.85,-13.8Q58.7,-14.6 59.4,-14.1Q60.6,-13.5 59.8,-9.5Q59.5,-8.1 59.4,-6.45Q59.3,-4.8 59.3,-3.3L59.3,-1.8Q59.3,-1 59.4,-0.2Q59.9,4.9 56,4Q50.8,2.2 46,-2.75Q41.2,-7.7 36.8,-16.4Q31.9,-11.6 26.9,-8.35Q21.9,-5.1 16.3,-2.7Q10.3,-0.3 9.3,-1.7Q8.9,-3.2 14.1,-6.4Q19.1,-9.3 24.25,-13.25Q29.4,-17.2 34.2,-22Q33.2,-24.7 31.9,-28.5Q30.6,-32.3 29.4,-36.7Q29.2,-37.4 29.15,-37.85Q29.1,-38.3 29,-38.5L28.9,-38.8Q25,-36.9 22.2,-35.85Q19.4,-34.8 17.4,-34.2Q7.4,-34.7 10.8,-38.3Q11.7,-38.8 12.45,-39Q13.2,-39.2 14.1,-39.6Q15.3,-40 16.5,-40.45Q17.7,-40.9 19.4,-41.6Q20.7,-42.1 21.85,-42.5Q23,-42.9 23.8,-43.3Q25.5,-44 26.25,-44.3Q27,-44.6 27.2,-44.8Q27,-46.2 26.6,-48Q26.2,-49.8 25.8,-52Q24.3,-59.9 23.05,-64.45Q21.8,-69 21,-69.5Q18.4,-71.5 19,-73.2Q19.4,-73.8 20.25,-74.05Q21.1,-74.3 22.6,-74.1Q31.1,-71.9 31.5,-68ZM79.4,-79.6Q89.6,-75.7 88.7,-72Q86.8,-68.5 86.8,-59.8L86.8,-56.2Q86.8,-54.5 87,-52.6Q87,-50.3 87.2,-45.05Q87.4,-39.8 87.8,-31.5Q88,-20.1 88.25,-13.05Q88.5,-6 88.6,-3.3Q88.2,1.3 86.6,4.55Q85,7.8 82.3,9.7Q80.5,10.6 78.1,5.9L78.1,6Q76.5,3.8 75.05,2Q73.6,0.2 72.1,-1.2Q67.8,-6.2 72.8,-4.9L73.5,-4.9Q73.7,-4.9 74.1,-4.85Q74.5,-4.8 75.3,-4.4Q79.6,-2.4 80.3,-3.1Q80.5,-3.2 80.8,-8.8L80.8,-40.4Q80.8,-70.9 76.8,-75.3Q75.1,-78.4 75.6,-79.3Q76.1,-80.7 79.3,-79.6L79.4,-79.6ZM62.1,-60Q68.6,-57.3 68.6,-54.8Q67.7,-51.1 67.7,-48L67.7,-30.7Q67.1,-22.6 65,-21.5Q63,-20 61,-26.8Q60.6,-27.6 61,-32.9Q61.3,-35.4 61.4,-37.45Q61.5,-39.5 61.5,-41.1Q61.5,-54.5 59.6,-56.6Q58,-58.5 58.7,-59.8Q59.4,-61.3 62.1,-60ZM39.9,-67.4Q45.7,-67.4 48.2,-65.7Q51.3,-63.3 50.9,-58.6Q49.1,-54.2 45.6,-57.2L45.7,-57.2Q32.7,-68 39.9,-67.4Z"></path><path transform="translate(0 200)" d="M4.5,-69.6Q5.7,-69.6 6.85,-69.55Q8,-69.5 9.1,-69.5Q10.7,-69.4 12.5,-69.4Q14.3,-69.4 16.8,-69.4L43.5,-69.4Q45.5,-69.4 47.8,-69.45Q50.1,-69.5 52.1,-69.6Q53.5,-69.6 54.25,-69.1Q55,-68.6 54.8,-67.7Q54.6,-66.6 54.5,-66.25Q54.4,-65.9 54.2,-65.4L53.9,-65L54,-65Q53.5,-64.1 52.7,-63.65Q51.9,-63.2 51,-63.2L43.5,-63.3L32.8,-63.3L32.8,-23Q33,-21.6 33,-18.85Q33,-16.1 33,-13.1Q33,-10 33.05,-7.1Q33.1,-4.2 33.2,-2.4Q33.2,-1.4 32.55,-0.9Q31.9,-0.4 31.2,-0.2Q30.3,0.1 28.95,0.3Q27.6,0.5 26.9,0.4Q26.2,0.3 25.45,-0.15Q24.7,-0.6 24.7,-1.8L25,-23L25,-63.3L16.8,-63.3Q13.6,-63.3 10.35,-63.3Q7.1,-63.3 3.8,-63.2Q2.4,-63.2 1.45,-63.45Q0.5,-63.7 0.9,-65.3L0.9,-65.2Q1.1,-66.1 1.15,-66.25Q1.2,-66.4 1.4,-66.9L1.7,-67.8Q2.4,-69.6 4.5,-69.6Z"></path><path transform="translate(56 200)" d="M7.2,-54.2Q7.2,-55.6 7.2,-57.1Q7.2,-58.6 7.1,-60.4Q7,-61.8 6.95,-63.8Q6.9,-65.8 6.9,-67.8Q6.9,-68.6 7.3,-69.05Q7.7,-69.5 9,-69.9Q9.2,-69.9 9.4,-69.95Q9.6,-70 9.8,-70Q10.4,-70.1 11.25,-70.2Q12.1,-70.3 12.7,-70.2Q14.3,-70.3 14.65,-69.55Q15,-68.8 15,-68L14.7,-54L14.7,-41.7Q17.9,-44.9 22.1,-47.15Q26.3,-49.4 32,-49.4Q36.1,-49.4 39.25,-47.9Q42.4,-46.4 44.55,-43.85Q46.7,-41.3 47.8,-37.95Q48.9,-34.6 48.9,-30.8L48.9,-22.9Q49,-21.4 49,-18.6Q49,-15.8 49,-13.1Q49,-10.1 49,-7.1Q49,-4.1 49.2,-2.4Q49.2,-1.4 48.55,-0.9Q47.9,-0.4 47.1,-0.2Q46.3,0.1 45.15,0.3Q44,0.5 43.2,0.4Q42.6,0.3 41.85,-0.15Q41.1,-0.6 41.1,-1.8L41.4,-22.9L41.4,-29.9Q41.4,-32.8 40.9,-35.35Q40.4,-37.9 39.2,-39.8Q38,-41.7 36,-42.8Q34,-43.9 31,-43.9Q26.5,-43.9 22.35,-40.65Q18.2,-37.4 14.7,-32.5L14.7,-22.9Q14.8,-21.4 14.8,-18.6Q14.8,-15.8 14.8,-13.1Q14.8,-10.1 14.8,-7.1Q14.8,-4.1 15,-2.4Q15,-1.4 14.35,-0.9Q13.7,-0.4 12.9,-0.2Q12.1,0.1 10.95,0.3Q9.8,0.5 9.1,0.4Q8.4,0.3 7.65,-0.15Q6.9,-0.6 6.9,-1.8L7.2,-22.9L7.2,-54.2Z"></path><path transform="translate(112 200)" d="M11.8,-22.8Q12.3,-13.8 16.25,-9.2Q20.2,-4.6 29.2,-4.6Q32.1,-4.6 35.65,-5.85Q39.2,-7.1 42.6,-9.1Q43.4,-9.5 44.4,-9.6Q45.4,-9.7 45.7,-8.8Q45.9,-8.2 45.95,-7.1Q46,-6 46,-5.5Q45.8,-3.9 44.5,-3.2Q41.2,-1.2 37,-0.05Q32.8,1.1 29.2,1.1Q17.1,1.1 10.7,-5.6Q4.3,-12.3 4.3,-25.4Q4.3,-30.1 5.7,-34.45Q7.1,-38.8 9.95,-42.1Q12.8,-45.4 17.2,-47.4Q21.6,-49.4 27.6,-49.4Q33,-49.4 36.85,-47.5Q40.7,-45.6 43.15,-42.35Q45.6,-39.1 46.75,-34.75Q47.9,-30.4 47.9,-25.5Q47.9,-23.7 47.3,-23.25Q46.7,-22.8 45.3,-22.8L11.8,-22.8ZM27.6,-43.9Q23.6,-43.9 20.7,-42.4Q17.8,-40.9 15.95,-38.65Q14.1,-36.4 13.15,-33.75Q12.2,-31.1 12.1,-28.7L40.6,-28.7Q40.6,-31.7 39.85,-34.45Q39.1,-37.2 37.55,-39.3Q36,-41.4 33.5,-42.65Q31,-43.9 27.6,-43.9Z"></path><path transform="translate(163 200)" d=""></path><path transform="translate(193 200)" d="M8.2,-49.5Q8.2,-50.7 8.15,-52.85Q8.1,-55 8,-57.4Q7.9,-60 7.85,-62.5Q7.8,-65 7.8,-66.5Q7.8,-68.8 8.7,-69.6Q9.6,-70.4 10.8,-70.4L17.8,-70.4L22.9,-70.6Q25.2,-70.7 27.55,-70.8Q29.9,-70.9 32.3,-70.9Q33.6,-70.9 34.95,-70.85Q36.3,-70.8 37.7,-70.7Q41.1,-70.4 44,-69.15Q46.9,-67.9 49.05,-65.75Q51.2,-63.6 52.4,-60.6Q53.6,-57.6 53.6,-53.8Q53.6,-49 51.45,-44.4Q49.3,-39.8 44.5,-37Q42.1,-35.6 39.4,-34.7Q36.7,-33.8 33.85,-33.25Q31,-32.7 28.2,-32.45Q25.4,-32.2 22.7,-32.1L16.3,-32.1L16.3,-23Q16.5,-21.6 16.5,-18.85Q16.5,-16.1 16.5,-13.1Q16.5,-10 16.55,-7.1Q16.6,-4.2 16.7,-2.4Q16.7,-1.4 16.05,-0.9Q15.4,-0.4 14.6,-0.2Q13.8,0.1 12.25,0.3Q10.7,0.5 10,0.4Q9.4,0.3 8.65,-0.15Q7.9,-0.6 7.9,-1.8L8.2,-23L8.2,-49.5ZM27.2,-65L16.3,-64.6L16.3,-38L23.2,-38Q27,-38 31.3,-38.7Q35.6,-39.4 39,-41.4Q42.2,-43.3 43.6,-46.2Q45,-49.1 45,-53.2Q45,-56.4 44.05,-58.95Q43.1,-61.5 40.7,-63.2Q39.9,-63.7 38.75,-64.05Q37.6,-64.4 36.25,-64.6Q34.9,-64.8 33.55,-64.9Q32.2,-65 31.1,-65L27.2,-65Z"></path><path transform="translate(252 200)" d="M7.1,-33.6Q7.1,-35 7.1,-36.25Q7.1,-37.5 7,-38.9Q6.9,-40.3 6.85,-41.95Q6.8,-43.6 6.8,-45.9Q6.8,-46.7 7.3,-47.3Q7.8,-47.9 8.9,-48.1Q9.6,-48.3 10.75,-48.45Q11.9,-48.6 12.7,-48.6Q14.2,-48.6 14.55,-47.85Q14.9,-47.1 14.9,-46.3L14.7,-41.2Q17.3,-44 20.4,-46.15Q23.5,-48.3 26.3,-49Q27.4,-49.2 28.35,-49.35Q29.3,-49.5 30.1,-49.4Q31.2,-49.3 31.75,-48.6Q32.3,-47.9 32.3,-47Q32.3,-44.8 31.8,-43.7Q31.5,-43 30.75,-42.4Q30,-41.8 29,-42.1Q27.7,-42.6 25.4,-42.25Q23.1,-41.9 21,-40.7Q20.2,-40.3 18.25,-38.55Q16.3,-36.8 14.6,-34.1L14.6,-16.9Q14.6,-14.9 14.65,-13.1Q14.7,-11.3 14.8,-9.5Q14.9,-8 14.9,-6.05Q14.9,-4.1 14.9,-2.6Q14.9,-1.4 14.3,-0.95Q13.7,-0.5 12.9,-0.2Q12.3,-0 11,0.2Q9.7,0.4 9,0.4Q8.2,0.4 7.55,-0.1Q6.9,-0.6 6.8,-1.8Q6.8,-2.5 6.85,-4.25Q6.9,-6 6.95,-8.2Q7,-10.4 7.05,-12.7Q7.1,-15 7.1,-16.9L7.1,-33.6Z"></path><path transform="translate(286 200)" d="M4.3,-24.3Q4.3,-29.8 5.65,-34.4Q7,-39 9.75,-42.35Q12.5,-45.7 16.7,-47.55Q20.9,-49.4 26.6,-49.4Q33.5,-49.4 37.9,-47.3Q42.3,-45.2 44.75,-41.75Q47.2,-38.3 48.1,-33.75Q49,-29.2 49,-24.3Q49,-19 47.5,-14.4Q46,-9.8 43.15,-6.35Q40.3,-2.9 36.15,-0.9Q32,1.1 26.6,1.1Q20.7,1.1 16.45,-0.75Q12.2,-2.6 9.5,-5.95Q6.8,-9.3 5.55,-13.95Q4.3,-18.6 4.3,-24.3ZM12.2,-24.3Q12.2,-20 12.85,-16.4Q13.5,-12.8 15.1,-10.15Q16.7,-7.5 19.5,-6.05Q22.3,-4.6 26.6,-4.6Q30.9,-4.6 33.7,-6.25Q36.5,-7.9 38.15,-10.65Q39.8,-13.4 40.45,-16.95Q41.1,-20.5 41.1,-24.3Q41.1,-28 40.55,-31.5Q40,-35 38.4,-37.75Q36.8,-40.5 34,-42.2Q31.2,-43.9 26.6,-43.9Q21.9,-43.9 19.05,-42.15Q16.2,-40.4 14.7,-37.55Q13.2,-34.7 12.7,-31.2Q12.2,-27.7 12.2,-24.3Z"></path><path transform="translate(340 200)" d="M20.1,-13.2Q20.1,-6.9 18.5,-1.1Q16.9,4.7 14,9.2Q11.4,13.1 8.75,15.3Q6.1,17.5 4.7,18.2Q2.5,19.3 1.55,18.95Q0.6,18.6 0.1,18Q0,17.9 -0.15,17.8Q-0.3,17.7 -0.3,17.6Q-0.5,17.4 -1.25,16.45Q-2,15.5 -2.7,14.4Q-3.2,13.2 -2.4,12.55Q-1.6,11.9 -0.8,11.5Q-0.6,11.3 -0.4,11.3Q3.5,9.5 6,6.3Q8.5,3.1 9.95,-0.5Q11.4,-4.1 12,-7.5Q12.6,-10.9 12.6,-13.1L12.6,-32.5Q12.6,-33.9 12.6,-35.35Q12.6,-36.8 12.5,-38.5Q12.4,-39.9 12.35,-41.85Q12.3,-43.8 12.3,-45.8Q12.3,-46.6 12.7,-47.1Q13.1,-47.6 14.4,-48Q14.7,-48 15.5,-48.2Q16.2,-48.4 16.9,-48.5Q17.6,-48.6 18.1,-48.5Q19.7,-48.6 20.05,-47.8Q20.4,-47 20.4,-46.2L20.1,-32.3L20.1,-13.2ZM11.2,-61.9Q11.2,-63.8 12.65,-65.45Q14.1,-67.1 16.4,-67.1Q18.9,-67.1 20.3,-65.45Q21.7,-63.8 21.7,-61.9Q21.7,-60 20.3,-58.6Q18.9,-57.2 16.4,-57.2Q14,-57.2 12.6,-58.6Q11.2,-60 11.2,-61.9Z"></path><path transform="translate(369 200)" d="M11.8,-22.8Q12.3,-13.8 16.25,-9.2Q20.2,-4.6 29.2,-4.6Q32.1,-4.6 35.65,-5.85Q39.2,-7.1 42.6,-9.1Q43.4,-9.5 44.4,-9.6Q45.4,-9.7 45.7,-8.8Q45.9,-8.2 45.95,-7.1Q46,-6 46,-5.5Q45.8,-3.9 44.5,-3.2Q41.2,-1.2 37,-0.05Q32.8,1.1 29.2,1.1Q17.1,1.1 10.7,-5.6Q4.3,-12.3 4.3,-25.4Q4.3,-30.1 5.7,-34.45Q7.1,-38.8 9.95,-42.1Q12.8,-45.4 17.2,-47.4Q21.6,-49.4 27.6,-49.4Q33,-49.4 36.85,-47.5Q40.7,-45.6 43.15,-42.35Q45.6,-39.1 46.75,-34.75Q47.9,-30.4 47.9,-25.5Q47.9,-23.7 47.3,-23.25Q46.7,-22.8 45.3,-22.8L11.8,-22.8ZM27.6,-43.9Q23.6,-43.9 20.7,-42.4Q17.8,-40.9 15.95,-38.65Q14.1,-36.4 13.15,-33.75Q12.2,-31.1 12.1,-28.7L40.6,-28.7Q40.6,-31.7 39.85,-34.45Q39.1,-37.2 37.55,-39.3Q36,-41.4 33.5,-42.65Q31,-43.9 27.6,-43.9Z"></path><path transform="translate(420 200)" d="M4.3,-23.9Q4.3,-29.1 5.75,-33.7Q7.2,-38.3 10.15,-41.8Q13.1,-45.3 17.6,-47.35Q22.1,-49.4 28.2,-49.4Q30.1,-49.4 32.45,-49.2Q34.8,-49 37.05,-48.55Q39.3,-48.1 41.2,-47.45Q43.1,-46.8 44.2,-46Q45.3,-44.9 44.8,-43.5Q44.7,-43 44.45,-42.05Q44.2,-41.1 44,-40.6Q43.5,-39.8 42.65,-39.65Q41.8,-39.5 41.3,-39.9Q36.4,-43.9 28.2,-43.9Q23.7,-43.9 20.55,-42.35Q17.4,-40.8 15.45,-38.1Q13.5,-35.4 12.65,-31.75Q11.8,-28.1 11.8,-24Q11.8,-21 12.65,-17.55Q13.5,-14.1 15.4,-11.25Q17.3,-8.4 20.4,-6.5Q23.5,-4.6 28.1,-4.6Q33.2,-4.6 36.55,-6.2Q39.9,-7.8 42.2,-9.8Q43,-10.5 43.8,-10.3Q44.6,-10.1 45.1,-9Q45.3,-8.5 45.35,-7.6Q45.4,-6.7 45.4,-5.7Q45.4,-4.9 44.7,-4.15Q44,-3.4 42.5,-2.3Q40.7,-1.2 38.6,-0.55Q36.5,0.1 34.55,0.5Q32.6,0.9 30.8,1Q29,1.1 27.8,1.1Q23.4,1.1 19.2,-0.45Q15,-2 11.7,-5.1Q8.4,-8.2 6.35,-12.9Q4.3,-17.6 4.3,-23.9Z"></path><path transform="translate(469 200)" d="M4,-43Q3.1,-43 2.35,-43.25Q1.6,-43.5 2,-44.9Q2.2,-45.4 2.4,-46.05Q2.6,-46.7 2.8,-47.1Q3.3,-47.9 3.65,-48.3Q4,-48.7 4.9,-48.7Q5.7,-48.7 6.6,-48.65Q7.5,-48.6 8.3,-48.6L9.8,-48.6Q9.8,-50.2 9.75,-51.95Q9.7,-53.7 9.65,-55.35Q9.6,-57 9.55,-58.25Q9.5,-59.5 9.5,-60Q9.6,-60.8 10.25,-61.35Q10.9,-61.9 11.7,-62.1Q12.2,-62.2 13.3,-62.2Q14.4,-62.2 15.1,-62.1Q15.9,-61.9 16.4,-61.35Q16.9,-60.8 16.9,-60L16.5,-48.6L20.9,-48.6L26.7,-48.7Q28.5,-48.7 28.5,-47.3Q28.5,-47 28.4,-46.6Q28.3,-46.2 28.2,-45.8Q28,-45.4 27.9,-44.9Q27.7,-44.2 27.05,-43.6Q26.4,-43 25.6,-43L20.3,-43.1L16.4,-43.1L16.4,-24.5Q16.4,-20.4 16.5,-17.55Q16.6,-14.7 16.85,-12.75Q17.1,-10.8 17.55,-9.65Q18,-8.5 18.7,-7.8Q19.7,-6.7 21.5,-6.25Q23.3,-5.8 26.9,-5.8Q27.4,-5.8 28.2,-5.5Q29,-5.2 28.8,-4Q28.6,-2.9 28,-1.7Q27.4,-0.5 27.2,-0.3L27.3,-0.3Q26.7,0.6 26.3,0.9Q25.9,1.2 25.1,1.2Q24.1,1.2 22.65,1.1Q21.2,1 19.45,0.55Q17.7,0.1 15.9,-0.95Q14.1,-2 12.5,-4Q11.5,-5.3 10.95,-7.3Q10.4,-9.3 10.15,-11.6Q9.9,-13.9 9.85,-16.15Q9.8,-18.4 9.8,-20.2L9.8,-43.1L8.9,-43.1L4.2,-43L4,-43Z"></path><path transform="translate(500 200)" d=""></path><path transform="translate(530 200)" d="M8.3,-49Q8.3,-50.4 8.25,-52.95Q8.2,-55.5 8.1,-58.2Q7.9,-60.7 7.9,-63.4Q7.9,-66.1 7.9,-67.3Q7.9,-68.5 8.4,-69.4Q8.9,-70.3 10.3,-70.3Q10.5,-70.3 11.2,-70.3Q11.9,-70.3 12.6,-70.2Q13.1,-70.2 13.7,-70.15Q14.3,-70.1 14.5,-70.1L40.8,-70.1Q42.8,-70.1 45.05,-70.15Q47.3,-70.2 49.3,-70.3Q50.5,-70.2 51.4,-69.7Q52.3,-69.2 52,-68.4Q51.6,-67 51.3,-66.4Q51.1,-66 51.1,-65.8Q50.3,-63.9 48.2,-63.9L40.8,-64L15.9,-63.7Q15.9,-58.9 15.95,-55.15Q16,-51.4 16,-48.2L16,-40.3L33.7,-40.3Q35.4,-40.3 36.95,-40.35Q38.5,-40.4 40,-40.4L45,-40.4Q46.8,-40.4 47.25,-39.7Q47.7,-39 47.4,-38.3Q47.1,-37.1 46.8,-36.6Q46.6,-36.2 46.5,-35.9L46.5,-36Q46,-35.2 45.5,-34.55Q45,-33.9 44,-34.1L16,-34.1L16,-19.3Q16,-17.4 16.05,-13.55Q16.1,-9.7 16.1,-2.1Q16.1,-0.5 14,-0Q13.2,0.2 11.75,0.35Q10.3,0.5 9.8,0.4Q8.8,0.3 8.3,-0.35Q7.8,-1 7.8,-1.8Q7.8,-4.5 7.9,-7.3Q8,-10.1 8.1,-13Q8.2,-15.3 8.25,-17.5Q8.3,-19.7 8.3,-22L8.3,-49Z"></path><path transform="translate(584 200)" d="M4.3,-24.3Q4.3,-29.8 5.65,-34.4Q7,-39 9.75,-42.35Q12.5,-45.7 16.7,-47.55Q20.9,-49.4 26.6,-49.4Q33.5,-49.4 37.9,-47.3Q42.3,-45.2 44.75,-41.75Q47.2,-38.3 48.1,-33.75Q49,-29.2 49,-24.3Q49,-19 47.5,-14.4Q46,-9.8 43.15,-6.35Q40.3,-2.9 36.15,-0.9Q32,1.1 26.6,1.1Q20.7,1.1 16.45,-0.75Q12.2,-2.6 9.5,-5.95Q6.8,-9.3 5.55,-13.95Q4.3,-18.6 4.3,-24.3ZM12.2,-24.3Q12.2,-20 12.85,-16.4Q13.5,-12.8 15.1,-10.15Q16.7,-7.5 19.5,-6.05Q22.3,-4.6 26.6,-4.6Q30.9,-4.6 33.7,-6.25Q36.5,-7.9 38.15,-10.65Q39.8,-13.4 40.45,-16.95Q41.1,-20.5 41.1,-24.3Q41.1,-28 40.55,-31.5Q40,-35 38.4,-37.75Q36.8,-40.5 34,-42.2Q31.2,-43.9 26.6,-43.9Q21.9,-43.9 19.05,-42.15Q16.2,-40.4 14.7,-37.55Q13.2,-34.7 12.7,-31.2Q12.2,-27.7 12.2,-24.3Z"></path><path transform="translate(638 200)" d="M7.1,-33.6Q7.1,-35 7.1,-36.25Q7.1,-37.5 7,-38.9Q6.9,-40.3 6.85,-41.95Q6.8,-43.6 6.8,-45.9Q6.8,-46.7 7.3,-47.3Q7.8,-47.9 8.9,-48.1Q9.6,-48.3 10.75,-48.45Q11.9,-48.6 12.7,-48.6Q14.2,-48.6 14.55,-47.85Q14.9,-47.1 14.9,-46.3L14.7,-41.2Q17.3,-44 20.4,-46.15Q23.5,-48.3 26.3,-49Q27.4,-49.2 28.35,-49.35Q29.3,-49.5 30.1,-49.4Q31.2,-49.3 31.75,-48.6Q32.3,-47.9 32.3,-47Q32.3,-44.8 31.8,-43.7Q31.5,-43 30.75,-42.4Q30,-41.8 29,-42.1Q27.7,-42.6 25.4,-42.25Q23.1,-41.9 21,-40.7Q20.2,-40.3 18.25,-38.55Q16.3,-36.8 14.6,-34.1L14.6,-16.9Q14.6,-14.9 14.65,-13.1Q14.7,-11.3 14.8,-9.5Q14.9,-8 14.9,-6.05Q14.9,-4.1 14.9,-2.6Q14.9,-1.4 14.3,-0.95Q13.7,-0.5 12.9,-0.2Q12.3,-0 11,0.2Q9.7,0.4 9,0.4Q8.2,0.4 7.55,-0.1Q6.9,-0.6 6.8,-1.8Q6.8,-2.5 6.85,-4.25Q6.9,-6 6.95,-8.2Q7,-10.4 7.05,-12.7Q7.1,-15 7.1,-16.9L7.1,-33.6Z"></path><path transform="translate(672 200)" d=""></path><path transform="translate(702 200)" d="M24.2,-0.1Q22.9,-0.4 22.2,-1.45Q21.5,-2.5 21.3,-3.3L17.2,-16.9Q16.3,-19.5 15.15,-23.35Q14,-27.2 12,-33.6L1.5,-67.7Q1.2,-68.6 1.7,-69.35Q2.2,-70.1 3.2,-70.1L8.1,-70.1Q9,-70.1 9.75,-69.45Q10.5,-68.8 10.7,-67.7Q12.1,-62.6 13.2,-58.45Q14.3,-54.3 15.4,-50.4Q16.5,-46.5 17.55,-42.65Q18.6,-38.8 19.9,-34.35Q21.2,-29.9 22.75,-24.6Q24.3,-19.3 26.4,-12.6Q27.6,-16.3 29.15,-21.15Q30.7,-26 32.3,-31.15Q33.9,-36.3 35.4,-41.35Q36.9,-46.4 38.15,-50.5Q39.4,-54.6 40.2,-57.35Q41,-60.1 41.2,-60.7L43.3,-68Q43.5,-68.8 44.2,-69.45Q44.9,-70.1 46,-70.1L49.7,-70.1Q50.8,-70.1 51.5,-69.55Q52.2,-69 52.4,-68.2L54.8,-60.8L70,-12.7Q70.4,-14.3 71.15,-17Q71.9,-19.7 73,-23.3Q74.5,-28.3 76.35,-34.55Q78.2,-40.8 80,-47Q81.8,-53.2 83.35,-58.7Q84.9,-64.2 85.8,-67.8Q86.3,-68.6 86.9,-69.3Q87.5,-70 88.7,-70L93.1,-70Q94,-70 94.55,-69.3Q95.1,-68.6 94.9,-67.9Q92,-59.4 89.95,-52.9Q87.9,-46.4 86.2,-40.6Q84.6,-35.4 82.95,-29.9Q81.3,-24.4 78.8,-17.3L74.4,-3.3Q74.2,-2.5 73.4,-1.4Q72.6,-0.3 71.2,-0.1Q70.7,-0 69.7,-0Q68.7,-0 68.2,-0.1Q67.1,-0.3 66.25,-1.35Q65.4,-2.4 65.2,-3.3L60.9,-16.7Q57.9,-26.1 54.7,-36.4Q51.5,-46.7 48,-59.1L30.7,-3.1Q30.4,-2.3 29.7,-1.3Q29,-0.3 28.2,-0.1Q27.4,-0 25.95,-0Q24.5,-0 24.2,-0.1Z"></path><path transform="translate(799 200)" d="M11.8,-22.8Q12.3,-13.8 16.25,-9.2Q20.2,-4.6 29.2,-4.6Q32.1,-4.6 35.65,-5.85Q39.2,-7.1 42.6,-9.1Q43.4,-9.5 44.4,-9.6Q45.4,-9.7 45.7,-8.8Q45.9,-8.2 45.95,-7.1Q46,-6 46,-5.5Q45.8,-3.9 44.5,-3.2Q41.2,-1.2 37,-0.05Q32.8,1.1 29.2,1.1Q17.1,1.1 10.7,-5.6Q4.3,-12.3 4.3,-25.4Q4.3,-30.1 5.7,-34.45Q7.1,-38.8 9.95,-42.1Q12.8,-45.4 17.2,-47.4Q21.6,-49.4 27.6,-49.4Q33,-49.4 36.85,-47.5Q40.7,-45.6 43.15,-42.35Q45.6,-39.1 46.75,-34.75Q47.9,-30.4 47.9,-25.5Q47.9,-23.7 47.3,-23.25Q46.7,-22.8 45.3,-22.8L11.8,-22.8ZM27.6,-43.9Q23.6,-43.9 20.7,-42.4Q17.8,-40.9 15.95,-38.65Q14.1,-36.4 13.15,-33.75Q12.2,-31.1 12.1,-28.7L40.6,-28.7Q40.6,-31.7 39.85,-34.45Q39.1,-37.2 37.55,-39.3Q36,-41.4 33.5,-42.65Q31,-43.9 27.6,-43.9Z"></path><path transform="translate(850 200)" d="M7.1,-54.8Q7.2,-57.4 7.1,-59.4Q7,-61.4 6.9,-63.2Q6.8,-64.3 6.8,-65.75Q6.8,-67.2 6.8,-68.3Q6.8,-69.1 7.15,-69.75Q7.5,-70.4 8.9,-70.6Q9.8,-70.8 10.65,-70.9Q11.5,-71 12.5,-71Q14.1,-71 14.5,-70.15Q14.9,-69.3 14.9,-68.5L14.6,-54.6L14.6,-40Q17.3,-44.3 21.7,-46.85Q26.1,-49.4 30.9,-49.4Q36.5,-49.4 40.55,-47.15Q44.6,-44.9 47.25,-41.45Q49.9,-38 51.15,-33.85Q52.4,-29.7 52.4,-25.8Q52.4,-18.7 50.6,-13.6Q48.8,-8.5 45.75,-5.25Q42.7,-2 38.55,-0.45Q34.4,1.1 29.7,1.1Q27.7,1.1 25.55,0.5Q23.4,-0.1 21.35,-1.1Q19.3,-2.1 17.55,-3.5Q15.8,-4.9 14.6,-6.5L14.6,-3Q14.6,-2 13.95,-1.45Q13.3,-0.9 12.5,-0.6Q11.6,-0.2 10.45,-0.05Q9.3,0.1 8.8,-0Q6.8,-0.2 6.8,-1.8L7,-12.3Q7,-14.5 7.05,-17.3Q7.1,-20.1 7.1,-22.65Q7.1,-25.2 7.1,-27.05Q7.1,-28.9 7.1,-29.3L7.1,-54.8ZM44.7,-25.8Q44.7,-28.9 43.9,-32.1Q43.1,-35.3 41.4,-37.95Q39.7,-40.6 36.95,-42.25Q34.2,-43.9 30.2,-43.9Q27.2,-43.9 24.35,-42.25Q21.5,-40.6 19.35,-37.9Q17.2,-35.2 15.9,-31.7Q14.6,-28.2 14.6,-24.5Q14.6,-19.4 15.75,-15.65Q16.9,-11.9 18.95,-9.45Q21,-7 23.75,-5.8Q26.5,-4.6 29.7,-4.6Q32.7,-4.6 35.4,-5.9Q38.1,-7.2 40.2,-9.85Q42.3,-12.5 43.5,-16.45Q44.7,-20.4 44.7,-25.8Z"></path></svg>