<svg  xmlns="http://www.w3.org/2000/svg" xmlns:xlink="http://www.w3.org/1999/xlink" width="859" height="300" viewBox="0 0 883 324"><path transform="translate(0 100)" d="M46.4844,-30.8594L29.6875,-29.2969Q29.2969,-22.6562 26.9531,-24.2188Q24.2188,-26.1719 23.8281,-33.2031Q22.6562,-46.4844 17.9688,-53.125Q16.7969,-54.6875 17.1875,-55.4688Q18.3594,-57.4219 27.3438,-54.2969L46.875,-56.25Q46.875,-54.6875 46.4844,-60.1562Q46.4844,-62.8906 46.4844,-66.0156Q46.0938,-72.6562 43.75,-77.3438Q42.5781,-79.2969 43.75,-80.0781Q50.3906,-81.6406 55.4688,-75.3906Q55.0781,-74.6094 54.6875,-73.8281Q52.7344,-69.1406 52.7344,-57.0312Q66.0156,-58.5938 73.0469,-60.5469Q74.6094,-61.3281 75.3906,-61.3281Q83.9844,-57.4219 87.1094,-53.9062Q87.1094,-53.125 85.1562,-51.1719Q79.6875,-46.0938 75.7812,-38.2812Q78.5156,-35.1562 77.3438,-33.2031Q76.5625,-32.4219 70.3125,-32.0312Q60.9375,-32.0312 51.9531,-31.6406Q51.9531,-7.8125 51.1719,2.34375Q49.6094,13.2812 47.2656,12.8906Q45.7031,10.1562 45.7031,1.17188Q45.3125,-7.42188 46.0938,-21.0938Q46.0938,-26.9531 46.4844,-30.8594ZM52.3438,-54.2969L51.9531,-34.7656Q67.5781,-36.3281 69.5312,-38.2812Q74.2188,-47.2656 72.6562,-54.6875Q70.7031,-55.4688 55.8594,-54.2969Q53.9062,-54.2969 52.3438,-54.2969ZM46.875,-53.5156L27.7344,-50.7812L29.2969,-32.4219L46.4844,-34.375L46.875,-53.5156Z"></path><path transform="translate(100 100)" d="M40.2344,-73.8281Q35.9375,-76.9531 40.2344,-76.9531Q47.6562,-76.1719 53.5156,-73.8281Q57.0312,-71.0938 56.25,-67.5781Q54.2969,-63.6719 50.7812,-65.625Q44.9219,-68.75 40.2344,-73.8281ZM70.3125,-62.1094Q76.9531,-62.1094 79.6875,-58.5938Q80.8594,-55.8594 74.2188,-55.4688Q73.0469,-55.0781 70.3125,-54.6875Q60.9375,-53.9062 51.1719,-51.9531Q57.4219,-50 57.4219,-47.2656Q57.0312,-46.4844 56.25,-45.3125Q54.6875,-43.3594 54.2969,-39.8438Q51.9531,-30.0781 49.2188,-24.2188Q66.4062,-8.98438 91.7969,-5.07812Q95.3125,-3.90625 95.7031,-3.125Q96.0938,-1.95312 93.3594,-1.95312Q70.3125,0.390625 66.0156,-1.5625Q53.5156,-12.5 46.4844,-20.3125Q32.4219,-5.85938 10.5469,-6.64062Q7.8125,-6.64062 7.8125,-7.42188Q7.8125,-8.20312 10.5469,-8.98438Q33.2031,-12.8906 42.5781,-24.6094Q34.375,-33.2031 28.9062,-38.2812Q26.9531,-39.4531 25.7812,-39.8438Q23.4375,-41.0156 24.2188,-41.7969Q25.7812,-43.75 32.0312,-42.1875Q32.8125,-41.7969 34.7656,-39.0625Q37.1094,-35.9375 44.9219,-28.5156Q49.6094,-41.0156 48.0469,-51.5625Q35.5469,-49.6094 30.0781,-48.0469Q25.3906,-47.2656 22.6562,-47.2656Q12.8906,-50.3906 18.3594,-51.1719Q34.375,-51.5625 62.1094,-59.7656Q68.3594,-61.7188 70.3125,-62.1094Z"></path><path transform="translate(200 100)" d="M23.4375,-73.8281Q28.5156,-70.3125 28.5156,-67.9688Q28.5156,-66.7969 27.3438,-66.0156Q26.1719,-65.2344 26.1719,-64.4531Q25.3906,-63.2812 23.4375,-60.1562Q18.75,-53.125 14.8438,-46.4844Q24.2188,-48.8281 26.5625,-48.4375Q31.25,-54.6875 31.6406,-59.375Q31.25,-60.9375 32.0312,-61.7188Q32.8125,-62.1094 34.375,-61.3281Q38.2812,-57.4219 38.2812,-55.8594Q37.8906,-55.0781 36.7188,-54.2969Q35.5469,-53.5156 35.1562,-53.125Q30.4688,-46.875 26.5625,-40.625Q23.0469,-35.9375 20.3125,-31.6406Q30.4688,-33.5938 32.0312,-33.9844Q31.6406,-34.7656 31.25,-35.9375Q30.4688,-37.1094 30.4688,-38.2812Q34.375,-39.0625 38.2812,-32.8125Q38.2812,-29.6875 36.7188,-28.5156Q35.1562,-27.7344 33.9844,-30.0781Q33.5938,-30.0781 33.5938,-30.4688Q33.2031,-31.25 32.8125,-32.0312Q22.2656,-29.2969 17.1875,-25.3906Q15.625,-24.2188 14.8438,-24.2188Q11.7188,-25 12.1094,-29.6875Q12.1094,-30.0781 13.2812,-30.4688Q18.75,-33.5938 25.7812,-45.7031Q18.75,-44.1406 14.0625,-41.0156Q12.5,-39.8438 11.7188,-39.8438Q8.59375,-40.2344 7.8125,-44.9219Q7.8125,-45.3125 8.98438,-46.0938Q11.3281,-47.2656 12.8906,-48.8281Q23.0469,-65.625 21.0938,-71.0938Q20.3125,-72.6562 20.7031,-73.4375Q21.4844,-74.2188 23.4375,-73.8281ZM78.125,-69.9219Q85.5469,-67.9688 88.2812,-64.4531Q88.2812,-63.6719 87.1094,-62.1094Q85.5469,-60.1562 85.9375,-59.375Q85.5469,-36.7188 86.3281,-14.8438Q86.3281,-8.59375 86.7188,-8.20312Q85.9375,1.17188 80.4688,3.125Q79.6875,2.73438 78.9062,1.5625Q76.1719,-2.73438 70.3125,-7.42188Q67.9688,-8.98438 74.2188,-7.42188Q78.9062,-6.64062 79.6875,-7.03125Q80.8594,-7.8125 81.25,-24.6094Q81.25,-42.5781 80.4688,-56.25Q79.2969,-65.625 74.2188,-65.625Q62.8906,-64.4531 46.4844,-61.3281Q46.4844,-45.7031 46.4844,-34.7656Q46.4844,-23.8281 45.7031,-16.0156Q44.9219,-1.17188 42.5781,-0.78125Q38.6719,-3.90625 40.2344,-8.98438Q41.7969,-12.5 42.5781,-29.2969Q43.3594,-49.2188 42.1875,-58.2031Q41.7969,-59.7656 40.625,-62.1094Q39.8438,-64.0625 40.2344,-64.8438Q41.0156,-66.0156 46.4844,-64.0625Q63.2812,-66.0156 74.2188,-69.1406Q76.9531,-69.9219 78.125,-69.9219ZM71.4844,-60.9375Q71.875,-60.1562 72.2656,-59.7656Q75.3906,-57.8125 75,-57.0312Q74.6094,-56.25 73.8281,-55.4688Q73.0469,-55.0781 73.0469,-55.0781Q71.4844,-53.5156 66.4062,-49.2188Q65.2344,-48.0469 64.8438,-47.6562Q62.5,-46.4844 64.0625,-48.4375Q69.1406,-55.4688 69.1406,-59.375Q68.75,-61.7188 71.4844,-60.9375ZM53.125,-56.6406Q55.8594,-57.4219 59.375,-53.125Q59.7656,-50.7812 58.5938,-49.2188Q57.8125,-48.0469 56.6406,-49.6094Q53.5156,-52.3438 53.125,-56.6406ZM30.4688,-25.7812Q32.4219,-26.9531 36.7188,-20.3125Q36.7188,-17.1875 35.1562,-16.0156Q33.9844,-14.8438 32.8125,-17.1875Q31.25,-19.1406 30.4688,-24.6094Q30.4688,-25.3906 30.4688,-25.7812ZM19.5312,-21.4844Q22.2656,-23.4375 25.3906,-16.0156Q25,-12.8906 23.4375,-11.7188Q22.2656,-11.3281 21.0938,-13.6719Q20.3125,-14.8438 19.5312,-19.5312Q19.5312,-20.7031 19.5312,-21.4844ZM9.76562,-18.75Q12.1094,-19.5312 14.4531,-8.59375Q14.0625,-4.6875 12.1094,-3.51562Q9.76562,-2.34375 9.375,-5.85938Q8.59375,-12.1094 9.76562,-18.75ZM48.0469,-30.8594Q55.8594,-31.25 63.2812,-33.5938Q62.5,-33.9844 61.3281,-37.1094Q59.7656,-40.2344 59.375,-41.0156Q56.25,-40.2344 54.6875,-40.2344Q48.0469,-41.7969 51.5625,-42.5781Q57.8125,-42.9688 66.4062,-45.7031Q70.7031,-46.875 71.875,-46.875Q75,-46.875 76.1719,-45.7031Q76.9531,-44.5312 74.2188,-44.1406Q70.3125,-43.3594 64.0625,-41.7969Q62.5,-41.4062 61.7188,-41.4062Q67.1875,-38.6719 65.625,-33.9844Q72.6562,-35.5469 74.6094,-35.9375Q77.3438,-36.3281 79.2969,-34.7656Q81.25,-33.2031 78.9062,-32.8125Q72.6562,-32.0312 59.375,-29.6875Q60.9375,-24.6094 59.7656,-20.7031Q67.5781,-23.0469 71.0938,-23.4375Q73.8281,-23.4375 75,-21.4844Q76.1719,-19.5312 73.8281,-19.5312Q68.3594,-19.1406 60.9375,-17.9688Q59.7656,-17.1875 58.2031,-16.4062Q57.0312,-15.625 56.6406,-15.625Q53.125,-17.1875 54.2969,-19.1406Q57.4219,-22.2656 55.4688,-28.9062Q52.7344,-28.125 50.3906,-28.5156Q48.0469,-28.5156 46.875,-29.2969Q46.4844,-30.4688 48.0469,-30.8594Z"></path><path transform="translate(300 100)" d="M44.9219,-80.0781Q51.5625,-80.8594 55.8594,-76.9531Q57.4219,-67.9688 52.3438,-69.9219Q48.0469,-72.2656 44.5312,-76.1719Q42.5781,-79.2969 44.9219,-80.0781ZM73.4375,-70.3125Q76.1719,-70.7031 83.2031,-65.2344Q88.2812,-60.9375 85.9375,-59.7656Q85.1562,-59.375 82.8125,-58.9844Q78.5156,-57.8125 74.6094,-56.6406Q71.0938,-55.0781 70.7031,-55.4688Q69.9219,-55.8594 71.875,-58.5938Q74.6094,-63.6719 73.0469,-64.8438Q62.8906,-64.8438 28.5156,-58.2031Q25.7812,-48.8281 22.6562,-46.875Q19.9219,-44.9219 18.75,-46.0938Q17.1875,-47.2656 17.9688,-50.7812Q17.9688,-50.7812 18.75,-52.7344Q23.8281,-61.7188 23.8281,-64.4531Q23.8281,-67.1875 25.3906,-66.4062Q26.5625,-65.625 28.9062,-61.7188Q30.8594,-62.1094 39.0625,-63.2812Q71.4844,-69.1406 73.4375,-70.3125ZM56.25,-54.2969Q58.2031,-55.0781 62.5,-51.9531Q67.5781,-48.4375 66.4062,-47.2656Q66.0156,-46.875 65.625,-46.875Q60.5469,-44.1406 53.125,-37.1094Q55.0781,-34.375 55.8594,-32.0312Q59.375,-32.4219 63.6719,-33.2031Q79.2969,-35.9375 81.6406,-35.5469Q93.3594,-32.8125 91.0156,-29.2969Q88.6719,-27.7344 83.2031,-28.5156Q71.4844,-29.6875 57.0312,-28.9062Q59.375,-17.9688 58.5938,-5.46875Q57.0312,6.25 51.1719,9.76562Q49.6094,10.1562 46.875,6.64062Q43.75,3.125 41.7969,1.5625Q37.8906,-0 37.8906,-0.78125Q37.5,-1.17188 41.0156,-1.17188Q45.3125,-0 49.2188,-1.17188Q51.9531,-1.5625 52.7344,-10.1562Q53.5156,-21.0938 51.9531,-28.5156Q24.6094,-23.8281 19.9219,-21.875Q17.9688,-21.4844 17.5781,-21.4844Q15.2344,-21.0938 11.7188,-23.8281Q8.59375,-26.1719 10.9375,-26.5625Q24.2188,-27.7344 51.1719,-31.6406Q50,-35.1562 46.875,-37.5Q44.1406,-38.6719 46.0938,-39.0625Q48.0469,-39.4531 51.1719,-38.2812Q57.8125,-48.8281 56.25,-50.3906Q54.2969,-50.7812 37.5,-43.75Q35.9375,-42.9688 32.8125,-45.7031Q30.0781,-48.0469 32.0312,-48.4375Q44.1406,-48.8281 56.25,-54.2969Z"></path><path transform="translate(400 100)" d="M65.625,-78.125Q73.4375,-74.2188 73.4375,-71.4844Q71.0938,-64.0625 71.0938,-46.875Q78.9062,-48.0469 82.4219,-49.2188Q86.7188,-50.3906 88.6719,-50.3906Q98.4375,-46.875 94.1406,-43.3594Q83.5938,-43.75 71.0938,-42.1875Q71.0938,-3.125 69.5312,6.25Q68.3594,11.7188 66.7969,11.7188Q65.2344,10.9375 65.625,5.46875Q65.625,0.78125 65.625,-8.20312Q65.625,-12.8906 65.625,-20.3125Q66.0156,-26.5625 66.0156,-41.7969Q59.375,-40.2344 55.8594,-39.8438Q52.3438,-39.4531 50.7812,-39.8438Q46.4844,-40.2344 45.3125,-41.7969Q44.5312,-42.9688 48.4375,-43.3594Q48.8281,-43.3594 66.0156,-46.0938Q66.0156,-60.9375 65.2344,-65.625Q64.8438,-71.4844 63.2812,-74.6094Q62.1094,-76.1719 62.8906,-77.7344Q63.6719,-78.9062 65.625,-78.125ZM42.5781,-70.7031Q46.875,-61.7188 41.0156,-62.8906Q40.625,-62.8906 40.2344,-63.2812Q33.9844,-67.1875 30.8594,-70.7031Q29.2969,-72.6562 34.7656,-72.6562Q40.2344,-72.6562 42.5781,-70.7031ZM45.7031,-56.6406Q48.0469,-56.6406 48.4375,-55.0781Q48.8281,-53.9062 46.4844,-53.5156Q23.8281,-48.0469 16.7969,-45.3125Q12.1094,-44.1406 11.3281,-44.1406Q8.98438,-43.75 5.46875,-46.875Q3.51562,-48.4375 3.51562,-49.2188Q3.90625,-50 6.25,-50Q9.76562,-49.2188 25.7812,-52.7344Q35.9375,-55.0781 45.7031,-56.6406ZM39.4531,-45.7031Q41.7969,-45.3125 42.5781,-43.75Q42.9688,-42.5781 41.0156,-41.7969Q30.8594,-38.6719 27.7344,-38.6719Q24.6094,-38.6719 23.4375,-39.4531Q23.0469,-40.625 25.3906,-41.4062Q26.5625,-41.4062 31.25,-42.9688Q37.1094,-45.3125 39.4531,-45.7031ZM39.0625,-35.5469Q41.4062,-35.9375 42.5781,-34.7656Q43.3594,-33.5938 41.7969,-32.8125Q33.9844,-28.9062 27.3438,-28.5156Q24.6094,-28.125 23.4375,-29.2969Q22.6562,-30.8594 25.3906,-31.25Q28.5156,-31.6406 33.5938,-33.5938Q37.1094,-35.1562 39.0625,-35.5469ZM39.0625,-26.1719Q45.7031,-25.3906 46.875,-21.875Q46.875,-21.0938 45.7031,-20.3125Q43.3594,-17.9688 41.7969,-15.2344Q43.3594,-13.2812 43.3594,-11.7188Q43.3594,-10.5469 41.7969,-10.5469Q38.6719,-9.76562 28.5156,-8.20312Q28.9062,-3.51562 27.7344,-2.73438Q26.5625,-1.95312 25.3906,-5.46875Q24.6094,-7.03125 23.0469,-11.7188Q21.4844,-14.8438 21.4844,-16.0156Q20.7031,-17.1875 19.1406,-18.75Q18.3594,-19.5312 18.3594,-20.3125Q18.75,-21.4844 25.7812,-21.0938Q33.2031,-21.875 37.5,-25Q38.2812,-25.7812 39.0625,-26.1719ZM37.1094,-20.7031Q35.9375,-21.0938 26.5625,-18.3594Q27.3438,-12.1094 27.7344,-11.3281Q35.1562,-12.5 37.5,-14.4531Q38.6719,-18.3594 37.1094,-20.7031Z"></path><path transform="translate(500 100)" d="M64.4531,-58.2031L51.9531,-57.0312L50.7812,-51.9531Q53.5156,-48.8281 51.1719,-48.4375Q50.3906,-48.0469 39.4531,-46.4844L39.0625,-41.4062Q42.9688,-41.7969 48.4375,-42.9688Q50.3906,-42.5781 50.7812,-41.7969Q50.7812,-41.0156 49.2188,-40.625Q46.4844,-39.4531 41.0156,-38.6719Q39.4531,-38.6719 39.0625,-38.6719L39.0625,-33.2031Q42.1875,-33.5938 44.9219,-33.9844Q52.7344,-35.5469 54.6875,-35.1562Q56.6406,-34.7656 57.0312,-33.5938Q57.4219,-32.0312 55.8594,-31.6406Q28.125,-29.2969 22.6562,-27.3438Q18.75,-26.5625 17.5781,-26.9531Q15.625,-26.9531 14.0625,-28.5156Q13.2812,-29.2969 15.2344,-29.6875Q19.9219,-29.2969 29.6875,-31.25Q33.2031,-32.0312 35.1562,-32.4219L35.1562,-37.8906Q33.9844,-37.8906 32.0312,-37.5Q29.2969,-37.1094 28.125,-37.1094Q25.7812,-36.7188 24.2188,-38.2812Q23.4375,-39.4531 26.1719,-39.8438Q26.5625,-39.8438 35.1562,-40.625Q35.1562,-43.75 35.1562,-46.0938Q32.4219,-45.7031 29.2969,-44.9219Q26.9531,-44.9219 26.5625,-44.9219Q23.8281,-44.9219 22.2656,-46.0938Q21.0938,-47.2656 23.8281,-47.6562Q30.4688,-48.0469 35.1562,-48.8281Q35.1562,-50.3906 35.1562,-55.0781Q25,-53.5156 21.0938,-51.9531Q16.4062,-50.7812 14.4531,-51.1719Q5.46875,-52.3438 9.375,-55.0781Q18.3594,-55.4688 35.1562,-58.2031L35.1562,-64.0625Q34.375,-63.6719 33.5938,-63.6719Q30.4688,-62.8906 28.9062,-63.6719Q25.3906,-63.6719 24.6094,-64.4531Q24.2188,-65.2344 26.9531,-65.625Q27.3438,-65.625 35.1562,-66.7969Q35.1562,-74.6094 32.8125,-77.3438Q31.6406,-78.125 32.0312,-78.9062Q32.8125,-79.6875 33.9844,-79.6875Q39.8438,-78.125 41.7969,-76.5625Q41.7969,-75.7812 41.4062,-74.6094Q39.8438,-71.0938 40.2344,-67.9688Q45.3125,-68.75 47.2656,-69.5312Q48.8281,-70.3125 49.6094,-70.3125Q54.2969,-68.75 55.4688,-66.7969Q55.4688,-66.0156 54.6875,-65.2344Q53.125,-62.8906 52.7344,-60.5469Q53.125,-60.5469 53.9062,-60.5469Q60.9375,-61.7188 62.8906,-61.7188Q64.8438,-61.3281 65.2344,-60.1562Q65.625,-58.5938 64.4531,-58.2031ZM78.125,-78.125Q84.375,-75.7812 86.7188,-73.0469Q86.7188,-72.2656 86.3281,-71.0938Q84.7656,-65.2344 84.375,-56.6406Q83.9844,-56.25 84.375,-50Q84.375,-44.5312 85.1562,-28.5156Q85.5469,-4.6875 85.9375,-1.17188Q83.9844,7.03125 79.2969,8.59375Q78.125,8.20312 76.5625,5.46875Q73.0469,-0 69.5312,-2.73438Q67.9688,-3.90625 67.9688,-4.29688Q68.3594,-5.07812 70.3125,-4.29688Q76.9531,-1.5625 78.9062,-2.34375Q80.4688,-1.95312 80.4688,-14.8438Q80.4688,-14.8438 80.0781,-19.5312Q80.0781,-42.9688 80.0781,-35.1562Q80.0781,-52.7344 80.0781,-55.8594Q79.6875,-71.875 76.5625,-75.3906Q75.3906,-76.5625 75.7812,-77.3438Q76.1719,-78.125 78.125,-78.125ZM39.8438,-64.8438L39.4531,-58.5938L48.0469,-59.7656Q48.0469,-61.3281 48.0469,-63.6719Q48.0469,-65.2344 47.2656,-65.625Q46.875,-66.0156 46.0938,-65.625Q45.3125,-65.2344 39.8438,-64.8438ZM47.6562,-56.6406L39.4531,-55.4688Q39.4531,-52.3438 39.4531,-49.2188L46.875,-50.7812Q47.2656,-53.9062 47.6562,-56.6406ZM71.0938,-44.5312L71.4844,-23.8281Q71.0938,-17.9688 69.1406,-17.1875Q66.7969,-17.9688 66.4062,-23.0469Q66.0156,-23.8281 66.4062,-26.5625Q67.5781,-30.4688 67.1875,-45.7031Q66.7969,-46.4844 66.7969,-47.2656Q66.4062,-51.5625 65.625,-53.5156Q64.4531,-55.0781 65.2344,-55.4688Q65.625,-56.25 67.5781,-55.4688Q72.2656,-52.7344 72.2656,-51.5625Q72.2656,-50.7812 71.4844,-48.4375Q71.0938,-45.7031 71.0938,-44.5312ZM48.0469,-27.3438Q54.2969,-25.3906 55.8594,-23.4375Q55.8594,-22.6562 54.6875,-21.4844Q53.5156,-20.7031 53.5156,-19.9219Q52.3438,-17.1875 51.5625,-15.2344Q50.7812,-12.5 49.2188,-9.76562Q48.0469,-7.03125 46.875,-7.42188Q46.4844,-7.42188 45.7031,-7.8125Q45.3125,-8.59375 45.3125,-8.98438Q38.6719,-9.375 28.5156,-7.03125Q28.125,-5.46875 26.9531,-5.46875Q25.3906,-5.46875 25.3906,-7.03125Q24.2188,-9.375 23.0469,-12.1094Q21.4844,-16.4062 20.3125,-18.75Q17.5781,-21.875 18.75,-22.6562Q18.75,-23.0469 23.4375,-22.6562Q23.4375,-22.6562 24.2188,-22.6562Q35.9375,-24.2188 44.9219,-26.5625Q47.2656,-27.3438 48.0469,-27.3438ZM38.2812,-22.6562L38.2812,-18.3594Q39.0625,-18.3594 40.2344,-18.75Q42.1875,-19.1406 42.9688,-19.1406Q43.75,-18.75 44.1406,-17.9688Q44.1406,-16.7969 43.3594,-16.7969Q40.625,-16.0156 38.2812,-16.0156L38.2812,-11.3281Q40.625,-11.3281 41.7969,-11.3281Q44.9219,-11.7188 46.0938,-11.7188Q47.2656,-15.2344 47.6562,-21.4844Q47.6562,-23.8281 44.9219,-23.8281Q43.75,-23.4375 42.9688,-23.4375Q40.2344,-23.0469 38.2812,-22.6562ZM24.6094,-20.3125L27.7344,-8.98438Q33.2031,-10.1562 34.375,-10.5469L34.375,-15.2344Q32.0312,-15.2344 30.8594,-15.2344Q29.2969,-15.2344 28.5156,-16.0156Q28.125,-16.7969 29.6875,-17.1875Q30.0781,-17.1875 34.375,-17.9688L34.375,-22.2656Q29.6875,-21.4844 24.6094,-20.3125ZM54.2969,-5.46875Q57.0312,-5.07812 57.8125,-3.125Q58.2031,-1.17188 55.8594,-1.17188Q44.1406,-1.17188 37.1094,-0.390625Q29.6875,-0 24.6094,1.17188Q19.5312,2.73438 17.9688,2.73438Q8.98438,-0 13.2812,-0.390625Q20.7031,-0 39.8438,-3.51562Q51.9531,-5.46875 54.2969,-5.46875Z"></path><path transform="translate(0 200)" d="M37.8906,-58.5938L37.8906,-8.98438Q37.1094,-1.5625 45.7031,-1.95312L49.2188,-1.95312L49.2188,-0L17.9688,-0L17.9688,-1.95312L21.4844,-1.95312Q30.0781,-1.5625 29.6875,-8.98438L29.6875,-58.5938L12.1094,-58.5938Q6.25,-58.9844 5.07812,-47.2656L3.125,-47.2656L4.6875,-63.6719L6.64062,-63.6719Q6.64062,-62.8906 7.8125,-62.5Q8.20312,-61.7188 9.76562,-62.1094L57.8125,-62.1094Q60.1562,-62.1094 60.9375,-63.6719L62.8906,-63.6719L64.4531,-47.2656L62.8906,-47.2656Q60.5469,-59.375 55.4688,-58.5938L37.8906,-58.5938Z"></path><path transform="translate(68 200)" d="M16.0156,-31.6406L16.0156,-7.8125Q15.2344,-1.17188 22.2656,-1.95312L22.2656,-0L2.34375,-0L2.34375,-1.95312Q9.375,-1.5625 8.98438,-9.375L8.98438,-57.4219Q8.98438,-60.1562 6.64062,-60.5469L2.34375,-61.3281L2.34375,-63.2812L14.4531,-67.1875L16.0156,-67.1875L16.0156,-34.375Q25.7812,-40.625 32.4219,-40.625Q43.3594,-40.625 43.3594,-25.7812Q43.3594,-16.4062 42.9688,-12.8906Q42.9688,-8.59375 42.9688,-5.46875Q42.5781,-1.5625 50.7812,-1.95312L50.7812,-0L28.9062,-0L28.9062,-1.95312Q32.8125,-1.5625 34.375,-3.51562Q35.5469,-4.29688 35.9375,-8.59375Q36.7188,-12.5 36.7188,-24.2188Q36.3281,-35.9375 27.7344,-36.3281Q23.0469,-36.3281 16.0156,-31.6406Z"></path><path transform="translate(120 200)" d="M40.625,-25.3906L11.3281,-25.3906Q10.5469,-22.6562 10.9375,-21.0938Q11.7188,-5.07812 26.1719,-3.90625Q32.8125,-3.51562 39.0625,-10.1562L39.8438,-8.98438Q31.25,-0 21.875,0.390625Q5.46875,-0.390625 4.6875,-19.1406Q6.25,-39.0625 23.8281,-40.625Q33.5938,-40.625 37.8906,-31.25Q39.4531,-28.5156 40.625,-27.7344L40.625,-25.3906ZM11.3281,-28.125L32.0312,-28.125Q29.6875,-37.8906 22.2656,-38.6719Q14.4531,-38.6719 11.3281,-28.125Z"></path><path transform="translate(163 200)" d=""></path><path transform="translate(191 200)" d="M19.9219,-26.9531L19.9219,-9.375Q19.1406,-1.17188 28.125,-1.95312L31.25,-1.95312L31.25,-0L3.51562,-0L3.51562,-1.95312L5.07812,-1.95312Q11.7188,-1.17188 11.3281,-7.42188L11.3281,-55.0781Q11.3281,-60.1562 7.03125,-60.1562L1.95312,-60.1562L1.95312,-62.1094Q3.90625,-61.7188 12.5,-62.5Q13.6719,-62.5 14.4531,-62.8906Q17.1875,-62.8906 22.2656,-62.8906Q25.7812,-63.2812 26.9531,-63.2812Q51.5625,-62.8906 52.7344,-45.3125Q51.5625,-26.5625 28.5156,-26.1719Q23.8281,-26.1719 19.9219,-26.9531ZM19.9219,-60.5469L19.9219,-28.9062Q22.2656,-28.125 25.3906,-28.125Q42.1875,-28.9062 43.3594,-45.7031Q43.3594,-60.9375 26.9531,-60.9375Q22.2656,-60.9375 19.9219,-60.5469Z"></path><path transform="translate(247 200)" d="M16.0156,-26.5625L16.0156,-7.03125Q15.2344,-1.5625 22.2656,-1.95312L26.1719,-1.95312L26.1719,-0L2.73438,-0L2.73438,-1.95312Q8.98438,-1.17188 8.98438,-9.375L8.98438,-32.4219L2.73438,-34.7656L2.73438,-36.3281L14.0625,-40.625L16.0156,-40.625L16.0156,-30.0781Q22.2656,-41.4062 25.7812,-40.2344Q26.5625,-40.2344 27.7344,-39.4531Q28.125,-39.0625 28.9062,-39.0625Q30.4688,-38.2812 33.9844,-37.8906L31.6406,-31.6406Q29.6875,-31.6406 26.5625,-33.2031Q24.6094,-33.5938 23.0469,-33.9844Q20.3125,-33.9844 19.1406,-31.6406Q18.3594,-30.8594 17.5781,-29.2969Q16.4062,-27.7344 16.0156,-26.5625Z"></path><path transform="translate(280 200)" d="M4.29688,-19.5312Q5.46875,-38.6719 26.1719,-40.625Q45.7031,-39.0625 47.2656,-19.5312Q45.7031,-0.390625 26.5625,0.390625Q5.85938,-0.390625 4.29688,-19.5312ZM11.7188,-22.6562Q12.8906,-2.73438 27.3438,-1.17188Q39.0625,-2.73438 40.2344,-17.1875Q38.6719,-35.9375 24.6094,-38.2812Q12.8906,-36.3281 11.7188,-22.6562Z"></path><path transform="translate(332 200)" d="M16.7969,-41.0156L16.7969,1.17188Q16.0156,20.7031 0.390625,22.2656Q-8.20312,21.4844 -9.375,17.1875Q-8.98438,12.8906 -6.64062,12.8906Q-5.07812,12.8906 -1.95312,15.2344Q1.17188,18.75 3.51562,18.75Q9.76562,18.75 9.76562,7.8125L9.76562,-30.0781Q10.1562,-33.9844 6.64062,-33.9844L2.34375,-34.7656L2.34375,-36.3281L15.2344,-41.0156L16.7969,-41.0156ZM8.20312,-59.7656Q8.20312,-63.2812 12.5,-63.6719Q16.0156,-62.8906 16.7969,-59.7656Q16.0156,-56.25 12.5,-55.8594Q8.20312,-55.8594 8.20312,-59.7656Z"></path><path transform="translate(357 200)" d="M40.625,-25.3906L11.3281,-25.3906Q10.5469,-22.6562 10.9375,-21.0938Q11.7188,-5.07812 26.1719,-3.90625Q32.8125,-3.51562 39.0625,-10.1562L39.8438,-8.98438Q31.25,-0 21.875,0.390625Q5.46875,-0.390625 4.6875,-19.1406Q6.25,-39.0625 23.8281,-40.625Q33.5938,-40.625 37.8906,-31.25Q39.4531,-28.5156 40.625,-27.7344L40.625,-25.3906ZM11.3281,-28.125L32.0312,-28.125Q29.6875,-37.8906 22.2656,-38.6719Q14.4531,-38.6719 11.3281,-28.125Z"></path><path transform="translate(400 200)" d="M37.5,-9.76562L39.0625,-8.98438Q32.8125,0.390625 21.0938,0.390625Q5.85938,-0 4.6875,-17.9688Q6.25,-38.6719 27.7344,-40.625Q37.8906,-39.8438 38.6719,-34.7656Q38.2812,-32.0312 35.5469,-32.0312Q33.2031,-32.0312 30.0781,-34.7656Q26.5625,-38.2812 23.8281,-38.2812Q12.1094,-35.9375 10.9375,-20.3125Q11.7188,-3.90625 25.3906,-2.73438Q32.0312,-2.73438 37.5,-9.76562Z"></path><path transform="translate(443 200)" d="M14.0625,-39.4531L28.5156,-39.4531L26.9531,-35.1562L14.0625,-35.1562L14.0625,-11.7188Q14.0625,-4.29688 20.7031,-3.51562Q23.8281,-3.51562 26.9531,-8.20312L28.5156,-7.03125Q24.6094,-0 17.5781,0.390625Q7.8125,-0 7.42188,-10.1562L7.42188,-35.1562L2.73438,-35.1562L2.73438,-36.7188Q8.59375,-39.4531 12.5,-49.2188L14.0625,-49.2188L14.0625,-39.4531Z"></path><path transform="translate(472 200)" d=""></path><path transform="translate(500 200)" d="M47.2656,-41.4062L47.2656,-23.8281L45.7031,-23.8281Q45.3125,-31.6406 38.6719,-31.25L19.9219,-31.25L19.9219,-9.375Q18.75,-1.17188 28.9062,-1.95312L28.9062,-0L4.29688,-0L4.29688,-1.95312Q12.5,-0.78125 11.7188,-11.3281L11.7188,-50.7812Q12.5,-60.5469 4.29688,-60.1562L4.29688,-62.1094L48.8281,-62.1094L48.8281,-50.3906L47.2656,-50.3906Q47.6562,-58.9844 39.0625,-58.5938L19.9219,-58.5938L19.9219,-34.7656L39.8438,-34.7656Q44.9219,-34.7656 45.7031,-41.4062L47.2656,-41.4062Z"></path><path transform="translate(553 200)" d="M4.29688,-19.5312Q5.46875,-38.6719 26.1719,-40.625Q45.7031,-39.0625 47.2656,-19.5312Q45.7031,-0.390625 26.5625,0.390625Q5.85938,-0.390625 4.29688,-19.5312ZM11.7188,-22.6562Q12.8906,-2.73438 27.3438,-1.17188Q39.0625,-2.73438 40.2344,-17.1875Q38.6719,-35.9375 24.6094,-38.2812Q12.8906,-36.3281 11.7188,-22.6562Z"></path><path transform="translate(605 200)" d="M16.0156,-26.5625L16.0156,-7.03125Q15.2344,-1.5625 22.2656,-1.95312L26.1719,-1.95312L26.1719,-0L2.73438,-0L2.73438,-1.95312Q8.98438,-1.17188 8.98438,-9.375L8.98438,-32.4219L2.73438,-34.7656L2.73438,-36.3281L14.0625,-40.625L16.0156,-40.625L16.0156,-30.0781Q22.2656,-41.4062 25.7812,-40.2344Q26.5625,-40.2344 27.7344,-39.4531Q28.125,-39.0625 28.9062,-39.0625Q30.4688,-38.2812 33.9844,-37.8906L31.6406,-31.6406Q29.6875,-31.6406 26.5625,-33.2031Q24.6094,-33.5938 23.0469,-33.9844Q20.3125,-33.9844 19.1406,-31.6406Q18.3594,-30.8594 17.5781,-29.2969Q16.4062,-27.7344 16.0156,-26.5625Z"></path><path transform="translate(638 200)" d=""></path><path transform="translate(666 200)" d="M68.75,0.78125L64.0625,0.78125L50.7812,-29.2969L38.2812,0.78125L33.2031,0.78125L12.5,-51.5625Q8.98438,-60.9375 0.78125,-60.1562L0,-60.1562L0,-62.1094L26.1719,-62.1094L26.1719,-60.1562L24.2188,-60.1562Q16.4062,-59.7656 19.5312,-53.9062L37.8906,-8.20312L48.4375,-34.7656L40.2344,-54.6875Q37.8906,-60.5469 30.0781,-60.1562L30.0781,-62.1094L71.0938,-62.1094L71.0938,-60.1562Q62.8906,-60.1562 60.9375,-55.0781L54.6875,-39.4531L67.9688,-8.20312L85.5469,-54.6875Q88.2812,-59.7656 78.5156,-60.1562L78.5156,-62.1094L99.2188,-62.1094L99.2188,-60.1562Q91.4062,-61.3281 88.6719,-51.1719L68.75,0.78125ZM52.3438,-44.9219L57.0312,-55.8594Q58.2031,-60.1562 54.2969,-60.1562L50.3906,-60.1562Q45.7031,-59.7656 47.2656,-56.6406L52.3438,-44.9219Z"></path><path transform="translate(766 200)" d="M40.625,-25.3906L11.3281,-25.3906Q10.5469,-22.6562 10.9375,-21.0938Q11.7188,-5.07812 26.1719,-3.90625Q32.8125,-3.51562 39.0625,-10.1562L39.8438,-8.98438Q31.25,-0 21.875,0.390625Q5.46875,-0.390625 4.6875,-19.1406Q6.25,-39.0625 23.8281,-40.625Q33.5938,-40.625 37.8906,-31.25Q39.4531,-28.5156 40.625,-27.7344L40.625,-25.3906ZM11.3281,-28.125L32.0312,-28.125Q29.6875,-37.8906 22.2656,-38.6719Q14.4531,-38.6719 11.3281,-28.125Z"></path><path transform="translate(809 200)" d="M14.0625,-67.1875L14.0625,-33.5938Q23.8281,-40.625 29.2969,-40.625Q44.1406,-38.6719 45.7031,-21.0938Q43.75,-0.78125 22.2656,0.390625Q18.75,0.390625 12.5,-0Q9.375,-0.390625 7.42188,-0.78125L7.42188,-54.6875Q7.8125,-60.9375 3.51562,-60.9375L0.78125,-61.3281L0.78125,-63.2812L12.5,-67.1875L14.0625,-67.1875ZM14.0625,-31.25L14.0625,-12.1094Q14.8438,-1.95312 25,-1.5625Q37.8906,-2.34375 39.0625,-18.3594Q37.8906,-34.375 25.3906,-35.9375Q20.7031,-35.9375 14.0625,-31.25Z"></path></svg>