<?xml version="1.0" standalone="no"?><!DOCTYPE svg PUBLIC "-//W3C//DTD SVG 1.1//EN" "http://www.w3.org/Graphics/SVG/1.1/DTD/svg11.dtd"><svg t="1706509138727" class="icon" viewBox="0 0 1024 1024" version="1.1" xmlns="http://www.w3.org/2000/svg" p-id="17294" width="64" height="64" xmlns:xlink="http://www.w3.org/1999/xlink"><path d="M209.3056 867.2768h432.0768c43.6224 0 78.9504-35.3792 78.9504-78.9504V143.9232c0-43.6224-35.3792-78.9504-78.9504-78.9504H209.3056c-43.6224 0-78.9504 35.3792-78.9504 78.9504v644.4032c-0.0512 43.6224 35.328 78.9504 78.9504 78.9504z" fill="#FFD05C" p-id="17295"></path><path d="M367.0016 951.7056h303.2064l218.2656-228.9152V262.0416c0-48.8448-39.5776-88.4224-88.4224-88.4224H367.0016c-48.8448 0-88.4224 39.5776-88.4224 88.4224V863.232c-0.0512 48.8448 39.5776 88.4736 88.4224 88.4736z" fill="#FFD05C" p-id="17296"></path><path d="M720.3328 786.5344V173.6192H367.0016c-48.8448 0-88.4224 39.5776-88.4224 88.4224V863.232c0 1.3824 0.1536 2.7136 0.2048 4.0448h360.8064c44.5952 0 80.7424-36.1472 80.7424-80.7424z" fill="#FCA235" p-id="17297"></path><path d="M713.3696 384.1536h-294.4c-22.6304 0-40.96-18.3296-40.96-40.96s18.3296-40.96 40.96-40.96h294.4c22.6304 0 40.96 18.3296 40.96 40.96s-18.3296 40.96-40.96 40.96zM713.3696 519.7824h-294.4c-22.6304 0-40.96-18.3296-40.96-40.96s18.3296-40.96 40.96-40.96h294.4c22.6304 0 40.96 18.3296 40.96 40.96s-18.3296 40.96-40.96 40.96zM582.912 659.3024H418.9696c-22.6304 0-40.96-18.3296-40.96-40.96s18.3296-40.96 40.96-40.96h163.9936c22.6304 0 40.96 18.3296 40.96 40.96s-18.3808 40.96-41.0112 40.96z" fill="#FFFFFF" p-id="17298"></path><path d="M670.208 951.7056l218.2656-228.9152V667.648h-175.4624c-43.2128 0-78.2336 35.0208-78.2336 78.2336v205.7728h35.4304z" fill="#FCA235" p-id="17299"></path><path d="M670.208 951.7056l218.2656-228.9152V667.648h-175.4624c-43.2128 0-78.2336 35.0208-78.2336 78.2336v205.7728h35.4304z" fill="#FCA235" p-id="17300"></path><path d="M713.0112 667.648c-43.2128 0-78.2336 35.0208-78.2336 78.2336v121.3952h4.8128c44.5952 0 80.7424-36.1472 80.7424-80.7424V667.648h-7.3216z" fill="#F99026" p-id="17301"></path></svg>