<?xml version="1.0" standalone="no"?><!DOCTYPE svg PUBLIC "-//W3C//DTD SVG 1.1//EN" "http://www.w3.org/Graphics/SVG/1.1/DTD/svg11.dtd"><svg t="1706508934824" class="icon" viewBox="0 0 1024 1024" version="1.1" xmlns="http://www.w3.org/2000/svg" p-id="14940" width="64" height="64" xmlns:xlink="http://www.w3.org/1999/xlink"><path d="M0 0h1024v1024H0V0z" fill="#202425" opacity=".01" p-id="14941"></path><path d="M989.866667 273.066667c0 94.242133-213.947733 170.666667-477.866667 170.666666S34.133333 367.3088 34.133333 273.066667s213.947733-170.666667 477.866667-170.666667 477.866667 76.424533 477.866667 170.666667z" fill="#FF7744" p-id="14942"></path><path d="M512 477.866667c137.659733 0 265.250133-19.797333 360.8576-53.9648 3.754667-1.365333 8.874667-3.310933 13.789867-5.188267a33.723733 33.723733 0 0 1 28.398933 1.6384c2.389333 1.297067 4.608 2.56 6.314667 3.549867 43.485867 25.7024 68.5056 55.876267 68.5056 88.064 0 94.276267-213.947733 170.666667-477.866667 170.666666S34.133333 606.276267 34.133333 512c0-32.187733 25.019733-62.3616 68.5056-88.064 1.706667-1.024 3.925333-2.2528 6.314667-3.549867a33.723733 33.723733 0 0 1 28.398933-1.6384c4.881067 1.877333 10.0352 3.857067 13.789867 5.188267 95.573333 34.133333 223.197867 53.930667 360.8576 53.930667z" fill="#FFAA44" p-id="14943"></path><path d="M512 716.834133c137.659733 0 265.250133-19.797333 360.8576-53.930666 3.754667-1.365333 8.874667-3.310933 13.789867-5.2224a33.723733 33.723733 0 0 1 28.398933 1.6384c2.389333 1.297067 4.608 2.56 6.314667 3.549866 43.485867 25.736533 68.5056 55.876267 68.5056 88.098134 0 94.276267-213.947733 170.666667-477.866667 170.666666s-477.866667-76.3904-477.866667-170.666666c0-32.221867 25.019733-62.3616 68.5056-88.064 1.706667-1.024 3.925333-2.286933 6.314667-3.584a33.723733 33.723733 0 0 1 28.398933-1.6384c4.881067 1.911467 10.0352 3.857067 13.789867 5.188266 95.573333 34.133333 223.197867 53.9648 360.8576 53.9648z" fill="#FF7744" p-id="14944"></path></svg>