<?xml version="1.0" standalone="no"?><!DOCTYPE svg PUBLIC "-//W3C//DTD SVG 1.1//EN" "http://www.w3.org/Graphics/SVG/1.1/DTD/svg11.dtd"><svg t="1706509423190" class="icon" viewBox="0 0 1024 1024" version="1.1" xmlns="http://www.w3.org/2000/svg" p-id="28537" width="64" height="64" xmlns:xlink="http://www.w3.org/1999/xlink"><path d="M104.388709 713.050117A456.023901 456.023901 0 0 1 26.947638 458.14666a458.071752 458.071752 0 0 1 715.669748-378.906175 88.380903 88.380903 0 0 1 121.41596 121.41596A456.023901 456.023901 0 0 1 943.091141 458.14666 458.071752 458.071752 0 0 1 485.019389 916.218411a456.023901 456.023901 0 0 1-261.90926-82.12957 88.327012 88.327012 0 0 1-118.829201-120.984833h0.107781z m41.33424-37.669665a88.327012 88.327012 0 0 1 115.865207 118.020839 400.94751 400.94751 0 0 0 223.485124 67.579056 402.887578 402.887578 0 0 0 336.548011-624.432633 88.327012 88.327012 0 0 1-114.949065-114.949065 401.055291 401.055291 0 0 0-221.598946-66.285677A402.887578 402.887578 0 0 0 145.722949 675.326561z" fill="#EFC192" p-id="28538"></path><path d="M242.510815 754.546028a53.890794 53.890794 0 1 0-107.781588 0 53.890794 53.890794 0 0 0 107.781588 0zM781.472649 215.638085A53.890794 53.890794 0 1 0 781.418758 107.856497a53.890794 53.890794 0 0 0 0.107782 107.781588zM402.997601 671.015297a215.563177 215.563177 0 1 0 217.988263-371.84648 215.563177 215.563177 0 0 0-217.988263 371.84648zM781.418758 916.218411a107.781589 107.781589 0 1 0 215.563177 0 107.781589 107.781589 0 0 0-215.563177 0z" fill="#F0A34A" p-id="28539"></path></svg>