<svg color-interpolation-filters="sRGB" height="44" style="margin:auto" version="1" viewBox="0 0 100 44" width="100" xmlns="http://www.w3.org/2000/svg"><g class="basesvg" fill="#f7f8f8"><path d="M9.117 34.38q.92-.81 1.75-1.51.83-.69 1.8-1.71 1.07-1.08 1.58-2.39.51-1.32-1.37-.3-1.66.75-3.19 1.96t-1.1 3.2q-.06.16.1.48.17.32.43.27zm5.91-9.78h.43q3.12-.64 4.19 1.05 1.08 1.69-.86 4.65-.64.59-1.34 1.18-.7.59-.81 1.18.22.91.03 1.53t-1.21 1.37q-1.66.97-3.03 1.45-1.37.48-3.09.7-.91.64-1.93.67-1.03.03-1.83-1.1-.48-.7-.81-1.37-.32-.67-.8-1.32-.38-.7-.49-1.37-.1-.67-.16-1.31-.21-1.94 1.21-2.58 1.43-.65 2.98-.54 1.94-1.23 3.74-2.28 1.8-1.05 3.78-1.91zm.86-5.69l1.08-.32q.69 0 .94.35.24.35-.3 1.15l-5.69 3.44q-.7.64-1.45 1.23t-1.56.92q-.7-.33-.99-.3-.3.03-.94.51-.97.27-1.59.38-.62.11-1.42-.16-1.56-.92-.62-1.67.94-.75 2.12-.8 2.69-1.24 5.13-2.66 2.45-1.43 5.29-2.07zm21.06-3.33q.64-.27 1.18-.24.54.02 1.18-.08 1.02-.06 1.64.51.62.56.72 1.74l.33 6.45.1 2.47q.22 1.99.51 3.84.3 1.85.35 4 .27 2.04.49 3.95.21 1.91.26 4.11 0 1.07-.72 1.31-.73.24-1.64-.35-1.34-1.61-2.55-2.71-1.21-1.1-2.82-2.33-.75-.86-.64-1.37.1-.51 1.18-.68l2.15.11q.75.06 1.2-.21.46-.27.51-1.18v-3.01q0-1.4-.32-3.01-.21-2.9-.35-5.48-.13-2.58-.51-5.59 0-.42-.19-.8-.18-.38-.67-.48-1.12.05-2.12.4-.99.35-1.96.78-1.45.59-.54 1.85.92 1.26 2.15 1.26.43 0 .92.3.48.29.37.78-.21.53-.67.83-.46.29-.94.46-.75.48-1.88 1.07-1.13.59-1.34 1.5-.27.76-.08 1.16.18.4 1.26.13l2.36-.75q.92-.16 1.48.14.56.29.46 1.47-.22.65-.33 1.24-.1.59-.32 1.34-.37.43-.29.91.08.49.51.92.48.75.26 1.15-.21.4-1.02.78-1.18.27-2.17.62t-2.12.88q-.65.17-1.13-.21-.48-.38-.38-.97.22-.8.51-1.39.3-.59 1.1-.76 1.4-.53 2.15-1.55.76-1.02.97-2.1.16-.64-.11-.8-.27-.16-.75.05-1.61.81-2.42 1.75-.8.94-1.34 2.44-.91 1.88-2.2 1.64t-1.56-2.07q.11-1.13.43-2.28.32-1.16 1.4-2.23.48-.75.08-1.1-.4-.35-1.05-.51-.48-.43-.43-.76.05-.32.54-.53 1.72-.59 2.17-1.51.46-.91 1.05-2.47.11-.37-.21-.48-.33-.11-.65-.05-2.36.86-3.49 2.12-1.13 1.26-1.13 3.78.38 2.69-.29 5.08-.67 2.39-1 5.24-.21.64-.94 1.12-.72.49-1.42 1.24-.22.21-.4.16-.19-.05-.46-.37-1.07-1.78-1.58-2.99-.51-1.2-.35-3.14l-.11-1.72q.38-.53.59-.86.21-.32.38-.75l1.39-5.8q.22-.91.57-1.61.35-.7 1.37-.97 1.66-.1 2.98-.61 1.31-.51 2.92-1.21 1.94-1.13 3.71-1.91t3.71-1.1zm-1.83-6.12q.48-.11.91-.03.43.08.92.46.64.26.64.67 0 .4-.43.94-1.56 1.23-2.82 2.28-1.26 1.05-2.66 2.01-.21.11-.45.06-.25-.06-.08-.27l2.04-2.9q.21-.43.13-.65-.08-.21-.46-.21-.37 0-.67-.05-.29-.06-.29-.38.8-1.07 1.5-1.48.7-.4 1.72-.45zm-26.64 2.25l9.35-4.4q.64-.22 1.2-.16.57.05 1.27.05.96.16 1.23.75t-.7 1.29q-1.66.75-3 1.8-1.35 1.05-2.9 2.93-.33.37-.3.62.03.24.51.56.7.38.67.86-.03.48-.56 1.07l-3.12 1.83q-.86.21-1.61.43-.75.21-1.61.75-1.18-.05-1.45-.67t.48-1.59q1.29-.69 2.12-1.47.84-.78 1.86-1.96.16-.27.08-.43-.08-.16-.41.11-2.04 1.02-3.92 2.01-1.88.99-3.81 1.64-.86.16-1.58.27-.73.1-1.53-.49-.97-1.23-.68-3.03.3-1.8 1.86-2.77.53-.27.86-.19.32.08.75.73.64 1.13 2.23.48 1.58-.64 2.71-1.02zM12.557.33q.81-.06 1.83-.06t2.04.38q1.13.64 2.17 1.88 1.05 1.23.51 2.31-1.18 1.07-3 1.21-1.83.13-3.33-.25-.65-.16-.84-.64-.18-.48-.02-.97.05-.48-.19-.83t-.67-.67q-1.51-1.56-.62-1.94.89-.37 2.12-.42zm16.01 0q.43-.33.83-.33.4 0 .99.11 1.83-.16 3.36 1.61 1.53 1.77 1.05 3.55 0 .43.16.56.16.13.59-.03 1.61-.43 3.12-.96 1.5-.54 3.22-.43.91 0 .96.56.06.57-.85 1.05-1.4.21-2.56.46-1.15.24-2.6 1.04l-3.33 1.29q-1.13.16-2.04.43-.92.27-2.04.97-1.24.48-2.31.86-1.08.37-2.31 1.18-.22.27-.49.48-.26.22.06.38 1.02.7 1.37 1.05.35.34 1.53.02.43-.32.64-.24.22.08.22.78-.43.91-.75 1.93-.33 1.02-1.19 1.94-1.98.1-2.63-1.1-.64-1.21-.37-2.77.1-.32.35-.83.24-.51.08-.67-.59.1-1.24.4-.64.29-1.34.78-2.79 1.34-2.88-.51-.08-1.86 2.34-3.04l1.5.22q2.26-.81 4.38-1.75t4.54-2.01q.43-.11.54-.3.11-.19-.32-.45-.86-.33-1.21-.7-.35-.38-.19-1.24.16-1.23-.4-1.5-.57-.27-1.43-1.08-.37-.48-.21-.96.16-.49.86-.75zm64.24 21.26l-.86.22q-.49.27-.92.43-.43.16-.91.54-.75.43-.72.88.02.46.61 1.16.75.59 1.45 1.04.7.46 1.02 1.32.16.22.33.19.16-.03.43-.3.64-1.12.53-2.12-.1-.99-.32-2.07 0-.43-.13-.86-.14-.43-.51-.43zm-8.6-13.96q.16-.32.38-.35.21-.03.48-.08.65.11 1.16.05.51-.05 1.1.06 1.34.75 2.09 2.31.75 1.55.7 2.74-.11 1.93-.3 3.65-.18 1.72-.34 3.54-.27 1.51.72 1.51t1.75-.97q.37-1.13.96-1.26.59-.14 1.51.08 1.5-.48 2.71.32 1.21.81 1.8 2.47.48 2.69.03 5.02-.46 2.34-2.18 5.29-.64 1.08-1.88.41-1.23-.67-1.45-1.69l-.75-2.26q-.16-.75-.43-.78-.27-.03-.86.14-1.72.42-3.3 1.18-1.59.75-3.36 1.5-1.29.22-2.31.54-1.02.32-2.31.96-1.24.06-2.04.19-.81.14-2.15.89-1.77.48-2.63-.08-.86-.57-1.24-2.5-.64-1.29-.51-1.8.14-.51.41-1.64.64-1.39 1.02-2.57.37-1.19.91-2.48.43-.75.64-1.12.22-.38.33-1.02.16-.54.4-.54.24 0 .56.11l1.08.32q.7.27 1.21.94.51.67.83 1.31.64 1.35.83 2.31.19.97-.08 2.42-.05.81.13 1.13.19.32 1.05.27 1.08-.11 2.02-.38t2.06-.7q.49-.43.43-.67-.05-.24-.43-.51-1.45-.75-1.96-1.64-.51-.88-1.15-2.23-.16-.43-.03-.56.14-.13.67-.08.38-.32.62-.64.24-.33.14-.76l.64-5.69q-.05-.97.11-1.85.16-.89.1-1.8-.37-.92-.4-1.59-.02-.67.51-1.42zm-18.69-3.01q.91-.54 2.12 0t1.53 1.94q.38 2.73-.08 5.15-.45 2.42-1.96 5.27-.7.75-1.31 1.61-.62.86-.62 1.72l2.9 3q1.4 2.21 1.05 4.68-.35 2.47-.73 4.88.27 1.4.27 2.47 0 1.08-.7 2.58-.8 1.45-2.25 1.51-1.45.05-2.37-1.51l-2.04-3.97.11-3.22q.97-1.78 1.21-2.9.24-1.13.19-2.8-.17-.43-.3-.53-.13-.11-.46.32-.75.75-1.31 1.42-.57.67-.94 1.48-.32.59-.78.56-.46-.03-.83-.13-2.42-1.02-2.8-2.39-.37-1.37-.75-3.31-.16-.37-.24-.75-.08-.37.35-.75 1.13-.59 1.77-1.91.65-1.31 1.24-2.39 1.39-2.36 2.57-4.48 1.19-2.12 2.15-4.54.59-1.02 1.27-1.58.67-.57 1.74-1.43z" data-gra="path-name"/></g></svg>
