<?xml version="1.0" standalone="no"?><!DOCTYPE svg PUBLIC "-//W3C//DTD SVG 1.1//EN" "http://www.w3.org/Graphics/SVG/1.1/DTD/svg11.dtd"><svg height="1024" node-id="1" sillyvg="true" template-height="1024" template-width="1024" version="1.1" viewBox="0 0 1024 1024" width="1024" xmlns="http://www.w3.org/2000/svg" xmlns:xlink="http://www.w3.org/1999/xlink"><defs node-id="81"><linearGradient gradientUnits="userSpaceOnUse" id="SVGID_1_" node-id="6" spreadMethod="pad" x1="511.2782" x2="511.2782" y1="666.8383" y2="982.5366"><stop offset="0" stop-color="#dee3f0"></stop><stop offset="0.03981841" stop-color="#e1e6f1" stop-opacity="0.9602"></stop><stop offset="0.3162" stop-color="#f2f4f9" stop-opacity="0.6838"></stop><stop offset="0.6198" stop-color="#fcfcfe" stop-opacity="0.3802"></stop><stop offset="1" stop-color="#ffffff" stop-opacity="0"></stop></linearGradient><linearGradient gradientUnits="userSpaceOnUse" id="SVGID_2_" node-id="22" spreadMethod="pad" x1="511.2782" x2="147.7642" y1="785.1588" y2="785.1588"><stop offset="0" stop-color="#bcc0cc"></stop><stop offset="0.2941" stop-color="#bfc3ce" stop-opacity="0.7028"></stop><stop offset="0.5142" stop-color="#c9ccd6" stop-opacity="0.4803"></stop><stop offset="0.7103" stop-color="#d9dbe2" stop-opacity="0.2822"></stop><stop offset="0.8912" stop-color="#eff0f3" stop-opacity="0.09924197"></stop><stop offset="0.9894" stop-color="#ffffff" stop-opacity="0"></stop></linearGradient><linearGradient gradientUnits="userSpaceOnUse" id="SVGID_3_" node-id="30" spreadMethod="pad" x1="231.2976" x2="511.2782" y1="560.5914" y2="560.5914"><stop offset="0" stop-color="#dce0e6"></stop><stop offset="1" stop-color="#dfe3eb"></stop></linearGradient><linearGradient gradientUnits="userSpaceOnUse" id="SVGID_4_" node-id="34" spreadMethod="pad" x1="511.2782" x2="231.2976" y1="647.082" y2="647.082"><stop offset="0" stop-color="#b3bdc9"></stop><stop offset="1" stop-color="#d7dae0"></stop></linearGradient><linearGradient gradientUnits="userSpaceOnUse" id="SVGID_5_" node-id="38" spreadMethod="pad" x1="316.9388" x2="409.5714" y1="624.6846" y2="464.2403"><stop offset="0" stop-color="#c1c8d1" stop-opacity="0"></stop><stop offset="1" stop-color="#8f99ab"></stop></linearGradient><linearGradient gradientUnits="userSpaceOnUse" id="SVGID_6_" node-id="42" spreadMethod="pad" x1="511.2782" x2="192.6482" y1="531.0737" y2="531.0737"><stop offset="0" stop-color="#c1c8d1"></stop><stop offset="1" stop-color="#dfe3ed"></stop></linearGradient><linearGradient gradientUnits="userSpaceOnUse" id="SVGID_7_" node-id="46" spreadMethod="pad" x1="791.2589" x2="511.2782" y1="560.3034" y2="560.3034"><stop offset="0" stop-color="#ccd3db"></stop><stop offset="1" stop-color="#d6dae3"></stop></linearGradient><linearGradient gradientUnits="userSpaceOnUse" id="SVGID_8_" node-id="50" spreadMethod="pad" x1="511.2782" x2="791.2589" y1="647.082" y2="647.082"><stop offset="0" stop-color="#dce0e6"></stop><stop offset="1" stop-color="#d3d8e3"></stop></linearGradient><linearGradient gradientUnits="userSpaceOnUse" id="SVGID_9_" node-id="54" spreadMethod="pad" x1="-1032.841" x2="-1122.8542" y1="615.8333" y2="459.9257"><stop offset="0" stop-color="#c1c8d1" stop-opacity="0"></stop><stop offset="1" stop-color="#c7cbd1"></stop></linearGradient><linearGradient gradientUnits="userSpaceOnUse" id="SVGID_10_" node-id="58" spreadMethod="pad" x1="-1228.1658" x2="-909.5359" y1="531.0737" y2="531.0737"><stop offset="0" stop-color="#e1e9f2"></stop><stop offset="1" stop-color="#dfe3ed"></stop></linearGradient><linearGradient gradientUnits="userSpaceOnUse" id="SVGID_11_" node-id="68" spreadMethod="pad" x1="712.3872" x2="809.4267" y1="342.301" y2="342.301"><stop offset="0" stop-color="#dde3eb"></stop><stop offset="1" stop-color="#b3b9c9"></stop></linearGradient><linearGradient gradientTransform="matrix(-0.8601 -0.5101 -0.5101 0.8601 1864.6521 511.2873)" gradientUnits="userSpaceOnUse" id="SVGID_12_" node-id="72" spreadMethod="pad" x1="1115.5446" x2="1174.6227" y1="405.8369" y2="405.8369"><stop offset="0" stop-color="#dde3eb"></stop><stop offset="1" stop-color="#b3b9c9"></stop></linearGradient><linearGradient gradientTransform="matrix(-0.4585 -0.8887 -0.8887 0.4585 1677.4978 1024.1194)" gradientUnits="userSpaceOnUse" id="SVGID_13_" node-id="76" spreadMethod="pad" x1="1126.5371" x2="1168.3282" y1="497.1751" y2="497.1751"><stop offset="0" stop-color="#dde3eb"></stop><stop offset="1" stop-color="#b3b9c9"></stop></linearGradient></defs><g node-id="247"><path d="M 987.20 824.70 C 987.20 866.55 937.06 906.69 847.81 936.28 C 758.56 965.87 637.52 982.50 511.30 982.50 C 385.08 982.50 264.04 965.87 174.79 936.28 C 85.54 906.69 35.40 866.55 35.40 824.70 C 35.40 782.85 85.54 742.71 174.79 713.12 C 264.04 683.53 385.08 666.90 511.30 666.90 C 637.52 666.90 758.56 683.53 847.81 713.12 C 937.06 742.71 987.20 782.85 987.20 824.70 Z" fill="url(#SVGID_1_)" fill-rule="nonzero" group-id="1" node-id="178" stroke="none" target-height="315.59998" target-width="951.8" target-x="35.4" target-y="666.9"></path><g node-id="252"><path d="M 191.00 678.70 C 191.00 702.60 171.70 721.90 147.80 721.90 C 123.90 721.90 104.60 702.60 104.60 678.70 C 104.60 654.80 123.90 607.00 147.80 607.00 C 171.70 607.00 191.00 654.80 191.00 678.70 Z" fill="#e6eaf0" fill-rule="nonzero" group-id="1,6" node-id="182" stroke="none" target-height="114.900024" target-width="86.4" target-x="104.6" target-y="607"></path><path d="M 167.50 672.80 C 166.10 672.10 164.50 672.70 163.80 674.10 L 150.50 701.00 L 150.50 650.20 C 150.50 648.70 149.30 647.40 147.70 647.40 C 146.20 647.40 144.90 648.60 144.90 650.20 L 144.90 676.20 L 130.80 662.00 C 129.70 660.90 128.00 660.90 126.90 662.00 C 125.80 663.10 125.80 664.80 126.90 665.90 L 144.00 683.00 C 144.30 683.30 144.60 683.30 145.00 683.40 L 145.00 758.60 C 145.00 760.10 146.20 761.40 147.80 761.40 C 149.30 761.40 150.60 760.20 150.60 758.60 L 150.60 713.40 L 168.80 676.50 C 169.40 675.10 168.90 673.50 167.50 672.80 Z" fill="#d0d6e0" fill-rule="nonzero" group-id="1,6" node-id="184" stroke="none" target-height="114" target-width="43.59999" target-x="125.8" target-y="647.4"></path></g><g node-id="253"><path d="M 880.00 683.90 C 880.00 703.40 864.20 719.20 844.70 719.20 C 825.20 719.20 809.40 703.40 809.40 683.90 C 809.40 664.40 825.20 625.30 844.70 625.30 C 864.20 625.40 880.00 664.40 880.00 683.90 Z" fill="#e6eaf0" fill-rule="nonzero" group-id="1,7" node-id="189" stroke="none" target-height="93.900024" target-width="70.599976" target-x="809.4" target-y="625.3"></path><path d="M 860.80 679.10 C 859.70 678.60 858.30 679.00 857.80 680.10 L 847.00 702.10 L 847.00 660.60 C 847.00 659.40 846.00 658.30 844.70 658.30 C 843.50 658.30 842.40 659.30 842.40 660.60 L 842.40 681.90 L 830.80 670.30 C 829.90 669.40 828.50 669.40 827.60 670.30 C 826.70 671.20 826.70 672.60 827.60 673.50 L 841.60 687.50 C 841.80 687.70 842.10 687.70 842.40 687.80 L 842.40 749.20 C 842.40 750.40 843.40 751.50 844.70 751.50 C 845.90 751.50 847.00 750.50 847.00 749.20 L 847.00 712.30 L 861.90 682.10 C 862.40 681.10 862.00 679.70 860.80 679.10 Z" fill="#d0d6e0" fill-rule="nonzero" group-id="1,7" node-id="191" stroke="none" target-height="93.20001" target-width="35.700012" target-x="826.7" target-y="658.3"></path></g><g node-id="254"><path d="M 926.80 770.10 C 926.80 784.60 915.00 796.40 900.50 796.40 C 886.00 796.40 874.20 784.60 874.20 770.10 C 874.20 755.60 886.00 726.40 900.50 726.40 C 915.00 726.40 926.80 755.50 926.80 770.10 Z" fill="#e6eaf0" fill-rule="nonzero" group-id="1,8" node-id="196" stroke="none" target-height="70" target-width="52.599976" target-x="874.2" target-y="726.4"></path><path d="M 912.50 766.50 C 911.70 766.10 910.70 766.40 910.20 767.30 L 902.10 783.70 L 902.10 752.70 C 902.10 751.80 901.30 751.00 900.40 751.00 C 899.50 751.00 898.70 751.80 898.70 752.70 L 898.70 768.60 L 890.00 759.90 C 889.30 759.20 888.30 759.20 887.60 759.90 C 886.90 760.60 886.90 761.60 887.60 762.30 L 898.00 772.70 C 898.20 772.90 898.40 772.90 898.60 772.90 L 898.60 818.70 C 898.60 819.60 899.40 820.40 900.30 820.40 C 901.20 820.40 902.00 819.60 902.00 818.70 L 902.00 791.10 L 913.10 768.60 C 913.60 767.90 913.30 766.90 912.50 766.50 Z" fill="#d0d6e0" fill-rule="nonzero" group-id="1,8" node-id="198" stroke="none" target-height="69.400024" target-width="26.699951" target-x="886.9" target-y="751"></path></g></g><path d="M 511.30 851.10 L 147.80 761.40 L 299.70 719.20 Z" fill="url(#SVGID_2_)" fill-rule="nonzero" node-id="202" stroke="none" target-height="131.89996" target-width="363.5" target-x="147.8" target-y="719.2"></path><path d="M 511.30 362.80 L 231.30 443.20 L 231.30 758.30 L 511.30 665.00 Z" fill="url(#SVGID_3_)" fill-rule="nonzero" node-id="204" stroke="none" target-height="395.5" target-width="280" target-x="231.3" target-y="362.8"></path><path d="M 231.30 443.10 L 511.30 522.60 L 511.30 851.10 L 231.30 758.70 Z" fill="url(#SVGID_4_)" fill-rule="nonzero" node-id="206" stroke="none" target-height="407.99997" target-width="280" target-x="231.3" target-y="443.1"></path><path d="M 231.30 443.40 L 511.30 523.00 L 484.30 664.40 L 231.30 575.20 Z" fill="url(#SVGID_5_)" fill-rule="nonzero" node-id="208" stroke="none" target-height="221.00003" target-width="280" target-x="231.3" target-y="443.4"></path><path d="M 231.30 443.40 L 511.30 523.00 L 469.00 618.70 L 192.60 531.10 Z" fill="url(#SVGID_6_)" fill-rule="nonzero" node-id="210" stroke="none" target-height="175.30002" target-width="318.69998" target-x="192.6" target-y="443.4"></path><path d="M 511.30 362.80 L 791.30 443.20 L 791.30 757.80 L 511.30 665.00 Z" fill="url(#SVGID_7_)" fill-rule="nonzero" node-id="212" stroke="none" target-height="395" target-width="280" target-x="511.3" target-y="362.8"></path><path d="M 791.30 443.10 L 511.30 522.60 L 511.30 851.10 L 791.30 758.70 Z" fill="url(#SVGID_8_)" fill-rule="nonzero" node-id="214" stroke="none" target-height="407.99997" target-width="280" target-x="511.3" target-y="443.1"></path><path d="M 791.30 443.40 L 511.30 523.00 L 550.80 651.60 L 791.30 569.20 Z" fill="url(#SVGID_9_)" fill-rule="nonzero" node-id="216" stroke="none" target-height="208.19998" target-width="280" target-x="511.3" target-y="443.4"></path><path d="M 791.30 443.40 L 511.30 523.00 L 553.50 618.70 L 829.90 531.10 Z" fill="url(#SVGID_10_)" fill-rule="nonzero" node-id="218" stroke="none" target-height="175.30002" target-width="318.60004" target-x="511.3" target-y="443.4"></path><path d="M 624.50 176.60 C 602.80 205.30 574.40 228.20 543.30 246.20 C 509.60 265.70 472.80 279.20 435.50 290.40 C 413.60 297.00 391.40 302.70 369.30 308.50 C 369.00 308.60 369.10 309.10 369.40 309.00 C 409.40 298.60 449.50 288.20 488.00 273.10 C 521.90 259.80 554.60 242.70 583.10 219.70 C 598.70 207.10 612.90 192.90 624.90 176.90 C 625.10 176.60 624.70 176.40 624.50 176.60 L 624.50 176.60 Z" fill="#d3dbeb" fill-rule="nonzero" group-id="2,9" node-id="224" stroke="none" target-height="132.70001" target-width="256.09998" target-x="369" target-y="176.4"></path><path d="M 632.70 224.70 C 611.60 249.10 588.30 271.40 562.90 291.30 C 555.40 297.20 547.80 302.80 539.90 308.30 C 539.60 308.50 539.90 308.90 540.20 308.70 C 566.90 290.10 591.70 268.90 614.30 245.50 C 620.70 238.80 626.90 232.00 633.00 225.00 C 633.30 224.90 632.90 224.50 632.70 224.70 L 632.70 224.70 Z" fill="#d3dbeb" fill-rule="nonzero" group-id="3,10" node-id="232" stroke="none" target-height="84.399994" target-width="93.70001" target-x="539.6" target-y="224.5"></path><path d="M 712.40 370.30 C 712.40 370.30 747.50 378.40 767.70 362.80 C 787.90 347.20 784.40 336.90 785.00 326.50 C 785.00 326.50 801.10 323.60 809.20 328.20 C 809.20 328.80 811.50 322.40 802.30 321.90 C 793.10 321.40 770.30 320.20 762.10 328.80 C 753.90 337.40 749.90 359.30 738.90 362.20 C 738.30 363.40 746.40 349.50 749.80 338.60 C 753.20 327.70 761.30 317.90 778.00 318.40 C 778.00 318.40 772.80 312.10 764.20 312.10 C 755.60 312.10 744.60 315.60 738.90 325.90 C 733.20 336.20 730.20 372.10 712.40 370.30 Z" fill="url(#SVGID_11_)" fill-rule="nonzero" node-id="236" stroke="none" target-height="66.29999" target-width="99.099976" target-x="712.4" target-y="312.1"></path><path d="M 689.40 306.10 C 689.40 306.10 668.50 299.40 662.80 285.00 C 657.10 270.60 662.10 266.20 665.00 260.60 C 665.00 260.60 657.40 254.10 651.80 254.00 C 651.60 254.30 652.40 250.30 657.40 252.80 C 662.40 255.40 674.70 261.80 676.30 268.90 C 677.90 276.00 673.20 288.70 678.10 293.60 C 678.00 294.40 678.10 284.60 679.70 277.80 C 681.30 271.00 680.10 263.40 671.20 258.50 C 671.20 258.50 675.90 256.80 680.40 259.50 C 684.90 262.20 689.60 267.40 689.40 274.60 C 689.10 281.80 679.50 301.40 689.40 306.10 Z" fill="url(#SVGID_12_)" fill-opacity="0.8" fill-rule="nonzero" group-id="4" node-id="240" stroke="none" target-height="55.800003" target-width="38" target-x="651.6" target-y="250.3"></path><path d="M 708.40 256.50 C 708.40 256.50 698.40 244.60 700.30 233.90 C 702.20 223.20 706.90 222.40 710.80 220.10 C 710.80 220.10 708.70 213.40 705.40 211.20 C 705.20 211.30 707.10 209.20 709.20 212.60 C 711.30 216.00 716.20 224.50 714.50 229.30 C 712.80 234.10 705.20 240.00 706.30 244.80 C 706.00 245.20 709.70 239.40 713.20 235.90 C 716.70 232.40 718.90 227.40 715.30 221.10 C 715.30 221.10 718.70 221.80 720.50 225.10 C 722.20 228.40 723.00 233.30 720.20 237.50 C 717.30 241.80 704.20 250.00 708.40 256.50 Z" fill="url(#SVGID_13_)" fill-opacity="0.8" fill-rule="nonzero" group-id="5" node-id="245" stroke="none" target-height="47.300003" target-width="24.599976" target-x="698.4" target-y="209.2"></path></svg>