<svg data-v-6805eed4="" version="1.0" xmlns="http://www.w3.org/2000/svg"
     xmlns:xlink="http://www.w3.org/1999/xlink" width="100%" height="100%"
     viewBox="0 0 160.000000 160.000000" preserveAspectRatio="xMidYMid meet"
     color-interpolation-filters="sRGB" style="margin: auto;">
  <g transform="translate(5,3)">
    <g fill="#000000" hollow-target="text">
      <g mask="url(#a280fbb9-f5a1-4e2f-9402-1f384a1681bc)">
        <g>
          <rect fill="#000000" fill-opacity="0" stroke-width="2" x="0" y="0"
                width="150" height="153.4746664483916"></rect>
          <svg x="0" y="0" width="150" height="153.4746664483916" style="overflow: visible;">
            <svg xmlns="http://www.w3.org/2000/svg"
                 viewBox="0 0 149.31044006347656 152.76939392089844">
              <path
                d="M80.76 121.88c0 9.52-.05 19.05 0 28.57 0 1.86-.56 2.4-2.36 2.31-2.6-.14-5.22-.13-7.83 0-1.63.07-2.11-.51-2.09-2.1.07-6.61 0-13.21 0-19.82 0-12.37 0-24.74-.07-37.1 0-2.16.65-2.81 2.74-2.68a62.49 62.49 0 0 0 7.37 0c1.74-.09 2.22.54 2.21 2.24-.07 9.52 0 19 0 28.58z"
                fill="#2a78b4"></path>
              <path
                d="M98 46h26.54c1.65 0 2.36.37 2.27 2.17-.14 2.69-.1 5.38 0 8.07 0 1.42-.29 2.06-1.9 2.06q-27.23-.08-54.46 0c-1.51 0-2-.53-2-2 .09-2.69.13-5.38 0-8.07-.08-1.8.7-2.2 2.32-2.19C79.81 46 88.89 46 98 46z"
                fill="#ea5e37"></path>
              <path
                d="M45.06 108.72V93.06c0-1.49.38-2.08 1.93-2 3.15.1 6.3.1 9.45 0 1.41 0 1.84.47 1.84 1.87q-.09 16 0 32c0 1.42-.47 1.88-1.87 1.85q-4.61-.12-9.21 0c-1.63 0-2.12-.62-2.1-2.19.07-5.3 0-10.6 0-15.9z"
                fill="#2a78b4"></path>
              <path
                d="M104.24 86.35v15.68c0 1.67-.41 2.32-2.2 2.22-3-.16-6-.11-9 0-1.47 0-2.06-.38-2-1.92q.07-16 0-32.06c0-1.29.42-1.77 1.73-1.75 3.15.06 6.31.08 9.45 0 1.7-.06 2.08.69 2.06 2.21-.07 5.22 0 10.45 0 15.68z"
                fill="#3db04e"></path>
              <path
                d="M62.88 81.66H46.97c-1.39 0-1.91-.37-1.87-1.82.1-3.23.1-6.46 0-9.68 0-1.36.53-1.69 1.78-1.68h32.06c1.4 0 1.88.44 1.85 1.85-.09 3.15-.11 6.31 0 9.46.07 1.64-.65 1.89-2 1.88-5.3-.05-10.61-.02-15.91-.01z"
                fill="#8f2c8c"></path>
              <path
                d="M58.26 40.65c0 5.15-.06 10.31 0 15.46 0 1.57-.4 2.21-2 2.15-3.07-.1-6.15-.07-9.22 0-1.33 0-1.92-.3-1.91-1.8q.09-15.91 0-31.84c0-1.64.5-2.13 2.11-2.06 2.92.12 5.85.11 8.77 0 1.63-.06 2.32.36 2.28 2.17-.12 5.31-.05 10.61-.05 15.92z"
                fill="#2a78b4"></path>
              <path
                d="M22.59 86.36c0-5.23.05-10.46 0-15.68 0-1.55.34-2.2 2-2.14 3.15.13 6.3.08 9.45 0 1.19 0 1.63.34 1.62 1.56v32.51c0 1-.2 1.57-1.4 1.54-3.38-.07-6.77-.08-10.15 0-1.51 0-1.54-.8-1.53-1.9.02-5.25.01-10.59.01-15.89z"
                fill="#303e8f"></path>
              <path
                d="M131.37 81.5c-5.15 0-10.31-.07-15.46 0-1.82 0-2.21-.75-2.17-2.33.07-2.85.08-5.69 0-8.54 0-1.47.42-2 2-2h31.83c1.11 0 1.76.28 1.74 1.53-.06 3.15-.1 6.3-.1 9.44 0 1.48-.6 2-2.1 2-5.22-.08-10.45 0-15.68 0z"
                fill="#ea5e37"></path>
              <path
                d="M80.73 18v15.67c0 1.61-.5 2.16-2.11 2.1-2.68-.11-5.38-.09-8.06 0-1.44 0-2-.35-2-1.93.06-10.67 0-21.35 0-32C68.54.45 69 0 70.3 0c2.84.05 5.69.08 8.53 0 1.54 0 2 .59 1.94 2.05-.07 5.3 0 10.6 0 15.9z"
                fill="#2a78b4"></path>
              <path
                d="M13.07 75.69c-.13 1.54.88 4.19-.37 5.51s-3.93.34-6 .44c-1.68.07-3.38 0-5.07 0C.45 81.72 0 81.29 0 80.09q.08-5 0-9.92c0-1.13.28-1.7 1.55-1.68q4.95.09 9.92 0c1.2 0 1.65.4 1.61 1.6-.08 1.7-.01 3.39-.01 5.6z"
                fill="#8f2c8c"></path>
              <path
                d="M126.78 98.06c-.26 1.72.94 4.41-.53 5.79s-4 .31-6 .39c-1.68.06-3.37 0-5.06 0-1.23.06-1.6-.46-1.59-1.62v-9.89c0-1.27.43-1.78 1.73-1.76 3.3.06 6.6 0 9.9 0 1.17 0 1.66.42 1.62 1.62-.12 1.71-.07 3.41-.07 5.47z"
                fill="#3db04e"></path>
              <path
                d="M97.22 35.62c-1.71-.17-4.38.88-5.66-.39s-.32-3.94-.41-6c-.07-1.61.09-3.24-.05-4.84s.49-1.81 1.84-1.78c3.16.08 6.31.1 9.46 0 1.5-.06 1.83.58 1.8 1.89-.07 3.15-.12 6.31 0 9.46 0 1.36-.48 1.74-1.74 1.68-1.67-.08-3.28-.02-5.24-.02z"
                fill="#303e8f"></path>
              <path
                d="M91 120.16v-2.07c0-4.55 0-4.55 4.65-4.55 2.22 0 4.45.06 6.67 0 1.33 0 2 .3 1.93 1.79-.09 3.22-.07 6.44 0 9.66 0 1.46-.6 1.84-1.93 1.81-3.22-.06-6.44-.08-9.66 0-1.35 0-1.74-.52-1.68-1.77.07-1.64.02-3.25.02-4.87z"
                fill="#ea5e37"></path>
              <path
                d="M29.39 46.17c2 0 4.61-.77 5.79.2 1.42 1.17.45 3.9.48 6 .07 5.92 0 5.92-6 5.92h-5.77c-1 0-1.37-.36-1.35-1.36v-9.45c0-1.13.48-1.47 1.53-1.44h5.3z"
                fill="#8f2c8c"></path>
            </svg>
          </svg> <!----></g>
      </g>
      <g transform="translate(29.25857162475586,53.37447738647461)">
        <g fill-rule="" fill="url(#b3bc7ba8-1376-41ab-bae6-d03df9b76c11)">
          <g transform="scale(1)">
            <g>
              <path
                d="M5.65-39.67L5.65-39.67Q5.65-40.5 5.87-40.88 6.09-41.26 6.41-41.42 6.73-41.58 7.14-41.61 7.55-41.64 7.93-41.64L7.93-41.64Q10.22-41.51 12.63-41.45 15.04-41.39 18.09-41.45 21.14-41.51 25.01-41.61 28.88-41.7 34.02-41.83L34.02-41.83Q34.91-41.83 35.42-41.99 35.93-42.15 36.28-42.31 36.63-42.47 37.01-42.62 37.39-42.78 38.09-42.78L38.09-42.78Q38.78-42.78 39.55-42.15 40.31-41.51 40.97-40.53 41.64-39.55 42.15-38.28 42.66-37.01 42.85-35.74L42.85-35.74Q41.39-34.15 39.17-31.71 36.94-29.26 34.37-26.31 31.8-23.36 29.04-20.19 26.28-17.01 23.71-14.03 21.14-11.04 18.95-8.51 16.76-5.97 15.36-4.32L15.36-4.32Q19.04-4.32 22.15-4.32 25.26-4.32 27.87-4.35 30.47-4.38 32.66-4.41 34.85-4.44 36.82-4.44L36.82-4.44Q37.58-4.44 38.12-4.48 38.66-4.51 39.07-4.54 39.48-4.57 39.9-4.6 40.31-4.63 40.88-4.63L40.88-4.63Q41.83-4.63 42.56-3.87 43.29-3.11 44.18-1.78L44.18-1.78Q45.2 0.44 43.96 1.71 42.72 2.98 39.61 2.73L39.61 2.73Q32.5 2.22 25.36 1.97 18.22 1.71 10.73 2.29L10.73 2.29Q9.52 2.41 8.92 2.7 8.32 2.98 7.55 3.05L7.55 3.05Q6.86 2.79 6.03 2.09 5.21 1.4 4.51 0.51 3.81-0.38 3.33-1.3 2.86-2.22 2.86-2.98L2.86-2.98Q2.86-4.06 3.81-4.44 4.76-4.82 5.59-4.63L5.59-4.63Q7.74-6.47 10.57-9.52 13.39-12.57 16.41-16.03 19.42-19.49 22.38-23.04 25.33-26.6 27.71-29.45 30.09-32.31 31.61-34.15 33.13-35.99 33.39-36.05L33.39-36.05Q32.25-36.05 29.87-35.96 27.49-35.86 24.47-35.67 21.46-35.48 18.06-35.29 14.66-35.1 11.55-34.91L11.55-34.91 11.36-34.91Q10.16-34.91 9.36-35.1 8.57-35.29 7.93-35.8 7.3-36.31 6.79-37.23 6.28-38.15 5.65-39.67ZM85.44-43.29L85.44-43.29Q86.52-43.35 87.5-42.78 88.49-42.21 89.25-41.35 90.01-40.5 90.49-39.51 90.96-38.53 90.96-37.83L90.96-37.83Q90.96-37.32 90.58-36.75 90.2-36.18 88.99-34.91L88.99-34.91Q87.34-33.26 84.42-29.83 81.5-26.41 77.12-21.01L77.12-21.01Q78.65-19.17 80.11-17.49 81.57-15.81 83.03-14.22 84.49-12.63 86.01-11.08 87.53-9.52 89.25-7.93L89.25-7.93Q90.2-6.98 91.18-6.22 92.17-5.46 92.99-4.57L92.99-4.57Q93.18-4.38 93.56-4 93.95-3.62 94.17-3.08 94.39-2.54 94.33-1.81 94.26-1.08 93.69-0.13L93.69-0.13Q93.63-0.06 93.18 0.48 92.74 1.02 92.04 1.65 91.34 2.29 90.49 2.79 89.63 3.3 88.87 3.3L88.87 3.3Q88.04 2.98 87.31 2.32 86.58 1.65 86.07 0.89L86.07 0.89Q83.22-2.92 79.92-7.17 76.62-11.43 72.81-16.19L72.81-16.19Q70.08-12.76 68.14-10.31 66.21-7.87 64.68-6 63.16-4.13 61.92-2.6 60.68-1.08 59.41 0.51L59.41 0.51Q59.03 0.95 58.56 1.46 58.08 1.97 57.57 2.41 57.07 2.86 56.59 3.14 56.11 3.43 55.8 3.43L55.8 3.43Q54.78 3.43 53.83 2.73 52.88 2.03 52.21 0.98 51.54-0.06 51.32-1.33 51.1-2.6 51.54-3.75L51.54-3.75Q51.8-4.19 52.46-4.57 53.13-4.95 54.21-5.65L54.21-5.65Q55.67-6.67 57.7-8.66 59.73-10.66 61.83-12.92 63.92-15.17 65.79-17.33 67.67-19.49 68.94-20.82L68.94-20.82Q68.17-21.77 66.49-23.9 64.81-26.03 62.91-28.41 61-30.79 59.29-32.91 57.57-35.04 56.81-35.93L56.81-35.93Q55.92-36.88 55.26-37.42 54.59-37.96 54.11-38.37 53.64-38.78 53.38-39.26 53.13-39.74 53.13-40.56L53.13-40.56Q53.13-41.64 55.22-42.66L55.22-42.66Q56.56-43.04 57.73-42.91 58.91-42.78 59.89-42.37 60.87-41.96 61.6-41.35 62.33-40.75 62.65-40.18L62.65-40.18Q63.41-38.91 64.33-37.58 65.25-36.25 66.46-34.59 67.67-32.94 69.28-30.75 70.9-28.56 73.13-25.58L73.13-25.58Q75.35-28.63 77.09-30.98 78.84-33.33 80.14-35.2 81.44-37.07 82.39-38.5 83.34-39.93 83.98-41.2L83.98-41.2Q84.36-41.96 84.68-42.47 85-42.97 85.44-43.29Z"
                transform="translate(-2.8600001335144043, 43.29571533203125)"></path>
            </g>
          </g>
        </g>
      </g>
    </g>
  </g>
  <mask id="a280fbb9-f5a1-4e2f-9402-1f384a1681bc">
    <g fill="white">
      <g>
        <rect fill-opacity="1" stroke-width="2" x="0" y="0" width="150"
              height="153.4746664483916"></rect>
        <svg x="0" y="0" width="150" height="153.4746664483916"
             style="overflow: visible;">
          <svg xmlns="http://www.w3.org/2000/svg"
               viewBox="0 0 149.31044006347656 152.76939392089844">
            <path
              d="M80.76 121.88c0 9.52-.05 19.05 0 28.57 0 1.86-.56 2.4-2.36 2.31-2.6-.14-5.22-.13-7.83 0-1.63.07-2.11-.51-2.09-2.1.07-6.61 0-13.21 0-19.82 0-12.37 0-24.74-.07-37.1 0-2.16.65-2.81 2.74-2.68a62.49 62.49 0 0 0 7.37 0c1.74-.09 2.22.54 2.21 2.24-.07 9.52 0 19 0 28.58z"></path>
            <path
              d="M98 46h26.54c1.65 0 2.36.37 2.27 2.17-.14 2.69-.1 5.38 0 8.07 0 1.42-.29 2.06-1.9 2.06q-27.23-.08-54.46 0c-1.51 0-2-.53-2-2 .09-2.69.13-5.38 0-8.07-.08-1.8.7-2.2 2.32-2.19C79.81 46 88.89 46 98 46z"></path>
            <path
              d="M45.06 108.72V93.06c0-1.49.38-2.08 1.93-2 3.15.1 6.3.1 9.45 0 1.41 0 1.84.47 1.84 1.87q-.09 16 0 32c0 1.42-.47 1.88-1.87 1.85q-4.61-.12-9.21 0c-1.63 0-2.12-.62-2.1-2.19.07-5.3 0-10.6 0-15.9z"></path>
            <path
              d="M104.24 86.35v15.68c0 1.67-.41 2.32-2.2 2.22-3-.16-6-.11-9 0-1.47 0-2.06-.38-2-1.92q.07-16 0-32.06c0-1.29.42-1.77 1.73-1.75 3.15.06 6.31.08 9.45 0 1.7-.06 2.08.69 2.06 2.21-.07 5.22 0 10.45 0 15.68z"></path>
            <path
              d="M62.88 81.66H46.97c-1.39 0-1.91-.37-1.87-1.82.1-3.23.1-6.46 0-9.68 0-1.36.53-1.69 1.78-1.68h32.06c1.4 0 1.88.44 1.85 1.85-.09 3.15-.11 6.31 0 9.46.07 1.64-.65 1.89-2 1.88-5.3-.05-10.61-.02-15.91-.01z"></path>
            <path
              d="M58.26 40.65c0 5.15-.06 10.31 0 15.46 0 1.57-.4 2.21-2 2.15-3.07-.1-6.15-.07-9.22 0-1.33 0-1.92-.3-1.91-1.8q.09-15.91 0-31.84c0-1.64.5-2.13 2.11-2.06 2.92.12 5.85.11 8.77 0 1.63-.06 2.32.36 2.28 2.17-.12 5.31-.05 10.61-.05 15.92z"></path>
            <path
              d="M22.59 86.36c0-5.23.05-10.46 0-15.68 0-1.55.34-2.2 2-2.14 3.15.13 6.3.08 9.45 0 1.19 0 1.63.34 1.62 1.56v32.51c0 1-.2 1.57-1.4 1.54-3.38-.07-6.77-.08-10.15 0-1.51 0-1.54-.8-1.53-1.9.02-5.25.01-10.59.01-15.89z"></path>
            <path
              d="M131.37 81.5c-5.15 0-10.31-.07-15.46 0-1.82 0-2.21-.75-2.17-2.33.07-2.85.08-5.69 0-8.54 0-1.47.42-2 2-2h31.83c1.11 0 1.76.28 1.74 1.53-.06 3.15-.1 6.3-.1 9.44 0 1.48-.6 2-2.1 2-5.22-.08-10.45 0-15.68 0z"></path>
            <path
              d="M80.73 18v15.67c0 1.61-.5 2.16-2.11 2.1-2.68-.11-5.38-.09-8.06 0-1.44 0-2-.35-2-1.93.06-10.67 0-21.35 0-32C68.54.45 69 0 70.3 0c2.84.05 5.69.08 8.53 0 1.54 0 2 .59 1.94 2.05-.07 5.3 0 10.6 0 15.9z"></path>
            <path
              d="M13.07 75.69c-.13 1.54.88 4.19-.37 5.51s-3.93.34-6 .44c-1.68.07-3.38 0-5.07 0C.45 81.72 0 81.29 0 80.09q.08-5 0-9.92c0-1.13.28-1.7 1.55-1.68q4.95.09 9.92 0c1.2 0 1.65.4 1.61 1.6-.08 1.7-.01 3.39-.01 5.6z"></path>
            <path
              d="M126.78 98.06c-.26 1.72.94 4.41-.53 5.79s-4 .31-6 .39c-1.68.06-3.37 0-5.06 0-1.23.06-1.6-.46-1.59-1.62v-9.89c0-1.27.43-1.78 1.73-1.76 3.3.06 6.6 0 9.9 0 1.17 0 1.66.42 1.62 1.62-.12 1.71-.07 3.41-.07 5.47z"></path>
            <path
              d="M97.22 35.62c-1.71-.17-4.38.88-5.66-.39s-.32-3.94-.41-6c-.07-1.61.09-3.24-.05-4.84s.49-1.81 1.84-1.78c3.16.08 6.31.1 9.46 0 1.5-.06 1.83.58 1.8 1.89-.07 3.15-.12 6.31 0 9.46 0 1.36-.48 1.74-1.74 1.68-1.67-.08-3.28-.02-5.24-.02z"></path>
            <path
              d="M91 120.16v-2.07c0-4.55 0-4.55 4.65-4.55 2.22 0 4.45.06 6.67 0 1.33 0 2 .3 1.93 1.79-.09 3.22-.07 6.44 0 9.66 0 1.46-.6 1.84-1.93 1.81-3.22-.06-6.44-.08-9.66 0-1.35 0-1.74-.52-1.68-1.77.07-1.64.02-3.25.02-4.87z"></path>
            <path
              d="M29.39 46.17c2 0 4.61-.77 5.79.2 1.42 1.17.45 3.9.48 6 .07 5.92 0 5.92-6 5.92h-5.77c-1 0-1.37-.36-1.35-1.36v-9.45c0-1.13.48-1.47 1.53-1.44h5.3z"></path>
          </svg>
        </svg>
      </g>
    </g>
    <g transform="translate(29.25857162475586,53.37447738647461)" fill="black"
       stroke="black" stroke-width="6" stroke-linejoin="round">
      <g fill-rule="">
        <g transform="scale(1)">
          <g>
            <path
              d="M5.65-39.67L5.65-39.67Q5.65-40.5 5.87-40.88 6.09-41.26 6.41-41.42 6.73-41.58 7.14-41.61 7.55-41.64 7.93-41.64L7.93-41.64Q10.22-41.51 12.63-41.45 15.04-41.39 18.09-41.45 21.14-41.51 25.01-41.61 28.88-41.7 34.02-41.83L34.02-41.83Q34.91-41.83 35.42-41.99 35.93-42.15 36.28-42.31 36.63-42.47 37.01-42.62 37.39-42.78 38.09-42.78L38.09-42.78Q38.78-42.78 39.55-42.15 40.31-41.51 40.97-40.53 41.64-39.55 42.15-38.28 42.66-37.01 42.85-35.74L42.85-35.74Q41.39-34.15 39.17-31.71 36.94-29.26 34.37-26.31 31.8-23.36 29.04-20.19 26.28-17.01 23.71-14.03 21.14-11.04 18.95-8.51 16.76-5.97 15.36-4.32L15.36-4.32Q19.04-4.32 22.15-4.32 25.26-4.32 27.87-4.35 30.47-4.38 32.66-4.41 34.85-4.44 36.82-4.44L36.82-4.44Q37.58-4.44 38.12-4.48 38.66-4.51 39.07-4.54 39.48-4.57 39.9-4.6 40.31-4.63 40.88-4.63L40.88-4.63Q41.83-4.63 42.56-3.87 43.29-3.11 44.18-1.78L44.18-1.78Q45.2 0.44 43.96 1.71 42.72 2.98 39.61 2.73L39.61 2.73Q32.5 2.22 25.36 1.97 18.22 1.71 10.73 2.29L10.73 2.29Q9.52 2.41 8.92 2.7 8.32 2.98 7.55 3.05L7.55 3.05Q6.86 2.79 6.03 2.09 5.21 1.4 4.51 0.51 3.81-0.38 3.33-1.3 2.86-2.22 2.86-2.98L2.86-2.98Q2.86-4.06 3.81-4.44 4.76-4.82 5.59-4.63L5.59-4.63Q7.74-6.47 10.57-9.52 13.39-12.57 16.41-16.03 19.42-19.49 22.38-23.04 25.33-26.6 27.71-29.45 30.09-32.31 31.61-34.15 33.13-35.99 33.39-36.05L33.39-36.05Q32.25-36.05 29.87-35.96 27.49-35.86 24.47-35.67 21.46-35.48 18.06-35.29 14.66-35.1 11.55-34.91L11.55-34.91 11.36-34.91Q10.16-34.91 9.36-35.1 8.57-35.29 7.93-35.8 7.3-36.31 6.79-37.23 6.28-38.15 5.65-39.67ZM85.44-43.29L85.44-43.29Q86.52-43.35 87.5-42.78 88.49-42.21 89.25-41.35 90.01-40.5 90.49-39.51 90.96-38.53 90.96-37.83L90.96-37.83Q90.96-37.32 90.58-36.75 90.2-36.18 88.99-34.91L88.99-34.91Q87.34-33.26 84.42-29.83 81.5-26.41 77.12-21.01L77.12-21.01Q78.65-19.17 80.11-17.49 81.57-15.81 83.03-14.22 84.49-12.63 86.01-11.08 87.53-9.52 89.25-7.93L89.25-7.93Q90.2-6.98 91.18-6.22 92.17-5.46 92.99-4.57L92.99-4.57Q93.18-4.38 93.56-4 93.95-3.62 94.17-3.08 94.39-2.54 94.33-1.81 94.26-1.08 93.69-0.13L93.69-0.13Q93.63-0.06 93.18 0.48 92.74 1.02 92.04 1.65 91.34 2.29 90.49 2.79 89.63 3.3 88.87 3.3L88.87 3.3Q88.04 2.98 87.31 2.32 86.58 1.65 86.07 0.89L86.07 0.89Q83.22-2.92 79.92-7.17 76.62-11.43 72.81-16.19L72.81-16.19Q70.08-12.76 68.14-10.31 66.21-7.87 64.68-6 63.16-4.13 61.92-2.6 60.68-1.08 59.41 0.51L59.41 0.51Q59.03 0.95 58.56 1.46 58.08 1.97 57.57 2.41 57.07 2.86 56.59 3.14 56.11 3.43 55.8 3.43L55.8 3.43Q54.78 3.43 53.83 2.73 52.88 2.03 52.21 0.98 51.54-0.06 51.32-1.33 51.1-2.6 51.54-3.75L51.54-3.75Q51.8-4.19 52.46-4.57 53.13-4.95 54.21-5.65L54.21-5.65Q55.67-6.67 57.7-8.66 59.73-10.66 61.83-12.92 63.92-15.17 65.79-17.33 67.67-19.49 68.94-20.82L68.94-20.82Q68.17-21.77 66.49-23.9 64.81-26.03 62.91-28.41 61-30.79 59.29-32.91 57.57-35.04 56.81-35.93L56.81-35.93Q55.92-36.88 55.26-37.42 54.59-37.96 54.11-38.37 53.64-38.78 53.38-39.26 53.13-39.74 53.13-40.56L53.13-40.56Q53.13-41.64 55.22-42.66L55.22-42.66Q56.56-43.04 57.73-42.91 58.91-42.78 59.89-42.37 60.87-41.96 61.6-41.35 62.33-40.75 62.65-40.18L62.65-40.18Q63.41-38.91 64.33-37.58 65.25-36.25 66.46-34.59 67.67-32.94 69.28-30.75 70.9-28.56 73.13-25.58L73.13-25.58Q75.35-28.63 77.09-30.98 78.84-33.33 80.14-35.2 81.44-37.07 82.39-38.5 83.34-39.93 83.98-41.2L83.98-41.2Q84.36-41.96 84.68-42.47 85-42.97 85.44-43.29Z"
              transform="translate(-2.8600001335144043, 43.29571533203125)"></path>
          </g>
        </g>
      </g>
    </g>
  </mask>
  <defs>
    <linearGradient x1="0" y1="1" x2="0" y2="0"
                    id="b3bc7ba8-1376-41ab-bae6-d03df9b76c11">
      <stop offset="0%" stop-color="#00bcb4"></stop>
      <stop offset="100%" stop-color="#c4e86b"></stop>
    </linearGradient>
  </defs>
</svg>
