<svg  xmlns="http://www.w3.org/2000/svg" xmlns:xlink="http://www.w3.org/1999/xlink" width="859" height="300" viewBox="0 0 883 324"><path transform="translate(0 100)" d="M43.75,-80.4688Q49.6094,-82.0312 55.4688,-75.7812Q55.4688,-75 54.6875,-74.2188Q52.7344,-69.1406 52.7344,-57.4219Q66.4062,-58.5938 73.4375,-60.9375Q74.6094,-61.7188 75.3906,-61.7188Q83.9844,-57.8125 87.1094,-54.2969Q87.1094,-53.5156 85.1562,-51.5625Q79.6875,-46.0938 75.7812,-38.2812Q78.5156,-35.5469 77.3438,-33.2031Q76.5625,-32.4219 72.2656,-32.4219Q67.5781,-32.4219 51.9531,-31.6406Q51.9531,-7.8125 51.1719,2.34375Q49.2188,13.2812 47.2656,12.5Q45.7031,9.76562 45.7031,0.78125Q45.7031,-7.03125 46.0938,-20.7031Q46.0938,-26.9531 46.4844,-31.25L29.6875,-29.6875Q29.2969,-23.0469 26.9531,-24.6094Q24.2188,-26.5625 23.8281,-33.5938Q22.6562,-46.875 17.9688,-53.125Q16.7969,-54.6875 17.1875,-55.4688Q18.3594,-57.4219 27.3438,-54.2969L46.875,-56.25Q46.4844,-57.8125 46.4844,-60.5469Q46.4844,-63.2812 46.4844,-66.4062Q46.0938,-73.0469 43.75,-77.7344Q42.5781,-79.2969 43.75,-80.4688ZM72.6562,-54.6875Q69.9219,-56.25 52.3438,-54.2969L51.9531,-35.1562Q69.1406,-36.7188 69.5312,-38.6719Q74.2188,-47.6562 72.6562,-54.6875ZM46.875,-53.5156L27.7344,-51.1719L29.2969,-32.8125L46.4844,-34.375L46.875,-53.5156Z"></path><path transform="translate(100 100)" d="M40.2344,-73.0469Q35.9375,-76.1719 40.2344,-76.5625Q48.0469,-75.7812 53.5156,-73.0469Q57.0312,-70.3125 56.25,-66.7969Q54.2969,-62.8906 50.7812,-64.8438Q44.9219,-67.9688 40.2344,-73.0469ZM70.3125,-61.3281Q76.9531,-61.3281 79.6875,-57.8125Q80.8594,-55.0781 74.2188,-54.6875Q61.7188,-53.5156 51.1719,-51.5625Q57.4219,-49.6094 57.4219,-46.4844Q57.0312,-45.7031 56.6406,-44.9219Q55.0781,-42.9688 54.2969,-39.0625Q51.9531,-29.2969 49.2188,-23.4375Q65.625,-8.59375 91.7969,-4.6875Q98.4375,-2.73438 93.3594,-1.17188Q80.0781,-0 73.8281,-0Q67.5781,-0 66.0156,-1.17188Q53.5156,-11.7188 46.4844,-19.5312Q32.0312,-4.6875 10.5469,-6.25Q7.8125,-6.25 7.8125,-6.64062Q7.8125,-7.42188 10.5469,-8.20312Q33.9844,-12.5 42.5781,-23.8281Q35.9375,-30.8594 28.9062,-37.8906Q27.7344,-38.2812 26.1719,-39.0625Q23.4375,-40.2344 24.2188,-41.4062Q25.7812,-43.3594 32.0312,-41.7969Q32.8125,-41.4062 34.7656,-38.6719Q39.0625,-32.8125 44.9219,-27.7344Q49.6094,-41.0156 48.0469,-51.1719Q35.9375,-48.8281 30.8594,-47.6562Q24.6094,-46.0938 22.6562,-46.4844Q12.8906,-49.6094 18.3594,-50.7812Q33.2031,-51.1719 60.1562,-58.5938Q67.9688,-60.9375 70.3125,-61.3281Z"></path><path transform="translate(200 100)" d="M69.9219,-72.2656Q72.2656,-73.0469 77.7344,-69.5312Q82.8125,-66.4062 81.6406,-64.8438Q79.6875,-62.5 79.6875,-55.8594Q79.6875,-49.6094 80.4688,-36.7188Q80.4688,-30.8594 80.8594,-26.9531Q81.6406,-12.1094 81.6406,-8.20312Q80.8594,-0 74.6094,4.6875Q73.0469,5.07812 71.4844,1.95312Q68.3594,-2.34375 64.8438,-5.85938Q62.5,-7.8125 62.8906,-8.59375Q63.2812,-9.375 66.4062,-8.20312Q71.4844,-6.25 73.0469,-7.42188Q76.5625,-11.3281 75.3906,-37.8906Q74.2188,-72.2656 67.1875,-66.4062Q66.4062,-66.4062 66.0156,-66.7969Q55.8594,-66.7969 24.2188,-61.7188Q24.2188,-54.2969 23.4375,-36.3281Q22.6562,-23.4375 22.6562,-11.7188Q21.875,-0 19.5312,0.390625Q15.625,-0 15.625,-9.76562Q15.625,-9.76562 15.625,-10.1562Q18.75,-21.875 19.5312,-44.1406Q20.3125,-58.5938 18.3594,-63.2812Q16.4062,-66.7969 19.1406,-66.7969Q19.5312,-66.7969 19.9219,-66.7969Q21.4844,-66.0156 24.6094,-65.625Q49.6094,-67.1875 69.9219,-72.2656ZM61.3281,-58.5938Q67.9688,-55.4688 66.7969,-53.5156Q65.2344,-50.7812 63.2812,-44.5312Q61.7188,-39.0625 61.3281,-37.8906Q66.0156,-32.8125 68.3594,-29.6875Q70.7031,-25 69.5312,-20.7031Q67.9688,-17.5781 65.2344,-22.2656Q64.4531,-23.0469 63.6719,-24.6094Q61.7188,-29.2969 59.375,-33.5938Q53.125,-20.3125 47.6562,-16.7969Q44.9219,-14.8438 44.1406,-15.2344Q43.75,-16.0156 45.7031,-18.3594Q51.9531,-26.5625 56.25,-36.7188Q51.5625,-43.3594 49.2188,-45.7031Q47.6562,-47.2656 48.0469,-48.0469Q48.8281,-48.4375 50.3906,-47.2656Q54.2969,-43.75 57.8125,-40.625Q60.9375,-50.7812 59.375,-56.25Q58.5938,-58.5938 61.3281,-58.5938ZM42.5781,-56.25Q47.6562,-53.5156 46.875,-51.9531Q46.0938,-50 44.5312,-46.4844Q42.5781,-40.625 41.0156,-37.1094Q42.9688,-34.375 46.0938,-29.6875Q47.6562,-26.1719 45.3125,-23.0469Q43.75,-21.0938 42.1875,-25.3906Q40.2344,-30.0781 38.6719,-32.0312Q33.2031,-20.7031 29.2969,-17.1875Q25.7812,-13.6719 25,-14.4531Q24.6094,-14.8438 27.7344,-18.75Q30.4688,-22.6562 36.3281,-35.9375Q33.2031,-41.0156 31.25,-44.1406Q29.2969,-46.875 28.9062,-48.4375Q27.7344,-49.6094 28.125,-50Q28.9062,-50.3906 30.0781,-49.6094Q30.4688,-48.8281 31.6406,-47.2656Q34.7656,-43.75 37.8906,-40.2344Q41.4062,-48.0469 40.625,-53.9062Q39.8438,-55.0781 40.625,-55.8594Q41.0156,-56.6406 42.5781,-56.25Z"></path><path transform="translate(300 100)" d="M44.9219,-80.0781Q51.9531,-80.8594 55.8594,-76.5625Q57.4219,-67.9688 52.3438,-69.5312Q47.2656,-72.6562 44.5312,-76.5625Q42.5781,-79.2969 44.9219,-80.0781ZM73.4375,-69.9219Q76.1719,-70.3125 82.8125,-65.2344Q88.2812,-60.9375 85.9375,-59.7656Q84.7656,-58.9844 82.4219,-58.5938Q78.125,-57.8125 74.6094,-56.25Q71.0938,-54.6875 70.7031,-55.0781Q69.9219,-55.4688 71.875,-58.2031Q74.6094,-63.2812 73.0469,-64.8438Q67.5781,-65.2344 28.5156,-58.2031Q26.1719,-49.2188 22.6562,-46.875Q19.9219,-44.9219 18.75,-45.7031Q17.1875,-46.875 17.9688,-50.3906Q17.9688,-50.3906 18.75,-52.3438Q23.8281,-61.3281 23.8281,-64.0625Q23.8281,-67.1875 25.3906,-66.4062Q26.5625,-66.0156 28.9062,-61.7188Q66.7969,-67.5781 73.4375,-69.9219ZM56.25,-54.2969Q58.2031,-55.0781 62.8906,-51.9531Q67.5781,-48.0469 66.4062,-46.875Q61.7188,-44.9219 53.125,-36.7188Q55.0781,-34.375 55.8594,-32.0312Q61.7188,-32.8125 68.3594,-33.5938Q78.125,-35.5469 81.6406,-35.5469Q92.9688,-32.8125 91.0156,-28.9062Q88.6719,-27.3438 83.2031,-28.125Q71.4844,-29.2969 57.0312,-28.5156Q59.375,-17.5781 58.5938,-5.46875Q57.0312,6.64062 51.1719,9.76562Q49.6094,10.1562 46.875,7.03125Q43.75,3.125 41.7969,1.95312Q37.8906,-0 37.8906,-0.390625Q37.5,-1.17188 41.0156,-0.78125Q41.0156,-0.78125 42.1875,-0.390625Q46.4844,-0 49.2188,-0.78125Q51.9531,-1.5625 52.7344,-9.76562Q53.5156,-21.0938 51.9531,-28.125Q24.2188,-23.4375 19.9219,-21.875Q17.9688,-21.4844 17.5781,-21.4844Q15.2344,-21.0938 11.3281,-23.8281Q8.59375,-26.1719 10.9375,-26.5625Q24.2188,-27.3438 51.1719,-31.25Q50,-35.1562 46.875,-37.1094Q44.1406,-38.6719 46.0938,-39.0625Q48.0469,-39.4531 51.1719,-37.8906Q57.8125,-48.4375 56.25,-50Q54.2969,-50.3906 37.5,-43.3594Q35.9375,-42.9688 32.8125,-45.7031Q30.0781,-48.0469 32.0312,-48.4375Q44.9219,-48.8281 56.25,-54.2969Z"></path><path transform="translate(400 100)" d="M59.375,-78.5156Q67.1875,-76.5625 67.9688,-73.4375Q66.4062,-69.5312 66.4062,-46.0938Q72.6562,-46.875 76.1719,-47.6562Q81.25,-48.8281 83.5938,-49.2188Q92.1875,-47.2656 91.4062,-43.3594Q90.625,-42.5781 85.1562,-42.5781Q79.2969,-42.5781 66.4062,-41.7969Q66.4062,-45.7031 66.4062,-2.34375Q66.0156,7.8125 63.6719,10.5469Q60.9375,10.1562 60.9375,-5.07812Q60.9375,-47.6562 60.9375,-41.0156Q51.9531,-39.0625 46.875,-37.5Q45.7031,-37.1094 45.7031,-37.1094Q35.9375,-39.0625 39.4531,-41.0156Q47.2656,-41.7969 60.9375,-44.9219Q60.5469,-58.5938 59.7656,-66.0156Q58.5938,-73.4375 57.4219,-75.7812Q55.8594,-76.9531 56.25,-77.7344Q56.6406,-78.5156 59.375,-78.5156ZM23.8281,-73.4375Q30.4688,-73.0469 34.375,-70.3125Q36.7188,-66.0156 35.9375,-61.3281Q34.7656,-58.5938 31.6406,-61.7188Q17.5781,-73.8281 23.8281,-73.4375ZM25.3906,-50.7812Q32.4219,-51.1719 33.9844,-46.4844Q29.2969,-43.75 28.9062,-39.8438Q28.125,-37.5 28.125,-18.75Q32.8125,-21.0938 39.0625,-24.2188Q43.75,-26.5625 44.1406,-26.1719Q44.5312,-25 40.2344,-21.875Q25,-10.9375 22.2656,-4.29688Q18.75,-4.6875 17.9688,-12.8906Q21.875,-14.4531 23.0469,-20.7031Q24.2188,-25.3906 23.8281,-42.9688Q20.3125,-42.1875 12.8906,-37.5Q5.85938,-37.1094 5.07812,-42.5781Q19.1406,-42.1875 25.3906,-50.7812Z"></path><path transform="translate(500 100)" d="M75,-77.3438Q83.9844,-73.4375 83.5938,-70.7031Q82.0312,-67.9688 81.6406,-63.2812Q81.25,-58.5938 82.0312,-51.9531Q82.0312,-47.2656 82.4219,-32.0312Q83.2031,-10.1562 83.5938,-5.07812Q82.4219,3.125 77.7344,7.03125Q76.5625,7.42188 74.2188,3.51562Q71.0938,-0.78125 68.75,-3.51562Q65.625,-6.64062 68.75,-5.85938Q69.1406,-5.85938 69.5312,-5.85938Q69.9219,-5.46875 70.7031,-5.07812Q75.3906,-3.51562 76.5625,-4.29688Q76.9531,-4.29688 76.9531,-10.1562Q77.3438,-13.6719 77.3438,-34.375Q77.3438,-45.3125 76.9531,-50.7812Q76.9531,-57.0312 76.5625,-61.7188Q75.3906,-71.0938 73.4375,-74.2188Q71.4844,-76.5625 71.875,-77.3438Q72.2656,-78.125 75,-77.3438ZM28.125,-66.7969Q27.3438,-64.0625 27.7344,-57.8125Q28.5156,-51.1719 29.6875,-46.0938Q31.6406,-46.875 33.5938,-48.0469Q38.6719,-50.7812 40.2344,-51.1719Q48.0469,-52.3438 46.875,-49.2188Q44.9219,-46.4844 30.4688,-41.4062Q31.6406,-33.9844 35.1562,-26.1719Q42.1875,-33.5938 42.1875,-38.6719Q42.1875,-40.625 42.9688,-40.625Q44.1406,-40.625 45.7031,-39.4531Q49.2188,-34.375 48.0469,-32.8125Q47.6562,-32.4219 45.7031,-30.4688Q42.1875,-26.5625 37.5,-21.875Q43.3594,-11.3281 48.8281,-8.20312Q50.7812,-7.8125 53.125,-12.1094Q54.6875,-15.2344 55.4688,-14.8438Q55.8594,-14.4531 55.4688,-10.9375Q54.2969,-7.03125 54.6875,-1.95312Q55.4688,1.95312 52.7344,1.17188Q42.5781,-1.95312 33.9844,-18.75Q24.6094,-9.375 13.6719,-5.07812Q8.20312,-3.125 7.8125,-3.51562Q7.42188,-4.29688 12.1094,-7.42188Q22.2656,-12.8906 32.0312,-22.6562Q29.6875,-27.3438 27.3438,-36.7188Q26.5625,-39.4531 26.5625,-39.8438Q19.1406,-36.3281 14.8438,-35.1562Q6.25,-35.5469 8.98438,-37.8906Q9.76562,-38.2812 16.7969,-40.625Q24.6094,-43.75 25.3906,-44.1406Q24.2188,-48.0469 23.4375,-51.5625Q20.3125,-67.5781 18.3594,-69.1406Q16.4062,-70.3125 16.7969,-71.4844Q17.5781,-72.2656 19.9219,-71.875Q27.7344,-69.9219 28.125,-66.7969ZM36.7188,-65.625Q41.7969,-65.625 44.5312,-64.0625Q46.875,-62.1094 46.4844,-57.8125Q45.7031,-54.6875 42.9688,-57.0312Q31.6406,-65.625 36.7188,-65.625ZM58.2031,-58.5938Q63.6719,-56.25 64.0625,-54.2969Q62.8906,-50.7812 63.2812,-47.6562Q63.2812,-39.4531 63.2812,-31.25Q62.5,-23.8281 60.9375,-22.6562Q59.375,-21.875 58.2031,-27.7344Q57.8125,-28.5156 58.2031,-32.8125Q58.5938,-37.8906 58.5938,-41.0156Q58.2031,-47.2656 57.8125,-51.1719Q57.4219,-55.0781 56.6406,-56.25Q55.0781,-57.8125 55.4688,-58.2031Q56.25,-58.9844 58.2031,-58.5938Z"></path><path transform="translate(0 200)" d="M37.8906,-58.5938L37.8906,-8.98438Q37.1094,-1.5625 45.7031,-1.95312L49.2188,-1.95312L49.2188,-0L17.9688,-0L17.9688,-1.95312L21.4844,-1.95312Q30.0781,-1.5625 29.6875,-8.98438L29.6875,-58.5938L12.1094,-58.5938Q6.25,-58.9844 5.07812,-47.2656L3.125,-47.2656L4.6875,-63.6719L6.64062,-63.6719Q6.64062,-62.8906 7.8125,-62.5Q8.20312,-61.7188 9.76562,-62.1094L57.8125,-62.1094Q60.1562,-62.1094 60.9375,-63.6719L62.8906,-63.6719L64.4531,-47.2656L62.8906,-47.2656Q60.5469,-59.375 55.4688,-58.5938L37.8906,-58.5938Z"></path><path transform="translate(68 200)" d="M16.0156,-31.6406L16.0156,-7.8125Q15.2344,-1.17188 22.2656,-1.95312L22.2656,-0L2.34375,-0L2.34375,-1.95312Q9.375,-1.5625 8.98438,-9.375L8.98438,-57.4219Q8.98438,-60.1562 6.64062,-60.5469L2.34375,-61.3281L2.34375,-63.2812L14.4531,-67.1875L16.0156,-67.1875L16.0156,-34.375Q25.7812,-40.625 32.4219,-40.625Q43.3594,-40.625 43.3594,-25.7812Q43.3594,-16.4062 42.9688,-12.8906Q42.9688,-8.59375 42.9688,-5.46875Q42.5781,-1.5625 50.7812,-1.95312L50.7812,-0L28.9062,-0L28.9062,-1.95312Q32.8125,-1.5625 34.375,-3.51562Q35.5469,-4.29688 35.9375,-8.59375Q36.7188,-12.5 36.7188,-24.2188Q36.3281,-35.9375 27.7344,-36.3281Q23.0469,-36.3281 16.0156,-31.6406Z"></path><path transform="translate(120 200)" d="M40.625,-25.3906L11.3281,-25.3906Q10.5469,-22.6562 10.9375,-21.0938Q11.7188,-5.07812 26.1719,-3.90625Q32.8125,-3.51562 39.0625,-10.1562L39.8438,-8.98438Q31.25,-0 21.875,0.390625Q5.46875,-0.390625 4.6875,-19.1406Q6.25,-39.0625 23.8281,-40.625Q33.5938,-40.625 37.8906,-31.25Q39.4531,-28.5156 40.625,-27.7344L40.625,-25.3906ZM11.3281,-28.125L32.0312,-28.125Q29.6875,-37.8906 22.2656,-38.6719Q14.4531,-38.6719 11.3281,-28.125Z"></path><path transform="translate(163 200)" d=""></path><path transform="translate(191 200)" d="M19.9219,-26.9531L19.9219,-9.375Q19.1406,-1.17188 28.125,-1.95312L31.25,-1.95312L31.25,-0L3.51562,-0L3.51562,-1.95312L5.07812,-1.95312Q11.7188,-1.17188 11.3281,-7.42188L11.3281,-55.0781Q11.3281,-60.1562 7.03125,-60.1562L1.95312,-60.1562L1.95312,-62.1094Q3.90625,-61.7188 12.5,-62.5Q13.6719,-62.5 14.4531,-62.8906Q17.1875,-62.8906 22.2656,-62.8906Q25.7812,-63.2812 26.9531,-63.2812Q51.5625,-62.8906 52.7344,-45.3125Q51.5625,-26.5625 28.5156,-26.1719Q23.8281,-26.1719 19.9219,-26.9531ZM19.9219,-60.5469L19.9219,-28.9062Q22.2656,-28.125 25.3906,-28.125Q42.1875,-28.9062 43.3594,-45.7031Q43.3594,-60.9375 26.9531,-60.9375Q22.2656,-60.9375 19.9219,-60.5469Z"></path><path transform="translate(247 200)" d="M16.0156,-26.5625L16.0156,-7.03125Q15.2344,-1.5625 22.2656,-1.95312L26.1719,-1.95312L26.1719,-0L2.73438,-0L2.73438,-1.95312Q8.98438,-1.17188 8.98438,-9.375L8.98438,-32.4219L2.73438,-34.7656L2.73438,-36.3281L14.0625,-40.625L16.0156,-40.625L16.0156,-30.0781Q22.2656,-41.4062 25.7812,-40.2344Q26.5625,-40.2344 27.7344,-39.4531Q28.125,-39.0625 28.9062,-39.0625Q30.4688,-38.2812 33.9844,-37.8906L31.6406,-31.6406Q29.6875,-31.6406 26.5625,-33.2031Q24.6094,-33.5938 23.0469,-33.9844Q20.3125,-33.9844 19.1406,-31.6406Q18.3594,-30.8594 17.5781,-29.2969Q16.4062,-27.7344 16.0156,-26.5625Z"></path><path transform="translate(280 200)" d="M4.29688,-19.5312Q5.46875,-38.6719 26.1719,-40.625Q45.7031,-39.0625 47.2656,-19.5312Q45.7031,-0.390625 26.5625,0.390625Q5.85938,-0.390625 4.29688,-19.5312ZM11.7188,-22.6562Q12.8906,-2.73438 27.3438,-1.17188Q39.0625,-2.73438 40.2344,-17.1875Q38.6719,-35.9375 24.6094,-38.2812Q12.8906,-36.3281 11.7188,-22.6562Z"></path><path transform="translate(332 200)" d="M16.7969,-41.0156L16.7969,1.17188Q16.0156,20.7031 0.390625,22.2656Q-8.20312,21.4844 -9.375,17.1875Q-8.98438,12.8906 -6.64062,12.8906Q-5.07812,12.8906 -1.95312,15.2344Q1.17188,18.75 3.51562,18.75Q9.76562,18.75 9.76562,7.8125L9.76562,-30.0781Q10.1562,-33.9844 6.64062,-33.9844L2.34375,-34.7656L2.34375,-36.3281L15.2344,-41.0156L16.7969,-41.0156ZM8.20312,-59.7656Q8.20312,-63.2812 12.5,-63.6719Q16.0156,-62.8906 16.7969,-59.7656Q16.0156,-56.25 12.5,-55.8594Q8.20312,-55.8594 8.20312,-59.7656Z"></path><path transform="translate(357 200)" d="M40.625,-25.3906L11.3281,-25.3906Q10.5469,-22.6562 10.9375,-21.0938Q11.7188,-5.07812 26.1719,-3.90625Q32.8125,-3.51562 39.0625,-10.1562L39.8438,-8.98438Q31.25,-0 21.875,0.390625Q5.46875,-0.390625 4.6875,-19.1406Q6.25,-39.0625 23.8281,-40.625Q33.5938,-40.625 37.8906,-31.25Q39.4531,-28.5156 40.625,-27.7344L40.625,-25.3906ZM11.3281,-28.125L32.0312,-28.125Q29.6875,-37.8906 22.2656,-38.6719Q14.4531,-38.6719 11.3281,-28.125Z"></path><path transform="translate(400 200)" d="M37.5,-9.76562L39.0625,-8.98438Q32.8125,0.390625 21.0938,0.390625Q5.85938,-0 4.6875,-17.9688Q6.25,-38.6719 27.7344,-40.625Q37.8906,-39.8438 38.6719,-34.7656Q38.2812,-32.0312 35.5469,-32.0312Q33.2031,-32.0312 30.0781,-34.7656Q26.5625,-38.2812 23.8281,-38.2812Q12.1094,-35.9375 10.9375,-20.3125Q11.7188,-3.90625 25.3906,-2.73438Q32.0312,-2.73438 37.5,-9.76562Z"></path><path transform="translate(443 200)" d="M14.0625,-39.4531L28.5156,-39.4531L26.9531,-35.1562L14.0625,-35.1562L14.0625,-11.7188Q14.0625,-4.29688 20.7031,-3.51562Q23.8281,-3.51562 26.9531,-8.20312L28.5156,-7.03125Q24.6094,-0 17.5781,0.390625Q7.8125,-0 7.42188,-10.1562L7.42188,-35.1562L2.73438,-35.1562L2.73438,-36.7188Q8.59375,-39.4531 12.5,-49.2188L14.0625,-49.2188L14.0625,-39.4531Z"></path><path transform="translate(472 200)" d=""></path><path transform="translate(500 200)" d="M47.2656,-41.4062L47.2656,-23.8281L45.7031,-23.8281Q45.3125,-31.6406 38.6719,-31.25L19.9219,-31.25L19.9219,-9.375Q18.75,-1.17188 28.9062,-1.95312L28.9062,-0L4.29688,-0L4.29688,-1.95312Q12.5,-0.78125 11.7188,-11.3281L11.7188,-50.7812Q12.5,-60.5469 4.29688,-60.1562L4.29688,-62.1094L48.8281,-62.1094L48.8281,-50.3906L47.2656,-50.3906Q47.6562,-58.9844 39.0625,-58.5938L19.9219,-58.5938L19.9219,-34.7656L39.8438,-34.7656Q44.9219,-34.7656 45.7031,-41.4062L47.2656,-41.4062Z"></path><path transform="translate(553 200)" d="M4.29688,-19.5312Q5.46875,-38.6719 26.1719,-40.625Q45.7031,-39.0625 47.2656,-19.5312Q45.7031,-0.390625 26.5625,0.390625Q5.85938,-0.390625 4.29688,-19.5312ZM11.7188,-22.6562Q12.8906,-2.73438 27.3438,-1.17188Q39.0625,-2.73438 40.2344,-17.1875Q38.6719,-35.9375 24.6094,-38.2812Q12.8906,-36.3281 11.7188,-22.6562Z"></path><path transform="translate(605 200)" d="M16.0156,-26.5625L16.0156,-7.03125Q15.2344,-1.5625 22.2656,-1.95312L26.1719,-1.95312L26.1719,-0L2.73438,-0L2.73438,-1.95312Q8.98438,-1.17188 8.98438,-9.375L8.98438,-32.4219L2.73438,-34.7656L2.73438,-36.3281L14.0625,-40.625L16.0156,-40.625L16.0156,-30.0781Q22.2656,-41.4062 25.7812,-40.2344Q26.5625,-40.2344 27.7344,-39.4531Q28.125,-39.0625 28.9062,-39.0625Q30.4688,-38.2812 33.9844,-37.8906L31.6406,-31.6406Q29.6875,-31.6406 26.5625,-33.2031Q24.6094,-33.5938 23.0469,-33.9844Q20.3125,-33.9844 19.1406,-31.6406Q18.3594,-30.8594 17.5781,-29.2969Q16.4062,-27.7344 16.0156,-26.5625Z"></path><path transform="translate(638 200)" d=""></path><path transform="translate(666 200)" d="M68.75,0.78125L64.0625,0.78125L50.7812,-29.2969L38.2812,0.78125L33.2031,0.78125L12.5,-51.5625Q8.98438,-60.9375 0.78125,-60.1562L0,-60.1562L0,-62.1094L26.1719,-62.1094L26.1719,-60.1562L24.2188,-60.1562Q16.4062,-59.7656 19.5312,-53.9062L37.8906,-8.20312L48.4375,-34.7656L40.2344,-54.6875Q37.8906,-60.5469 30.0781,-60.1562L30.0781,-62.1094L71.0938,-62.1094L71.0938,-60.1562Q62.8906,-60.1562 60.9375,-55.0781L54.6875,-39.4531L67.9688,-8.20312L85.5469,-54.6875Q88.2812,-59.7656 78.5156,-60.1562L78.5156,-62.1094L99.2188,-62.1094L99.2188,-60.1562Q91.4062,-61.3281 88.6719,-51.1719L68.75,0.78125ZM52.3438,-44.9219L57.0312,-55.8594Q58.2031,-60.1562 54.2969,-60.1562L50.3906,-60.1562Q45.7031,-59.7656 47.2656,-56.6406L52.3438,-44.9219Z"></path><path transform="translate(766 200)" d="M40.625,-25.3906L11.3281,-25.3906Q10.5469,-22.6562 10.9375,-21.0938Q11.7188,-5.07812 26.1719,-3.90625Q32.8125,-3.51562 39.0625,-10.1562L39.8438,-8.98438Q31.25,-0 21.875,0.390625Q5.46875,-0.390625 4.6875,-19.1406Q6.25,-39.0625 23.8281,-40.625Q33.5938,-40.625 37.8906,-31.25Q39.4531,-28.5156 40.625,-27.7344L40.625,-25.3906ZM11.3281,-28.125L32.0312,-28.125Q29.6875,-37.8906 22.2656,-38.6719Q14.4531,-38.6719 11.3281,-28.125Z"></path><path transform="translate(809 200)" d="M14.0625,-67.1875L14.0625,-33.5938Q23.8281,-40.625 29.2969,-40.625Q44.1406,-38.6719 45.7031,-21.0938Q43.75,-0.78125 22.2656,0.390625Q18.75,0.390625 12.5,-0Q9.375,-0.390625 7.42188,-0.78125L7.42188,-54.6875Q7.8125,-60.9375 3.51562,-60.9375L0.78125,-61.3281L0.78125,-63.2812L12.5,-67.1875L14.0625,-67.1875ZM14.0625,-31.25L14.0625,-12.1094Q14.8438,-1.95312 25,-1.5625Q37.8906,-2.34375 39.0625,-18.3594Q37.8906,-34.375 25.3906,-35.9375Q20.7031,-35.9375 14.0625,-31.25Z"></path></svg>