<svg  xmlns="http://www.w3.org/2000/svg" xmlns:xlink="http://www.w3.org/1999/xlink" width="1140" height="300" viewBox="0 0 1164 324"><path transform="translate(0 100)" d="M3.3,-0L14.7,-72L56.7,-72L45.3,-0L3.3,-0ZM11.1,-5L41.1,-5L50,-61.1L11.1,-5ZM48.9,-67L18.9,-67L10,-10.9L48.9,-67Z"></path><path transform="translate(60 100)" d="M3.3,-0L14.7,-72L56.7,-72L45.3,-0L3.3,-0ZM11.1,-5L41.1,-5L50,-61.1L11.1,-5ZM48.9,-67L18.9,-67L10,-10.9L48.9,-67Z"></path><path transform="translate(120 100)" d="M3.3,-0L14.7,-72L56.7,-72L45.3,-0L3.3,-0ZM11.1,-5L41.1,-5L50,-61.1L11.1,-5ZM48.9,-67L18.9,-67L10,-10.9L48.9,-67Z"></path><path transform="translate(180 100)" d="M3.3,-0L14.7,-72L56.7,-72L45.3,-0L3.3,-0ZM11.1,-5L41.1,-5L50,-61.1L11.1,-5ZM48.9,-67L18.9,-67L10,-10.9L48.9,-67Z"></path><path transform="translate(240 100)" d="M3.3,-0L14.7,-72L56.7,-72L45.3,-0L3.3,-0ZM11.1,-5L41.1,-5L50,-61.1L11.1,-5ZM48.9,-67L18.9,-67L10,-10.9L48.9,-67Z"></path><path transform="translate(300 100)" d="M3.3,-0L14.7,-72L56.7,-72L45.3,-0L3.3,-0ZM11.1,-5L41.1,-5L50,-61.1L11.1,-5ZM48.9,-67L18.9,-67L10,-10.9L48.9,-67Z"></path><path transform="translate(0 200)" d="M10.6,-72L62.2,-72L60.7,-62.1L40.4,-62.1L30.6,-0L19.4,-0L29.3,-62.1L9,-62.1L10.6,-72Z"></path><path transform="translate(60 200)" d="M2.9,-0L14.3,-72L25.3,-72L22.6,-55Q22.4,-53.6 22,-51.95Q21.6,-50.3 21.25,-48.85Q20.9,-47.4 20.7,-46.45Q20.5,-45.5 20.5,-45.5L21.4,-45.5Q23.2,-50.5 27.5,-53.25Q31.8,-56 37.8,-56Q41.9,-56 45,-54.55Q48.1,-53.1 50.05,-50.5Q52,-47.9 52.75,-44.25Q53.5,-40.6 52.8,-36.2L47,-0L36.1,-0L41.6,-34.7Q42.4,-40.3 40,-43.45Q37.6,-46.6 32.5,-46.6Q27.3,-46.6 23.75,-43.3Q20.2,-40 19.3,-34.3L13.9,-0L2.9,-0Z"></path><path transform="translate(120 200)" d="M24.8,1Q19.6,1 15.6,-0.5Q11.6,-2 9.05,-4.8Q6.5,-7.6 5.5,-11.5Q4.5,-15.4 5.3,-20.3L7.6,-34.7Q8.4,-39.6 10.6,-43.55Q12.8,-47.5 16.25,-50.25Q19.7,-53 24.15,-54.5Q28.6,-56 33.9,-56Q39.1,-56 43.05,-54.5Q47,-53 49.55,-50.2Q52.1,-47.4 53.15,-43.45Q54.2,-39.5 53.4,-34.7L51.8,-24.6L16.7,-24.6L16.1,-20.7Q15.2,-14.7 17.9,-11.35Q20.6,-8 26.3,-8Q30.5,-8 33.8,-9.4Q37.1,-10.8 38.9,-13.3L49.6,-13.3Q48.2,-10.1 45.75,-7.45Q43.3,-4.8 40.1,-2.95Q36.9,-1.1 33,-0.05Q29.1,1 24.8,1ZM42.3,-32.5L42.7,-34.7Q43.8,-40.5 41,-43.75Q38.2,-47 32.4,-47Q26.7,-47 23.1,-43.75Q19.5,-40.5 18.4,-34.7L18,-32.5L42.3,-32.5Z"></path><path transform="translate(180 200)" d=""></path><path transform="translate(240 200)" d="M14.5,-72L39.1,-72Q44.3,-72 48.3,-70.45Q52.3,-68.9 54.9,-66.1Q57.5,-63.3 58.5,-59.3Q59.5,-55.3 58.7,-50.5Q57.9,-45.6 55.65,-41.6Q53.4,-37.6 50,-34.8Q46.6,-32 42.1,-30.5Q37.6,-29 32.3,-29L18.7,-29L14.1,-0L3.1,-0L14.5,-72ZM20.2,-38.5L33.8,-38.5Q39.1,-38.5 42.9,-41.8Q46.7,-45.1 47.5,-50.5Q48.3,-55.9 45.65,-59.2Q43,-62.5 37.6,-62.5L24,-62.5L20.2,-38.5Z"></path><path transform="translate(300 200)" d="M5.2,-0L13.9,-55L24.2,-55L22.7,-45.5L23.5,-45.5Q25.4,-50.5 29.9,-53.25Q34.4,-56 40.5,-56Q49.3,-56 53.3,-50.45Q57.3,-44.9 55.9,-35.4L55.3,-31.5L44.1,-31.5L44.6,-34.3Q45.7,-40.1 43,-43.4Q40.3,-46.7 34.9,-46.7Q29.7,-46.7 26.15,-43.45Q22.6,-40.2 21.6,-34.7L16.1,-0L5.2,-0Z"></path><path transform="translate(360 200)" d="M24.8,1Q19.6,1 15.6,-0.5Q11.6,-2 9.05,-4.85Q6.5,-7.7 5.5,-11.7Q4.5,-15.7 5.3,-20.7L7.5,-34.4Q8.3,-39.4 10.5,-43.4Q12.7,-47.4 16.15,-50.2Q19.6,-53 24.1,-54.5Q28.6,-56 33.9,-56Q39.2,-56 43.15,-54.5Q47.1,-53 49.65,-50.2Q52.2,-47.4 53.2,-43.4Q54.2,-39.4 53.4,-34.4L51.3,-20.7Q49.6,-10.6 42.6,-4.8Q35.6,1 24.8,1ZM16.2,-20.7Q15.3,-15.1 18,-11.9Q20.7,-8.7 26.4,-8.7Q32,-8.7 35.75,-11.85Q39.5,-15 40.4,-20.7L42.5,-34.4Q43.3,-40 40.6,-43.2Q37.9,-46.4 32.3,-46.4Q26.8,-46.4 23.05,-43.15Q19.3,-39.9 18.4,-34.4L16.2,-20.7Z"></path><path transform="translate(420 200)" d="M0.6,17L2.3,6.8L15.9,6.8Q21.3,6.8 25.05,3.6Q28.8,0.4 29.6,-4.8L36,-44.9L13.4,-44.9L15.1,-55L48.5,-55L40.6,-4.8Q39.9,-0 37.6,4.05Q35.3,8.1 31.9,10.95Q28.5,13.8 24.1,15.4Q19.7,17 14.7,17L0.6,17ZM42.4,-63.8Q39.3,-63.8 37.7,-65.45Q36.1,-67.1 36.6,-70Q37.1,-72.9 39.25,-74.7Q41.4,-76.5 44.5,-76.5L46.8,-76.5Q49.9,-76.5 51.5,-74.75Q53.1,-73 52.6,-70.1Q52.1,-67.2 50,-65.5Q47.9,-63.8 44.7,-63.8L42.4,-63.8Z"></path><path transform="translate(480 200)" d="M24.8,1Q19.6,1 15.6,-0.5Q11.6,-2 9.05,-4.8Q6.5,-7.6 5.5,-11.5Q4.5,-15.4 5.3,-20.3L7.6,-34.7Q8.4,-39.6 10.6,-43.55Q12.8,-47.5 16.25,-50.25Q19.7,-53 24.15,-54.5Q28.6,-56 33.9,-56Q39.1,-56 43.05,-54.5Q47,-53 49.55,-50.2Q52.1,-47.4 53.15,-43.45Q54.2,-39.5 53.4,-34.7L51.8,-24.6L16.7,-24.6L16.1,-20.7Q15.2,-14.7 17.9,-11.35Q20.6,-8 26.3,-8Q30.5,-8 33.8,-9.4Q37.1,-10.8 38.9,-13.3L49.6,-13.3Q48.2,-10.1 45.75,-7.45Q43.3,-4.8 40.1,-2.95Q36.9,-1.1 33,-0.05Q29.1,1 24.8,1ZM42.3,-32.5L42.7,-34.7Q43.8,-40.5 41,-43.75Q38.2,-47 32.4,-47Q26.7,-47 23.1,-43.75Q19.5,-40.5 18.4,-34.7L18,-32.5L42.3,-32.5Z"></path><path transform="translate(540 200)" d="M25.6,1Q20.5,1 16.5,-0.55Q12.5,-2.1 9.95,-4.9Q7.4,-7.7 6.4,-11.65Q5.4,-15.6 6.1,-20.5L8.3,-34.5Q9.9,-44.6 16.9,-50.3Q23.9,-56 34.6,-56Q39.1,-56 42.8,-54.6Q46.5,-53.2 49.2,-50.7Q51.9,-48.2 53.35,-44.7Q54.8,-41.2 54.8,-37L43.8,-37Q43.8,-41.2 40.85,-43.8Q37.9,-46.4 33.1,-46.4Q27.4,-46.4 23.7,-43.25Q20,-40.1 19.2,-34.5L16.9,-20.5Q16.1,-15 18.8,-11.85Q21.5,-8.7 27.1,-8.7Q32.2,-8.7 35.8,-11.15Q39.4,-13.6 40.8,-18L51.8,-18Q49.1,-8.9 42.2,-3.95Q35.3,1 25.6,1Z"></path><path transform="translate(600 200)" d="M8.9,-55L24.4,-55L27.1,-72L38.1,-72L35.4,-55L56.5,-55L55,-45.1L33.8,-45.1L29.2,-15.8Q28.7,-13.1 30.1,-11.55Q31.5,-10 34.4,-10L48.4,-10L46.8,-0L32.3,-0Q24.6,-0 20.85,-4.3Q17.1,-8.6 18.2,-15.8L22.8,-45.1L7.3,-45.1L8.9,-55Z"></path><path transform="translate(660 200)" d=""></path><path transform="translate(720 200)" d="M15.2,-72.1L59.4,-72.1L57.8,-62.1L24.3,-62.1L21,-41.5L52,-41.5L50.4,-31.5L19.6,-31.5L14.7,-0L3.8,-0L15.2,-72.1Z"></path><path transform="translate(780 200)" d="M24.8,1Q19.6,1 15.6,-0.5Q11.6,-2 9.05,-4.85Q6.5,-7.7 5.5,-11.7Q4.5,-15.7 5.3,-20.7L7.5,-34.4Q8.3,-39.4 10.5,-43.4Q12.7,-47.4 16.15,-50.2Q19.6,-53 24.1,-54.5Q28.6,-56 33.9,-56Q39.2,-56 43.15,-54.5Q47.1,-53 49.65,-50.2Q52.2,-47.4 53.2,-43.4Q54.2,-39.4 53.4,-34.4L51.3,-20.7Q49.6,-10.6 42.6,-4.8Q35.6,1 24.8,1ZM16.2,-20.7Q15.3,-15.1 18,-11.9Q20.7,-8.7 26.4,-8.7Q32,-8.7 35.75,-11.85Q39.5,-15 40.4,-20.7L42.5,-34.4Q43.3,-40 40.6,-43.2Q37.9,-46.4 32.3,-46.4Q26.8,-46.4 23.05,-43.15Q19.3,-39.9 18.4,-34.4L16.2,-20.7Z"></path><path transform="translate(840 200)" d="M5.2,-0L13.9,-55L24.2,-55L22.7,-45.5L23.5,-45.5Q25.4,-50.5 29.9,-53.25Q34.4,-56 40.5,-56Q49.3,-56 53.3,-50.45Q57.3,-44.9 55.9,-35.4L55.3,-31.5L44.1,-31.5L44.6,-34.3Q45.7,-40.1 43,-43.4Q40.3,-46.7 34.9,-46.7Q29.7,-46.7 26.15,-43.45Q22.6,-40.2 21.6,-34.7L16.1,-0L5.2,-0Z"></path><path transform="translate(900 200)" d=""></path><path transform="translate(960 200)" d="M8.4,-72L18.2,-72L14.5,-21Q14.3,-19 14,-16.55Q13.7,-14.1 13.4,-12Q13.1,-9.5 12.7,-7L14,-7Q14.5,-9.5 15,-12Q15.5,-14.1 16.05,-16.55Q16.6,-19 17.2,-21L31.6,-72L41.3,-72L39.3,-21Q39.2,-19 39.05,-16.6Q38.9,-14.2 38.7,-12Q38.5,-9.5 38.2,-7L39.5,-7Q40,-9.5 40.5,-12Q41,-14.1 41.5,-16.55Q42,-19 42.5,-21L54.8,-72L64.3,-72L45.7,-0L32,-0L34.3,-51.1Q34.5,-53.7 34.75,-56.15Q35,-58.6 35.3,-60.6Q35.6,-63 36,-65.1L34.4,-65.1Q34.1,-63 33.7,-60.6Q33.4,-58.6 32.9,-56.15Q32.4,-53.7 31.6,-51.1L17.7,-0L4.1,-0L8.4,-72Z"></path><path transform="translate(1020 200)" d="M24.8,1Q19.6,1 15.6,-0.5Q11.6,-2 9.05,-4.8Q6.5,-7.6 5.5,-11.5Q4.5,-15.4 5.3,-20.3L7.6,-34.7Q8.4,-39.6 10.6,-43.55Q12.8,-47.5 16.25,-50.25Q19.7,-53 24.15,-54.5Q28.6,-56 33.9,-56Q39.1,-56 43.05,-54.5Q47,-53 49.55,-50.2Q52.1,-47.4 53.15,-43.45Q54.2,-39.5 53.4,-34.7L51.8,-24.6L16.7,-24.6L16.1,-20.7Q15.2,-14.7 17.9,-11.35Q20.6,-8 26.3,-8Q30.5,-8 33.8,-9.4Q37.1,-10.8 38.9,-13.3L49.6,-13.3Q48.2,-10.1 45.75,-7.45Q43.3,-4.8 40.1,-2.95Q36.9,-1.1 33,-0.05Q29.1,1 24.8,1ZM42.3,-32.5L42.7,-34.7Q43.8,-40.5 41,-43.75Q38.2,-47 32.4,-47Q26.7,-47 23.1,-43.75Q19.5,-40.5 18.4,-34.7L18,-32.5L42.3,-32.5Z"></path><path transform="translate(1080 200)" d="M3,-0L14.4,-72L25.4,-72L22.8,-55.7Q22.6,-54.3 22.25,-52.5Q21.9,-50.7 21.5,-49.1Q21.1,-47.3 20.7,-45.5L21.5,-45.5Q23.4,-50.5 27.8,-53.25Q32.2,-56 38.2,-56Q42.4,-56 45.6,-54.45Q48.8,-52.9 50.8,-50.05Q52.8,-47.2 53.55,-43.25Q54.3,-39.3 53.5,-34.5L51.3,-20.7Q49.6,-10.4 43.7,-4.7Q37.8,1 29.2,1Q23.2,1 19.7,-1.75Q16.2,-4.5 15.8,-9.5L15,-9.5L13.5,-0L3,-0ZM17.2,-20.7Q16.3,-15.2 18.9,-11.9Q21.5,-8.6 26.7,-8.6Q32.3,-8.6 35.9,-11.85Q39.5,-15.1 40.4,-20.8L42.5,-34.3Q43.4,-40 40.75,-43.25Q38.1,-46.5 32.7,-46.5Q27.6,-46.5 23.95,-43.2Q20.3,-39.9 19.4,-34.3L17.2,-20.7Z"></path></svg>