<svg  xmlns="http://www.w3.org/2000/svg" xmlns:xlink="http://www.w3.org/1999/xlink" width="1140" height="300" viewBox="0 0 1164 324"><path transform="translate(0 100)" d="M3.3,-0L14.7,-72L56.7,-72L45.3,-0L3.3,-0ZM11.1,-5L41.1,-5L50,-61.1L11.1,-5ZM48.9,-67L18.9,-67L10,-10.9L48.9,-67Z"></path><path transform="translate(60 100)" d="M3.3,-0L14.7,-72L56.7,-72L45.3,-0L3.3,-0ZM11.1,-5L41.1,-5L50,-61.1L11.1,-5ZM48.9,-67L18.9,-67L10,-10.9L48.9,-67Z"></path><path transform="translate(120 100)" d="M3.3,-0L14.7,-72L56.7,-72L45.3,-0L3.3,-0ZM11.1,-5L41.1,-5L50,-61.1L11.1,-5ZM48.9,-67L18.9,-67L10,-10.9L48.9,-67Z"></path><path transform="translate(180 100)" d="M3.3,-0L14.7,-72L56.7,-72L45.3,-0L3.3,-0ZM11.1,-5L41.1,-5L50,-61.1L11.1,-5ZM48.9,-67L18.9,-67L10,-10.9L48.9,-67Z"></path><path transform="translate(240 100)" d="M3.3,-0L14.7,-72L56.7,-72L45.3,-0L3.3,-0ZM11.1,-5L41.1,-5L50,-61.1L11.1,-5ZM48.9,-67L18.9,-67L10,-10.9L48.9,-67Z"></path><path transform="translate(300 100)" d="M3.3,-0L14.7,-72L56.7,-72L45.3,-0L3.3,-0ZM11.1,-5L41.1,-5L50,-61.1L11.1,-5ZM48.9,-67L18.9,-67L10,-10.9L48.9,-67Z"></path><path transform="translate(0 200)" d="M10.9,-72L61.9,-72L60.7,-64.1L39.8,-64.1L29.6,-0L20.4,-0L30.6,-64.1L9.7,-64.1L10.9,-72Z"></path><path transform="translate(60 200)" d="M15.2,-72L24.2,-72L21.5,-55Q21.3,-53.6 20.95,-51.95Q20.6,-50.3 20.3,-48.9Q19.9,-47.2 19.5,-45.5L20.3,-45.5Q22.4,-50.5 26.8,-53.25Q31.2,-56 37.1,-56Q41.1,-56 44.2,-54.55Q47.3,-53.1 49.3,-50.55Q51.3,-48 52.05,-44.4Q52.8,-40.8 52.1,-36.6L46.3,-0L37.3,-0L42.9,-35.1Q43.9,-41.4 41.25,-44.9Q38.6,-48.4 32.9,-48.4Q27.2,-48.4 23.3,-44.65Q19.4,-40.9 18.3,-34.5L12.8,-0L3.8,-0L15.2,-72Z"></path><path transform="translate(120 200)" d="M24.8,1Q19.8,1 16,-0.45Q12.2,-1.9 9.8,-4.65Q7.4,-7.4 6.5,-11.3Q5.6,-15.2 6.4,-20L8.7,-35Q9.5,-39.9 11.6,-43.8Q13.7,-47.7 17,-50.4Q20.3,-53.1 24.55,-54.55Q28.8,-56 33.9,-56Q43.9,-56 48.85,-50.35Q53.8,-44.7 52.3,-35L50.7,-24.9L16,-24.9L15.3,-20.5Q14.2,-14.1 17.15,-10.45Q20.1,-6.8 26.1,-6.8Q30.6,-6.8 34.15,-8.3Q37.7,-9.8 39.7,-12.5L48.5,-12.5Q45.8,-6.2 39.45,-2.6Q33.1,1 24.8,1ZM43.1,-32.2L43.5,-35Q44.4,-41.3 41.55,-44.75Q38.7,-48.2 32.6,-48.2Q26.5,-48.2 22.45,-44.75Q18.4,-41.3 17.5,-35L17.1,-32.2L43.1,-32.2Z"></path><path transform="translate(180 200)" d=""></path><path transform="translate(240 200)" d="M15.4,-72L39.7,-72Q44.6,-72 48.35,-70.5Q52.1,-69 54.5,-66.2Q56.9,-63.4 57.9,-59.55Q58.9,-55.7 58.1,-51Q57.3,-46.2 55.15,-42.3Q53,-38.4 49.8,-35.65Q46.6,-32.9 42.35,-31.45Q38.1,-30 33.1,-30L17.8,-30L13,-0L4,-0L15.4,-72ZM19,-38L34.3,-38Q39.9,-38 43.9,-41.55Q47.9,-45.1 48.8,-51Q49.7,-56.9 46.85,-60.45Q44,-64 38.4,-64L23.1,-64L19,-38Z"></path><path transform="translate(300 200)" d="M6.2,-0L14.9,-55L23.2,-55L21.7,-45.5L22.5,-45.5Q24.5,-50.4 29.1,-53.2Q33.7,-56 39.7,-56Q43.9,-56 47.1,-54.55Q50.3,-53.1 52.25,-50.4Q54.2,-47.7 54.9,-43.95Q55.6,-40.2 54.8,-35.6L54.3,-32L45.5,-32L45.9,-34.5Q47,-41 44.25,-44.65Q41.5,-48.3 35.6,-48.3Q29.6,-48.3 25.55,-44.55Q21.5,-40.8 20.5,-34.5L15,-0L6.2,-0Z"></path><path transform="translate(360 200)" d="M24.8,1Q14.5,1 9.6,-4.7Q4.7,-10.4 6.3,-20.5L8.5,-34.5Q9.3,-39.5 11.45,-43.45Q13.6,-47.4 16.9,-50.2Q20.2,-53 24.5,-54.5Q28.8,-56 33.9,-56Q44.2,-56 49.15,-50.35Q54.1,-44.7 52.5,-34.6L50.3,-20.5Q48.6,-10.5 41.85,-4.75Q35.1,1 24.8,1ZM15.3,-20.5Q14.3,-14.2 17.15,-10.6Q20,-7 26.1,-7Q32.1,-7 36.2,-10.6Q40.3,-14.2 41.3,-20.5L43.5,-34.5Q44.5,-40.8 41.55,-44.4Q38.6,-48 32.6,-48Q26.6,-48 22.55,-44.4Q18.5,-40.8 17.5,-34.5L15.3,-20.5Z"></path><path transform="translate(420 200)" d="M0.8,17L2.1,8.7L14.1,8.7Q17.3,8.7 20,7.7Q22.7,6.7 24.85,4.9Q27,3.1 28.4,0.55Q29.8,-2 30.3,-5L36.9,-46.8L13.9,-46.8L15.2,-55L47.2,-55L39.3,-5Q38.6,-0.2 36.25,3.85Q33.9,7.9 30.35,10.85Q26.8,13.8 22.35,15.4Q17.9,17 12.8,17L0.8,17ZM42.2,-64.5Q39.3,-64.5 37.75,-66.05Q36.2,-67.6 36.6,-70.3Q37,-73.1 39.1,-74.8Q41.2,-76.5 44.1,-76.5L46.1,-76.5Q49,-76.5 50.55,-74.8Q52.1,-73.1 51.7,-70.4Q51.3,-67.7 49.2,-66.1Q47.1,-64.5 44.2,-64.5L42.2,-64.5Z"></path><path transform="translate(480 200)" d="M24.8,1Q19.8,1 16,-0.45Q12.2,-1.9 9.8,-4.65Q7.4,-7.4 6.5,-11.3Q5.6,-15.2 6.4,-20L8.7,-35Q9.5,-39.9 11.6,-43.8Q13.7,-47.7 17,-50.4Q20.3,-53.1 24.55,-54.55Q28.8,-56 33.9,-56Q43.9,-56 48.85,-50.35Q53.8,-44.7 52.3,-35L50.7,-24.9L16,-24.9L15.3,-20.5Q14.2,-14.1 17.15,-10.45Q20.1,-6.8 26.1,-6.8Q30.6,-6.8 34.15,-8.3Q37.7,-9.8 39.7,-12.5L48.5,-12.5Q45.8,-6.2 39.45,-2.6Q33.1,1 24.8,1ZM43.1,-32.2L43.5,-35Q44.4,-41.3 41.55,-44.75Q38.7,-48.2 32.6,-48.2Q26.5,-48.2 22.45,-44.75Q18.4,-41.3 17.5,-35L17.1,-32.2L43.1,-32.2Z"></path><path transform="translate(540 200)" d="M25.7,1Q20.8,1 17.05,-0.55Q13.3,-2.1 10.9,-4.9Q8.5,-7.7 7.6,-11.65Q6.7,-15.6 7.4,-20.5L9.6,-34.5Q11.2,-44.6 17.85,-50.3Q24.5,-56 34.8,-56Q39.1,-56 42.65,-54.65Q46.2,-53.3 48.7,-50.8Q51.2,-48.3 52.55,-44.95Q53.9,-41.6 53.8,-37.5L44.8,-37.5Q45,-42.2 41.8,-45.1Q38.6,-48 33.5,-48Q27.5,-48 23.45,-44.4Q19.4,-40.8 18.4,-34.5L16.2,-20.5Q15.2,-14.2 18.05,-10.6Q20.9,-7 27,-7Q32.5,-7 36.4,-9.8Q40.3,-12.6 41.7,-17.5L50.7,-17.5Q48.1,-8.7 41.6,-3.85Q35.1,1 25.7,1Z"></path><path transform="translate(600 200)" d="M9.7,-55L25.7,-55L28.4,-72L37.4,-72L34.7,-55L56.2,-55L54.9,-46.8L33.4,-46.8L28.3,-14.2Q27.8,-11.4 29.3,-9.8Q30.8,-8.2 33.8,-8.2L47.8,-8.2L46.5,-0L32.5,-0Q25.4,-0 21.85,-3.9Q18.3,-7.8 19.3,-14.2L24.4,-46.8L8.4,-46.8L9.7,-55Z"></path><path transform="translate(660 200)" d=""></path><path transform="translate(720 200)" d="M16.1,-72.1L58.9,-72.1L57.7,-64.1L23.5,-64.1L19.8,-40.8L51.4,-40.8L50.1,-32.8L18.7,-32.8L13.5,-0L4.7,-0L16.1,-72.1Z"></path><path transform="translate(780 200)" d="M24.8,1Q14.5,1 9.6,-4.7Q4.7,-10.4 6.3,-20.5L8.5,-34.5Q9.3,-39.5 11.45,-43.45Q13.6,-47.4 16.9,-50.2Q20.2,-53 24.5,-54.5Q28.8,-56 33.9,-56Q44.2,-56 49.15,-50.35Q54.1,-44.7 52.5,-34.6L50.3,-20.5Q48.6,-10.5 41.85,-4.75Q35.1,1 24.8,1ZM15.3,-20.5Q14.3,-14.2 17.15,-10.6Q20,-7 26.1,-7Q32.1,-7 36.2,-10.6Q40.3,-14.2 41.3,-20.5L43.5,-34.5Q44.5,-40.8 41.55,-44.4Q38.6,-48 32.6,-48Q26.6,-48 22.55,-44.4Q18.5,-40.8 17.5,-34.5L15.3,-20.5Z"></path><path transform="translate(840 200)" d="M6.2,-0L14.9,-55L23.2,-55L21.7,-45.5L22.5,-45.5Q24.5,-50.4 29.1,-53.2Q33.7,-56 39.7,-56Q43.9,-56 47.1,-54.55Q50.3,-53.1 52.25,-50.4Q54.2,-47.7 54.9,-43.95Q55.6,-40.2 54.8,-35.6L54.3,-32L45.5,-32L45.9,-34.5Q47,-41 44.25,-44.65Q41.5,-48.3 35.6,-48.3Q29.6,-48.3 25.55,-44.55Q21.5,-40.8 20.5,-34.5L15,-0L6.2,-0Z"></path><path transform="translate(900 200)" d=""></path><path transform="translate(960 200)" d="M8.9,-72L17.4,-72L13.8,-19.4Q13.6,-17.1 13.35,-14.65Q13.1,-12.2 12.9,-10.2Q12.6,-7.8 12.3,-5.5L13.6,-5.5Q14,-7.8 14.6,-10.2Q15.1,-12.2 15.65,-14.65Q16.2,-17.1 16.9,-19.4L32,-72L40.8,-72L39.1,-19.4Q39,-17.2 38.85,-14.75Q38.7,-12.3 38.5,-10.2Q38.3,-7.8 38.1,-5.5L39.5,-5.5Q40,-7.8 40.5,-10.2Q41,-12.2 41.6,-14.65Q42.2,-17.1 42.7,-19.4L55.6,-72L63.8,-72L45.2,-0L32.4,-0L34.6,-52.9Q34.8,-58.7 35.45,-62.45Q36.1,-66.2 36.2,-66.2L34.5,-66.2Q34.3,-64.5 33.9,-62.4Q33.6,-60.7 33.1,-58.25Q32.6,-55.8 31.8,-52.9L17.3,-0L4.5,-0L8.9,-72Z"></path><path transform="translate(1020 200)" d="M24.8,1Q19.8,1 16,-0.45Q12.2,-1.9 9.8,-4.65Q7.4,-7.4 6.5,-11.3Q5.6,-15.2 6.4,-20L8.7,-35Q9.5,-39.9 11.6,-43.8Q13.7,-47.7 17,-50.4Q20.3,-53.1 24.55,-54.55Q28.8,-56 33.9,-56Q43.9,-56 48.85,-50.35Q53.8,-44.7 52.3,-35L50.7,-24.9L16,-24.9L15.3,-20.5Q14.2,-14.1 17.15,-10.45Q20.1,-6.8 26.1,-6.8Q30.6,-6.8 34.15,-8.3Q37.7,-9.8 39.7,-12.5L48.5,-12.5Q45.8,-6.2 39.45,-2.6Q33.1,1 24.8,1ZM43.1,-32.2L43.5,-35Q44.4,-41.3 41.55,-44.75Q38.7,-48.2 32.6,-48.2Q26.5,-48.2 22.45,-44.75Q18.4,-41.3 17.5,-35L17.1,-32.2L43.1,-32.2Z"></path><path transform="translate(1080 200)" d="M3.8,-0L15.2,-72L24.2,-72L21.7,-56Q21.5,-54.6 21.15,-52.75Q20.8,-50.9 20.4,-49.3Q20,-47.4 19.5,-45.5L20.3,-45.5Q22.4,-50.5 26.85,-53.25Q31.3,-56 37.4,-56Q41.6,-56 44.75,-54.45Q47.9,-52.9 49.85,-50.05Q51.8,-47.2 52.55,-43.25Q53.3,-39.3 52.5,-34.5L50.3,-20.5Q48.6,-10.2 42.7,-4.6Q36.8,1 28.3,1Q22.2,1 18.65,-1.75Q15.1,-4.5 14.6,-9.5L13.8,-9.5L12.3,-0L3.8,-0ZM16.1,-20.5Q15,-14.2 17.8,-10.5Q20.6,-6.8 26.2,-6.8Q32.3,-6.8 36.3,-10.45Q40.3,-14.1 41.3,-20.5L43.5,-34.5Q44.5,-40.9 41.6,-44.55Q38.7,-48.2 32.7,-48.2Q27.1,-48.2 23.2,-44.5Q19.3,-40.8 18.3,-34.5L16.1,-20.5Z"></path></svg>